<svg width="103" height="68" viewBox="0 0 103 68" fill="none" xmlns="http://www.w3.org/2000/svg">
<g clip-path="url(#clip0_1_594)">
<rect x="0.25" y="0.25" width="102.5" height="29.5" rx="14.75" stroke="white" stroke-width="0.5"/>
<path d="M105 30.3911C105 32.3839 103.622 34 101.923 34H101.92H1.08552C-0.616461 34.0016 -1.99729 32.387 -2 30.3911V1.61367C-1.99729 -0.382273 -0.617816 -1.99841 1.08552 -2H101.919C103.621 -2 105 -0.382273 105 1.61208V30.3911Z" fill="#F2F2F2" fill-opacity="0.17"/>
<path d="M26.8584 15.0406C26.8404 12.8929 28.5111 11.8476 28.5871 11.7993C27.6409 10.3315 26.1741 10.1303 25.6587 10.1146C24.4264 9.97635 23.232 10.8991 22.6047 10.8991C21.9774 10.8991 20.9985 10.1281 19.9562 10.1506C18.6161 10.173 17.3626 10.998 16.6741 12.2803C15.2548 14.8945 16.3129 18.736 17.6731 20.8489C18.3532 21.8841 19.1484 23.0394 20.1885 22.999C21.2065 22.9551 21.5867 22.3089 22.8149 22.3089C24.043 22.3089 24.3883 22.999 25.4496 22.9731C26.5416 22.9551 27.2301 21.9335 27.8859 20.8894C28.6716 19.7037 28.9873 18.5348 29 18.4753C28.9747 18.4663 26.8795 17.6144 26.8584 15.0406ZM24.8541 8.72433C25.4011 7.99604 25.776 7.00477 25.6725 6C24.8805 6.03709 23.8899 6.5833 23.3186 7.29586C22.8138 7.92411 22.3629 8.95248 22.4791 9.92016C23.3693 9.99096 24.2827 9.4425 24.8541 8.72545V8.72433Z" fill="white"/>
<path d="M42.3276 22.5409H40.8462L40.0346 20.0689H37.2149L36.4418 22.5409H35L37.7944 14.1269H39.5199L42.3276 22.5409ZM39.7905 19.0324L39.0569 16.8356C38.9789 16.6116 38.8337 16.0827 38.6192 15.2509H38.5928C38.5071 15.6092 38.3696 16.1371 38.1804 16.8356L37.459 19.0324H39.7905ZM49.5011 19.4323C49.5011 20.4646 49.2119 21.2793 48.6334 21.8786C48.1155 22.4118 47.4721 22.6774 46.7045 22.6774C45.8753 22.6774 45.2793 22.3905 44.9174 21.8168V25H43.5274V18.4661C43.5274 17.8177 43.5098 17.1534 43.4757 16.4719H44.6986L44.7767 17.4338H44.8031C45.2672 16.7097 45.971 16.3472 46.9146 16.3472C47.6525 16.3472 48.2694 16.6298 48.7621 17.196C49.2548 17.7634 49.5022 18.5077 49.5022 19.4323H49.5011ZM48.0847 19.4813C48.0847 18.8905 47.9472 18.4043 47.6723 18.0204C47.3721 17.6215 46.9673 17.4221 46.4615 17.4221C46.1183 17.4221 45.8071 17.533 45.5278 17.7527C45.2485 17.9745 45.0659 18.2624 44.9801 18.6207C44.9416 18.7551 44.9207 18.8927 44.9152 19.0313V20.0433C44.9152 20.4838 45.0549 20.8559 45.3342 21.1609C45.6136 21.4649 45.9765 21.6163 46.4219 21.6163C46.9454 21.6163 47.3534 21.4201 47.6448 21.0298C47.9373 20.6384 48.0836 20.1222 48.0836 19.4813H48.0847ZM56.7 19.4323C56.7 20.4646 56.4108 21.2793 55.8323 21.8786C55.3144 22.4118 54.671 22.6774 53.9023 22.6774C53.0731 22.6774 52.477 22.3905 52.1152 21.8168V25H50.7252V18.4661C50.7252 17.8177 50.7076 17.1534 50.6735 16.4719H51.8964L51.9745 17.4338H52.0008C52.4638 16.7097 53.1677 16.3472 54.1123 16.3472C54.8503 16.3472 55.4661 16.6298 55.961 17.196C56.4526 17.7634 56.7011 18.5077 56.7011 19.4323H56.7ZM55.2825 19.4813C55.2825 18.8905 55.145 18.4043 54.8701 18.0204C54.5698 17.6215 54.1673 17.4221 53.6604 17.4221C53.3172 17.4221 53.006 17.533 52.7256 17.7527C52.4462 17.9745 52.2648 18.2624 52.179 18.6207C52.1361 18.7882 52.1141 18.9236 52.1141 19.0313V20.0433C52.1141 20.4838 52.2549 20.8559 52.532 21.1609C52.8114 21.4638 53.1743 21.6163 53.6208 21.6163C54.1453 21.6163 54.5522 21.4201 54.8437 21.0298C55.1362 20.6384 55.2825 20.1222 55.2825 19.4813ZM64.7479 20.1798C64.7479 20.8965 64.4895 21.4787 63.9759 21.9277C63.4106 22.4182 62.6221 22.6646 61.6115 22.6646C60.6778 22.6646 59.9289 22.4897 59.3636 22.1399L59.6847 21.0159C60.2951 21.3657 60.9648 21.5406 61.6939 21.5406C62.2185 21.5406 62.6254 21.4254 62.9168 21.1972C63.2083 20.9679 63.3556 20.6619 63.3556 20.2801C63.3556 19.9378 63.2336 19.652 62.9938 19.4184C62.753 19.1859 62.3549 18.9684 61.7962 18.77C60.2764 18.2208 59.5165 17.4168 59.5165 16.36C59.5165 15.67 59.7848 15.1037 60.3215 14.6622C60.8581 14.2207 61.5686 14 62.4528 14C63.2424 14 63.9011 14.1333 64.4235 14.3999L64.0749 15.4983C63.5833 15.2402 63.0279 15.1112 62.4077 15.1112C61.9172 15.1112 61.5323 15.2285 61.2573 15.461C61.0253 15.6689 60.9087 15.9227 60.9087 16.2235C60.9087 16.5551 61.0429 16.8313 61.309 17.0478C61.54 17.2472 61.9612 17.4637 62.5704 17.6962C63.3182 17.9884 63.867 18.3286 64.2189 18.7189C64.573 19.1092 64.749 19.5976 64.749 20.1777L64.7479 20.1798ZM69.3569 17.484H67.8239V20.4294C67.8239 21.1791 68.0944 21.5523 68.6355 21.5523C68.884 21.5523 69.0897 21.532 69.2535 21.4894L69.292 22.5131C69.0182 22.6123 68.6575 22.6624 68.211 22.6624C67.6622 22.6624 67.2322 22.5003 66.9232 22.1751C66.6142 21.8498 66.4591 21.306 66.4591 20.5392V17.4808H65.5463V16.4687H66.4591V15.3575L67.825 14.9576V16.4677H69.358V17.4818L69.3569 17.484ZM76.2589 19.4557C76.2589 20.3889 75.9839 21.1545 75.4341 21.7528C74.86 22.3692 74.0946 22.6763 73.1422 22.6763C72.1898 22.6763 71.4915 22.3809 70.946 21.7912C70.4006 21.2004 70.1278 20.455 70.1278 19.5571C70.1278 18.6591 70.4094 17.8465 70.9713 17.2483C71.5344 16.649 72.2921 16.3493 73.2445 16.3493C74.1969 16.3493 74.9007 16.6447 75.4583 17.2355C75.9916 17.8081 76.2578 18.5482 76.2578 19.4557H76.2589ZM74.8171 19.4867C74.8171 18.9311 74.6928 18.4544 74.4443 18.0555C74.1529 17.5735 73.735 17.3325 73.195 17.3325C72.655 17.3325 72.2107 17.5735 71.9204 18.0555C71.6708 18.4544 71.5476 18.9396 71.5476 19.5123C71.5476 20.0849 71.6719 20.5467 71.9204 20.9445C72.2206 21.4265 72.6407 21.6675 73.184 21.6675C73.7273 21.6675 74.132 21.4211 74.4333 20.9327C74.6884 20.5243 74.8171 20.0444 74.8171 19.4877V19.4867ZM80.7799 17.6578C80.6347 17.6322 80.4885 17.6205 80.3411 17.6205C79.8517 17.6205 79.4734 17.7985 79.2073 18.1579C78.9763 18.4736 78.8597 18.8735 78.8597 19.3566V22.5398H77.4697V18.3829C77.4708 17.7463 77.4576 17.1096 77.429 16.473H78.6398L78.6904 17.6343H78.7289C78.8762 17.2355 79.1072 16.9134 79.4239 16.6724C79.7142 16.4623 80.0662 16.3482 80.4291 16.3472C80.5577 16.3472 80.6732 16.3557 80.7766 16.3717V17.6578H80.7777H80.7799ZM86.9989 19.219C87.0022 19.4238 86.9857 19.6285 86.9483 19.8301H82.777C82.7924 20.4294 82.9948 20.889 83.3819 21.2047C83.7338 21.4862 84.188 21.628 84.7466 21.628C85.3647 21.628 85.9278 21.5331 86.4347 21.3412L86.6525 22.2764C86.0597 22.527 85.3614 22.6518 84.5542 22.6518C83.5842 22.6518 82.8221 22.3745 82.2678 21.8221C81.7147 21.2686 81.4375 20.5254 81.4375 19.5944C81.4375 18.6634 81.6949 17.918 82.2106 17.3101C82.7506 16.6618 83.4808 16.3376 84.3991 16.3376C85.3174 16.3376 85.9838 16.6618 86.4479 17.3101C86.8152 17.8241 87 18.4619 87 19.2179L86.9989 19.219ZM85.6726 18.8692C85.6825 18.4693 85.5912 18.1249 85.4021 17.8327C85.1612 17.4573 84.7906 17.2696 84.2946 17.2696C83.8405 17.2696 83.4698 17.452 83.1883 17.8188C82.9563 18.1099 82.8188 18.4608 82.777 18.8671H85.6726V18.8682V18.8692Z" fill="white"/>
<path d="M36.9884 10.972C36.6057 10.972 36.2751 10.9556 36 10.9276V7.24517C36.3849 7.19209 36.7742 7.16602 37.1635 7.16699C38.7402 7.16699 39.4666 7.85521 39.4666 8.9778C39.4666 10.2722 38.6086 10.972 36.9884 10.972ZM37.219 7.639C37.0058 7.639 36.8253 7.65058 36.6742 7.67761V10.4768C36.7557 10.4884 36.9112 10.4932 37.1309 10.4932C38.1639 10.4932 38.7522 9.97104 38.7522 8.99421C38.7522 8.12259 38.2204 7.639 37.219 7.639ZM41.7294 11C40.841 11 40.2647 10.4112 40.2647 9.61197C40.2647 8.81274 40.853 8.18436 41.7794 8.18436C42.6548 8.18436 43.2441 8.74517 43.2441 9.56757C43.2441 10.39 42.6374 11 41.7294 11ZM41.7555 8.62259C41.2673 8.62259 40.9541 9.02799 40.9541 9.59459C40.9541 10.1612 41.2738 10.556 41.749 10.556C42.2242 10.556 42.5439 10.1226 42.5439 9.58398C42.5439 9.04537 42.2307 8.62355 41.7555 8.62355V8.62259ZM48.3124 8.23938L47.3609 10.9382H46.7411L46.3475 9.76641C46.2496 9.47973 46.1681 9.18919 46.1028 8.89479H46.0898C46.0398 9.18919 45.9463 9.48359 45.8462 9.76641L45.4276 10.9382H44.8013L43.9063 8.23938H44.6012L44.9459 9.5222C45.0274 9.82819 45.0959 10.1158 45.1525 10.389H45.1655C45.2155 10.1622 45.296 9.87838 45.4156 9.52799L45.8473 8.23938H46.3975L46.8107 9.5C46.9108 9.80598 46.9923 10.1052 47.0554 10.389H47.0739C47.1174 10.111 47.187 9.8166 47.2805 9.5L47.6502 8.23938H48.3135H48.3124ZM51.8138 10.9382H51.1374V9.38803C51.1374 8.9112 50.9308 8.67181 50.5241 8.67181C50.1175 8.67181 49.8478 8.9778 49.8478 9.33301V10.9382H49.1714V9.01062C49.1714 8.7722 49.1649 8.51641 49.1464 8.23842H49.7412L49.7728 8.65541H49.7912C49.9728 8.3668 50.3415 8.1834 50.7557 8.1834C51.394 8.1834 51.8138 8.6168 51.8138 9.32143V10.9373V10.9382ZM53.6775 10.9382H53.0012V7.00097H53.6775V10.9382ZM56.1415 10.999C55.2531 10.999 54.6768 10.4102 54.6768 9.611C54.6768 8.81178 55.2651 8.1834 56.1916 8.1834C57.068 8.1834 57.6563 8.74421 57.6563 9.5666C57.6563 10.4102 57.0495 10.999 56.1415 10.999ZM56.1665 8.62162C55.6783 8.62162 55.3651 9.02703 55.3651 9.59363C55.3651 10.1602 55.6848 10.555 56.1589 10.555C56.633 10.555 56.9538 10.1216 56.9538 9.58301C56.9538 9.03378 56.6428 8.62259 56.1665 8.62259V8.62162ZM60.3203 10.9382L60.2714 10.6274H60.2529C60.0463 10.8774 59.7451 10.999 59.3634 10.999C58.8187 10.999 58.4316 10.6602 58.4316 10.2046C58.4316 9.53861 59.0818 9.19402 60.2094 9.19402V9.14382C60.2094 8.78861 59.9974 8.61004 59.5777 8.61004C59.2775 8.61004 59.0144 8.67664 58.7828 8.81081L58.6458 8.41602C58.9274 8.26062 59.2775 8.18243 59.6897 8.18243C60.4845 8.18243 60.8858 8.55405 60.8858 9.29923V10.2934C60.8858 10.5656 60.8988 10.777 60.9293 10.9382H60.3203ZM60.2279 9.59363C59.4776 9.59363 59.1003 9.75483 59.1003 10.138C59.1003 10.4208 59.2949 10.5598 59.5635 10.5598C59.9071 10.5598 60.2268 10.3272 60.2268 10.0106V9.59363H60.2279ZM64.1686 10.9382L64.137 10.5048H64.1186C63.9239 10.832 63.5977 10.999 63.1421 10.999C62.4092 10.999 61.8655 10.4266 61.8655 9.62162C61.8655 8.8166 62.4288 8.18243 63.1975 8.18243C63.6042 8.18243 63.8924 8.30405 64.0555 8.54923H64.0685V7H64.7449V10.2104C64.7449 10.471 64.7525 10.7162 64.7699 10.9382H64.1686ZM64.0685 9.35039C64.0685 8.97297 63.7869 8.65058 63.3563 8.65058C62.855 8.65058 62.5484 9.04537 62.5484 9.60039C62.5484 10.1554 62.8659 10.5174 63.3422 10.5174C63.7673 10.5174 64.0674 10.1892 64.0674 9.80116V9.35135L64.0685 9.35039ZM69.0346 11C68.1462 11 67.571 10.4112 67.571 9.61197C67.571 8.81274 68.1593 8.18436 69.0857 8.18436C69.9621 8.18436 70.5504 8.74517 70.5504 9.56757C70.5504 10.4112 69.9447 11 69.0357 11H69.0346ZM69.0596 8.62259C68.5725 8.62259 68.2593 9.02799 68.2593 9.59459C68.2593 10.1612 68.579 10.556 69.0531 10.556C69.5272 10.556 69.848 10.1226 69.848 9.58398C69.849 9.03475 69.537 8.62355 69.0596 8.62355V8.62259ZM74.1844 10.9392H73.5081V9.389C73.5081 8.91216 73.3015 8.67278 72.8948 8.67278C72.4881 8.67278 72.2195 8.97876 72.2195 9.33398V10.9392H71.5432V9.01158C71.5432 8.77317 71.5367 8.51737 71.5182 8.23938H72.113L72.1445 8.65637H72.163C72.3446 8.36776 72.7132 8.18436 73.1264 8.18436C73.7647 8.18436 74.1844 8.61776 74.1844 9.32239V10.9392ZM78.7319 8.69015H77.9881V10.001C77.9881 10.3349 78.1186 10.501 78.3817 10.501C78.5013 10.501 78.6014 10.4894 78.6818 10.473L78.7003 10.9286C78.5698 10.973 78.3937 10.9952 78.1762 10.9952C77.6434 10.9952 77.3248 10.7346 77.3248 10.0512V8.69015H76.8811V8.24035H77.3248V7.74614L77.9881 7.56853V8.24035H78.7319V8.69112V8.69015ZM82.3093 10.9392H81.6341V9.40058C81.6341 8.91795 81.4286 8.67278 81.0208 8.67278C80.6707 8.67278 80.3444 8.88417 80.3444 9.31178V10.9392H79.6692V7.00193H80.3444V8.62355H80.3575C80.5706 8.32915 80.8783 8.18436 81.272 8.18436C81.9157 8.18436 82.3093 8.62838 82.3093 9.33398V10.9392ZM85.9749 9.73359H83.9469C83.96 10.2442 84.3406 10.5328 84.9049 10.5328C85.205 10.5328 85.4812 10.4884 85.7248 10.4054L85.8303 10.8224C85.5421 10.9334 85.2039 10.9894 84.8103 10.9894C83.8588 10.9894 83.2956 10.4556 83.2956 9.62934C83.2956 8.80309 83.8719 8.17954 84.7342 8.17954C85.5117 8.17954 85.9988 8.69015 85.9988 9.46236C86.0032 9.55309 85.9956 9.64479 85.976 9.73456L85.9749 9.73359ZM85.3551 9.30598C85.3551 8.889 85.118 8.59556 84.6864 8.59556C84.2982 8.59556 83.9915 8.89575 83.9469 9.30598H85.3551Z" fill="white"/>
</g>
<g clip-path="url(#clip1_1_594)">
<path d="M1.08552 71.5H1.08505C-0.269236 71.5013 -1.49741 70.1879 -1.5 68.3907V39.614C-1.49741 37.8168 -0.27038 36.5014 1.08578 36.5H101.919C103.273 36.5 104.5 37.8163 104.5 39.6121V68.3911C104.5 70.1854 103.274 71.5 101.923 71.5H101.92H1.08552Z" fill="#F2F2F2" fill-opacity="0.17" stroke="white"/>
<rect x="0.25" y="38.25" width="102.5" height="29.5" rx="14.75" stroke="white" stroke-width="0.5"/>
</g>
<path d="M38.0209 47.129C38.0209 47.6449 37.8863 48.0966 37.5516 48.4188C37.1491 48.8063 36.681 48.9989 36.0772 48.9989C35.4733 48.9989 35.0052 48.8052 34.6027 48.4188C34.2001 48.0313 34 47.5807 34 46.9995C34 46.4182 34.2013 45.9676 34.6027 45.5801C35.0052 45.1927 35.4733 45 36.0772 45C36.3451 45 36.6131 45.0642 36.8811 45.1937C37.1491 45.3233 37.3504 45.4517 37.4838 45.6454L37.1491 45.9676C36.8811 45.6454 36.5464 45.5159 36.0772 45.5159C35.6746 45.5159 35.2732 45.6454 35.0052 45.9676C34.6705 46.2256 34.536 46.6131 34.536 47.0637C34.536 47.5143 34.6705 47.9018 35.0052 48.1597C35.3399 48.4177 35.6757 48.6114 36.0772 48.6114C36.5464 48.6114 36.8811 48.4819 37.2158 48.1597C37.4171 47.966 37.5505 47.708 37.5505 47.3859H36.076V46.8699H38.0197V47.1279L38.0209 47.129ZM41.1032 45.517H39.2941V46.7426H40.9687V47.1943H39.2941V48.4199H41.1032V48.9358H38.7581V45.0653H41.1032V45.517ZM43.315 48.9358H42.779V45.517H41.6403V45.0653H44.4547V45.517H43.3161V48.9358H43.315ZM46.3973 48.9358V45.0653H46.9333V48.9358H46.3973ZM49.2117 48.9358H48.6757V45.517H47.5371V45.0653H50.2848V45.517H49.1461V48.9358H49.2128H49.2117ZM55.5777 48.4199C55.1752 48.8073 54.7071 49 54.1032 49C53.4994 49 53.0313 48.8063 52.6288 48.4199C52.2262 48.0324 52.0261 47.5818 52.0261 47.0005C52.0261 46.4193 52.2274 45.9687 52.6288 45.5812C53.0313 45.1937 53.4994 45.0011 54.1032 45.0011C54.7071 45.0011 55.1752 45.1948 55.5777 45.5812C55.9803 45.9687 56.1804 46.4193 56.1804 47.0005C56.1804 47.5818 55.9791 48.0324 55.5777 48.4199ZM53.0313 48.0977C53.2993 48.3556 53.7018 48.5494 54.1032 48.5494C54.5047 48.5494 54.9072 48.4199 55.1752 48.0977C55.4432 47.8397 55.6444 47.4522 55.6444 47.0016C55.6444 46.551 55.5099 46.1635 55.1752 45.9056C54.9072 45.6476 54.5047 45.4539 54.1032 45.4539C53.7018 45.4539 53.2993 45.5834 53.0313 45.9056C52.7633 46.1635 52.5621 46.551 52.5621 47.0016C52.5621 47.4522 52.6966 47.8397 53.0313 48.0977ZM56.9176 48.9358V45.0653H57.5203L59.464 48.0966V45.0653H60V48.9358H59.464L57.3869 45.775V48.9358H56.9176Z" fill="white"/>
<path d="M52.1924 55.0581C50.5756 55.0581 49.2954 56.2302 49.2954 57.857C49.2954 59.4838 50.5756 60.6559 52.1924 60.6559C53.8091 60.6559 55.0893 59.4838 55.0893 57.857C55.0893 56.2302 53.8091 55.0581 52.1924 55.0581ZM52.1924 59.4849C51.3169 59.4849 50.5756 58.7687 50.5756 57.7922C50.5756 56.8157 51.3169 56.0995 52.1924 56.0995C53.0678 56.0995 53.8091 56.7508 53.8091 57.7922C53.8091 58.7687 53.0678 59.4849 52.1924 59.4849ZM45.9266 55.0581C44.3099 55.0581 43.0297 56.2302 43.0297 57.857C43.0297 59.4838 44.3099 60.6559 45.9266 60.6559C47.5434 60.6559 48.8236 59.4838 48.8236 57.857C48.8236 56.2302 47.5434 55.0581 45.9266 55.0581ZM45.9266 59.4849C45.0512 59.4849 44.3099 58.7687 44.3099 57.7922C44.3099 56.8157 45.0512 56.0995 45.9266 56.0995C46.8021 56.0995 47.5434 56.7508 47.5434 57.7922C47.5434 58.7687 46.8021 59.4849 45.9266 59.4849ZM38.4478 55.905V57.0771H41.3447C41.2776 57.7285 41.0082 58.2492 40.6705 58.5743C40.2657 58.9653 39.5927 59.4201 38.4466 59.4201C36.6275 59.4201 35.2802 58.0536 35.2802 56.2961C35.2802 54.5385 36.6946 53.1721 38.4466 53.1721C39.3903 53.1721 40.1305 53.5631 40.6705 54.0179L41.546 53.1721C40.8047 52.5207 39.8621 52 38.5137 52C36.0886 52 34 53.9531 34 56.2961C34 58.6391 36.0886 60.5922 38.5137 60.5922C39.861 60.5922 40.8047 60.2011 41.613 59.3553C42.4214 58.5743 42.6909 57.467 42.6909 56.6212C42.6909 56.3609 42.6909 56.1006 42.6238 55.905H38.4466H38.4478ZM69.0363 56.8168C68.7669 56.1654 68.0927 55.0592 66.6112 55.0592C65.1298 55.0592 63.9166 56.1654 63.9166 57.8581C63.9166 59.4201 65.1298 60.657 66.7465 60.657C68.0267 60.657 68.8351 59.876 69.1046 59.4201L68.1609 58.7687C67.8244 59.2246 67.4196 59.5497 66.7465 59.5497C66.0734 59.5497 65.6687 59.2894 65.3322 58.7039L69.1728 57.1419L69.0375 56.8168H69.0363ZM65.1286 57.7285C65.1286 56.6871 66.0041 56.1017 66.6112 56.1017C67.0831 56.1017 67.5549 56.362 67.6891 56.6871L65.1286 57.7285ZM61.9622 60.3977H63.2424V52.2614H61.9622V60.3977ZM59.9407 55.6458C59.6042 55.3207 59.0653 54.9944 58.3911 54.9944C56.9767 54.9944 55.6283 56.2313 55.6283 57.7933C55.6283 59.3553 56.9085 60.5274 58.3911 60.5274C59.0653 60.5274 59.6042 60.2022 59.8736 59.876H59.9407V60.267C59.9407 61.3084 59.3347 61.8938 58.3911 61.8938C57.6498 61.8938 57.1108 61.3732 56.9767 60.9173L55.8989 61.3732C56.2354 62.0894 57.0438 63 58.4593 63C59.8748 63 61.1538 62.1542 61.1538 60.1363V55.1888H59.9407V55.6447V55.6458ZM58.4581 59.486C57.5827 59.486 56.8414 58.7698 56.8414 57.7933C56.8414 56.8168 57.5827 56.1006 58.4581 56.1006C59.3336 56.1006 60.0078 56.8168 60.0078 57.7933C60.0078 58.7698 59.3336 59.486 58.4581 59.486ZM74.8973 52.2603H71.8651V60.3966H73.1453V57.3374H74.8973C76.3117 57.3374 77.6601 56.3609 77.6601 54.7989C77.6601 53.2369 76.3128 52.2603 74.8973 52.2603ZM74.9644 56.1665H73.1453V53.3676H74.9644C75.9081 53.3676 76.447 54.1486 76.447 54.7341C76.3799 55.4503 75.841 56.1665 74.9644 56.1665ZM82.7127 54.9944C81.7691 54.9944 80.8265 55.3855 80.4889 56.2313L81.6338 56.6871C81.9032 56.2313 82.308 56.1017 82.7787 56.1017C83.4529 56.1017 84.0589 56.4927 84.126 57.143V57.2078C83.9236 57.0771 83.3847 56.8827 82.8458 56.8827C81.6326 56.8827 80.4207 57.5341 80.4207 58.705C80.4207 59.8112 81.4314 60.5274 82.5092 60.5274C83.3847 60.5274 83.7894 60.1363 84.126 59.7464H84.1931V60.3977H85.4062V57.2737C85.2709 55.8413 84.126 54.9955 82.7116 54.9955L82.7127 54.9944ZM82.5775 59.486C82.1727 59.486 81.5667 59.2905 81.5667 58.7698C81.5667 58.1184 82.308 57.924 82.914 57.924C83.4529 57.924 83.7224 58.0547 84.0589 58.1843C83.9236 58.9653 83.2505 59.486 82.5763 59.486H82.5775ZM89.6516 55.1899L88.2372 58.705H88.1701L86.6875 55.1899H85.3402L87.5641 60.1374L86.2839 62.8715H87.5641L91 55.1899H89.6527H89.6516ZM78.3321 60.3977H79.6123V52.2614H78.3321V60.3977Z" fill="white"/>
<path d="M12.8055 45.704C12.6018 45.9042 12.5343 46.2372 12.5343 46.6377V61.3704C12.5343 61.7709 12.6705 62.1038 12.8731 62.3041L12.9406 62.3705L21.3499 54.1042V53.9703L12.8055 45.704Z" fill="url(#paint0_linear_1_594)"/>
<path d="M24.0633 56.9041L21.2823 54.1704V53.9702L24.0633 51.2365L24.1308 51.3029L27.4543 53.1692C28.4041 53.7025 28.4041 54.5687 27.4543 55.103L24.0633 56.903V56.9041Z" fill="url(#paint1_linear_1_594)"/>
<path d="M24.1308 56.8377L21.2823 54.0377L12.8055 62.3703C13.1443 62.7033 13.6192 62.7033 14.2292 62.4367L24.1308 56.8366" fill="url(#paint2_linear_1_594)"/>
<path d="M24.1308 51.2376L14.2292 45.7038C13.6192 45.3708 13.1443 45.4372 12.8055 45.7702L21.2823 54.0365L24.1308 51.2364V51.2376Z" fill="url(#paint3_linear_1_594)"/>
<path opacity="0.2" d="M24.0633 56.7705L14.2292 62.2368C13.6868 62.5698 13.2118 62.5034 12.8731 62.2368L12.8055 62.3032L12.8731 62.3695C13.2118 62.6361 13.6868 62.7025 14.2292 62.3695L24.0633 56.7694V56.7705Z" fill="#F2F2F2"/>
<path opacity="0.12" d="M12.8055 62.2379C12.6018 62.0376 12.5343 61.7046 12.5343 61.3041V61.3705C12.5343 61.771 12.6705 62.104 12.8731 62.3042V62.2379H12.8055ZM27.4543 54.9042L24.0633 56.7705L24.1308 56.8369L27.4543 54.9705C27.9292 54.7039 28.1329 54.3709 28.1329 54.0368C28.1329 54.3698 27.8617 54.6364 27.4543 54.903V54.9042Z" fill="#F2F2F2"/>
<path opacity="0.25" d="M14.2292 45.7715L27.4543 53.1716C27.8617 53.4382 28.1329 53.7048 28.1329 54.0378C28.1329 53.7048 27.9292 53.3707 27.4543 53.1041L14.2292 45.704C13.2793 45.1708 12.5343 45.5701 12.5343 46.6377V46.7041C12.5343 45.704 13.2805 45.2371 14.2292 45.7704V45.7715Z" fill="#F2F2F2"/>
<defs>
<linearGradient id="paint0_linear_1_594" x1="20.5819" y1="46.7438" x2="9.38955" y2="58.1365" gradientUnits="userSpaceOnUse">
<stop stop-color="#00A1FF"/>
<stop offset="0.26" stop-color="#00BEFF"/>
<stop offset="0.51" stop-color="#00D2FF"/>
<stop offset="0.76" stop-color="#00DFFF"/>
<stop offset="1" stop-color="#00E3FF"/>
</linearGradient>
<linearGradient id="paint1_linear_1_594" x1="28.7528" y1="54.3154" x2="12.3295" y2="54.3154" gradientUnits="userSpaceOnUse">
<stop stop-color="#FFE000"/>
<stop offset="0.41" stop-color="#FFBD00"/>
<stop offset="0.78" stop-color="#FFA500"/>
<stop offset="1" stop-color="#FF9C00"/>
</linearGradient>
<linearGradient id="paint2_linear_1_594" x1="22.6314" y1="55.803" x2="7.45701" y2="71.2467" gradientUnits="userSpaceOnUse">
<stop stop-color="#FF3A44"/>
<stop offset="1" stop-color="#C31162"/>
</linearGradient>
<linearGradient id="paint3_linear_1_594" x1="10.7211" y1="41.0799" x2="17.498" y2="47.9739" gradientUnits="userSpaceOnUse">
<stop stop-color="#32A071"/>
<stop offset="0.07" stop-color="#2DA771"/>
<stop offset="0.48" stop-color="#15CF74"/>
<stop offset="0.8" stop-color="#06E775"/>
<stop offset="1" stop-color="#00F076"/>
</linearGradient>
<clipPath id="clip0_1_594">
<rect width="103" height="30" rx="15" fill="white"/>
</clipPath>
<clipPath id="clip1_1_594">
<rect y="38" width="103" height="30" rx="15" fill="white"/>
</clipPath>
</defs>
</svg>
