<svg width="121" height="35" viewBox="0 0 121 35" fill="none" xmlns="http://www.w3.org/2000/svg">
<rect x="0.5" y="0.5" width="119.167" height="34" rx="17" fill="black" stroke="white"/>
<path d="M31.3349 17.5473C31.314 15.0416 33.263 13.8221 33.3518 13.7657C32.2479 12.0533 30.5366 11.8186 29.9353 11.8002C28.4976 11.639 27.1041 12.7155 26.3723 12.7155C25.6405 12.7155 24.4984 11.816 23.2824 11.8422C21.7189 11.8684 20.2565 12.8309 19.4533 14.3269C17.7974 17.3768 19.0319 21.8586 20.6187 24.3237C21.4122 25.5313 22.3399 26.8792 23.5534 26.832C24.7411 26.7809 25.1846 26.0269 26.6175 26.0269C28.0503 26.0269 28.4532 26.832 29.6914 26.8018C30.9653 26.7809 31.7686 25.589 32.5337 24.3709C33.4503 22.9875 33.8187 21.6239 33.8335 21.5544C33.8039 21.5439 31.3596 20.55 31.3349 17.5473ZM28.9965 10.1783C29.6347 9.3286 30.0721 8.1721 29.9514 6.99988C29.0273 7.04315 27.8717 7.6804 27.2052 8.51171C26.6163 9.24468 26.0902 10.4444 26.2257 11.5734C27.2643 11.656 28.33 11.0161 28.9965 10.1796V10.1783Z" fill="white"/>
<path d="M49.3823 26.2978H47.6541L46.7072 23.4139H43.4175L42.5155 26.2978H40.8335L44.0937 16.4815H46.1067L49.3823 26.2978ZM46.4224 22.2046L45.5666 19.6417C45.4755 19.3804 45.3061 18.7633 45.0559 17.7929H45.0251C44.9251 18.2109 44.7647 18.8268 44.544 19.6417L43.7023 22.2046H46.4224ZM57.7515 22.6712C57.7515 23.8755 57.4141 24.826 56.7392 25.5252C56.1349 26.1473 55.3843 26.4571 54.4888 26.4571C53.5214 26.4571 52.826 26.1224 52.4038 25.4531V29.1668H50.7821V21.544C50.7821 20.7875 50.7616 20.0124 50.7218 19.2174H52.1485L52.2396 20.3396H52.2704C52.8118 19.4949 53.633 19.0719 54.7338 19.0719C55.5947 19.0719 56.3145 19.4016 56.8893 20.0622C57.4641 20.7241 57.7528 21.5925 57.7528 22.6712H57.7515ZM56.099 22.7284C56.099 22.0391 55.9386 21.4718 55.6178 21.0239C55.2676 20.5586 54.7954 20.3259 54.2052 20.3259C53.8049 20.3259 53.4418 20.4553 53.1159 20.7116C52.79 20.9704 52.577 21.3063 52.477 21.7244C52.4321 21.8811 52.4077 22.0416 52.4013 22.2034V23.3841C52.4013 23.8979 52.5642 24.3321 52.8901 24.6879C53.216 25.0425 53.6394 25.2192 54.159 25.2192C54.7697 25.2192 55.2457 24.9902 55.5857 24.5349C55.927 24.0783 56.0977 23.4761 56.0977 22.7284H56.099ZM66.1502 22.6712C66.1502 23.8755 65.8128 24.826 65.1379 25.5252C64.5336 26.1473 63.783 26.4571 62.8862 26.4571C61.9188 26.4571 61.2234 26.1224 60.8013 25.4531V29.1668H59.1795V21.544C59.1795 20.7875 59.159 20.0124 59.1192 19.2174H60.5459L60.637 20.3396H60.6678C61.208 19.4949 62.0291 19.0719 63.1312 19.0719C63.9921 19.0719 64.7106 19.4016 65.288 20.0622C65.8615 20.7241 66.1515 21.5925 66.1515 22.6712H66.1502ZM64.4964 22.7284C64.4964 22.0391 64.336 21.4718 64.0152 21.0239C63.665 20.5586 63.1954 20.3259 62.6039 20.3259C62.2036 20.3259 61.8405 20.4553 61.5133 20.7116C61.1874 20.9704 60.9757 21.3063 60.8757 21.7244C60.8256 21.9197 60.8 22.0777 60.8 22.2034V23.3841C60.8 23.8979 60.9642 24.3321 61.2875 24.6879C61.6134 25.0413 62.0368 25.2192 62.5577 25.2192C63.1697 25.2192 63.6444 24.9902 63.9844 24.5349C64.3257 24.0783 64.4964 23.4761 64.4964 22.7284ZM75.5394 23.5433C75.5394 24.3794 75.2379 25.0587 74.6387 25.5825C73.9792 26.1548 73.0593 26.4422 71.8802 26.4422C70.7909 26.4422 69.9172 26.2381 69.2577 25.83L69.6323 24.5187C70.3444 24.9268 71.1258 25.1308 71.9764 25.1308C72.5884 25.1308 73.0631 24.9965 73.4031 24.7302C73.7431 24.4627 73.9151 24.1057 73.9151 23.6603C73.9151 23.2609 73.7727 22.9275 73.493 22.655C73.212 22.3838 72.7475 22.13 72.0957 21.8985C70.3226 21.2578 69.436 20.3197 69.436 19.0868C69.436 18.2818 69.7491 17.6212 70.3752 17.1061C71.0013 16.591 71.8302 16.3335 72.8617 16.3335C73.7829 16.3335 74.5515 16.489 75.1609 16.8L74.7542 18.0815C74.1807 17.7804 73.5327 17.6299 72.8091 17.6299C72.2369 17.6299 71.7878 17.7667 71.4671 18.038C71.1963 18.2806 71.0603 18.5767 71.0603 18.9275C71.0603 19.3145 71.2169 19.6367 71.5274 19.8893C71.7968 20.1219 72.2882 20.3745 72.999 20.6457C73.8715 20.9866 74.5117 21.3835 74.9223 21.8388C75.3354 22.2942 75.5407 22.864 75.5407 23.5408L75.5394 23.5433ZM80.9165 20.3981H79.128V23.8344C79.128 24.7091 79.4436 25.1445 80.0749 25.1445C80.3648 25.1445 80.6048 25.1209 80.7959 25.0711L80.8409 26.2655C80.5214 26.3812 80.1005 26.4397 79.5796 26.4397C78.9394 26.4397 78.4377 26.2506 78.0772 25.8711C77.7167 25.4916 77.5358 24.8571 77.5358 23.9626V20.3944H76.4709V19.2137H77.5358V17.9173L79.1293 17.4507V19.2124H80.9178V20.3956L80.9165 20.3981ZM88.9688 22.6985C88.9688 23.7872 88.6481 24.6804 88.0066 25.3784C87.3368 26.0975 86.4438 26.4558 85.3327 26.4558C84.2216 26.4558 83.4069 26.1112 82.7705 25.4232C82.1341 24.7339 81.816 23.8643 81.816 22.8167C81.816 21.7692 82.1444 20.8211 82.8 20.1232C83.4569 19.4239 84.341 19.0743 85.4521 19.0743C86.5632 19.0743 87.3843 19.419 88.0348 20.1082C88.6571 20.7763 88.9675 21.6398 88.9675 22.6985H88.9688ZM87.2868 22.7346C87.2868 22.0864 87.1418 21.5303 86.8518 21.065C86.5118 20.5026 86.0243 20.2214 85.3943 20.2214C84.7644 20.2214 84.246 20.5026 83.9073 21.065C83.616 21.5303 83.4723 22.0964 83.4723 22.7645C83.4723 23.4326 83.6173 23.9713 83.9073 24.4354C84.2576 24.9977 84.7477 25.2789 85.3815 25.2789C86.0153 25.2789 86.4875 24.9915 86.839 24.4217C87.1367 23.9452 87.2868 23.3853 87.2868 22.7359V22.7346ZM94.2434 20.6009C94.074 20.571 93.9034 20.5574 93.7314 20.5574C93.1605 20.5574 92.7191 20.7651 92.4086 21.1844C92.1392 21.5527 92.0032 22.0192 92.0032 22.5828V26.2966H90.3814V21.4469C90.3827 20.7042 90.3673 19.9614 90.334 19.2187H91.7466L91.8056 20.5735H91.8505C92.0224 20.1082 92.2919 19.7325 92.6614 19.4513C93.0001 19.2062 93.4107 19.0731 93.8341 19.0719C93.9842 19.0719 94.1189 19.0818 94.2395 19.1005V20.6009H94.2408H94.2434ZM101.499 22.4223C101.503 22.6612 101.483 22.9001 101.44 23.1352H96.5733C96.5913 23.8344 96.8274 24.3707 97.279 24.7389C97.6896 25.0674 98.2195 25.2328 98.8712 25.2328C99.5923 25.2328 100.249 25.1221 100.841 24.8982L101.095 25.9893C100.403 26.2817 99.5884 26.4272 98.6467 26.4272C97.5151 26.4272 96.6259 26.1037 95.9793 25.4593C95.3339 24.8136 95.0106 23.9464 95.0106 22.8603C95.0106 21.7741 95.3108 20.9045 95.9126 20.1953C96.5425 19.4389 97.3945 19.0607 98.4658 19.0607C99.5371 19.0607 100.315 19.4389 100.856 20.1953C101.285 20.795 101.5 21.539 101.5 22.4211L101.499 22.4223ZM99.9515 22.0143C99.9631 21.5477 99.8566 21.1458 99.6359 20.8049C99.3549 20.367 98.9226 20.148 98.3439 20.148C97.814 20.148 97.3816 20.3608 97.0532 20.7888C96.7825 21.1284 96.6221 21.5377 96.5733 22.0118H99.9515V22.013V22.0143Z" fill="white"/>
<path d="M43.1527 12.8006C42.7062 12.8006 42.3205 12.7815 41.9996 12.7488V8.45266C42.4487 8.39073 42.9028 8.36032 43.357 8.36145C45.1965 8.36145 46.0439 9.16437 46.0439 10.4741C46.0439 11.9842 45.043 12.8006 43.1527 12.8006ZM43.4217 8.91212C43.173 8.91212 42.9624 8.92564 42.7861 8.95717V12.2229C42.8813 12.2364 43.0627 12.2421 43.3189 12.2421C44.5241 12.2421 45.2104 11.6328 45.2104 10.4932C45.2104 9.47631 44.5901 8.91212 43.4217 8.91212ZM48.6839 12.8333C47.6474 12.8333 46.9751 12.1464 46.9751 11.2139C46.9751 10.2815 47.6614 9.54838 48.7422 9.54838C49.7635 9.54838 50.4511 10.2027 50.4511 11.1621C50.4511 12.1216 49.7432 12.8333 48.6839 12.8333ZM48.7143 10.0596C48.1447 10.0596 47.7794 10.5326 47.7794 11.1937C47.7794 11.8547 48.1523 12.3153 48.7067 12.3153C49.2611 12.3153 49.6341 11.8096 49.6341 11.1813C49.6341 10.5529 49.2687 10.0608 48.7143 10.0608V10.0596ZM56.364 9.61257L55.254 12.7612H54.5309L54.0717 11.3941C53.9575 11.0596 53.8623 10.7207 53.7862 10.3772H53.771C53.7126 10.7207 53.6035 11.0641 53.4868 11.3941L52.9984 12.7612H52.2677L51.2236 9.61257H52.0343L52.4364 11.1092C52.5316 11.4662 52.6115 11.8018 52.6775 12.1205H52.6927C52.751 11.8558 52.8449 11.5247 52.9845 11.116L53.4881 9.61257H54.13L54.6121 11.0833C54.7288 11.4403 54.8239 11.7894 54.8975 12.1205H54.9191C54.9698 11.7961 55.051 11.4527 55.1601 11.0833L55.5915 9.61257H56.3653H56.364ZM60.449 12.7612H59.6599V10.9527C59.6599 10.3964 59.4189 10.1171 58.9444 10.1171C58.4699 10.1171 58.1553 10.4741 58.1553 10.8885V12.7612H57.3662V10.5123C57.3662 10.2342 57.3586 9.93577 57.3371 9.61145H58.031L58.0678 10.0979H58.0893C58.3012 9.76122 58.7313 9.54726 59.2146 9.54726C59.9593 9.54726 60.449 10.0529 60.449 10.875V12.7601V12.7612ZM62.6234 12.7612H61.8343V8.16775H62.6234V12.7612ZM65.498 12.8322C64.4616 12.8322 63.7892 12.1452 63.7892 11.2128C63.7892 10.2804 64.4755 9.54726 65.5564 9.54726C66.5789 9.54726 67.2652 10.2015 67.2652 11.161C67.2652 12.1452 66.5573 12.8322 65.498 12.8322ZM65.5272 10.0585C64.9576 10.0585 64.5922 10.5315 64.5922 11.1925C64.5922 11.8536 64.9652 12.3141 65.5183 12.3141C66.0714 12.3141 66.4457 11.8085 66.4457 11.1801C66.4457 10.5394 66.0829 10.0596 65.5272 10.0596V10.0585ZM70.3733 12.7612L70.3162 12.3986H70.2946C70.0536 12.6903 69.7022 12.8322 69.2569 12.8322C68.6213 12.8322 68.1697 12.4369 68.1697 11.9054C68.1697 11.1283 68.9284 10.7263 70.2439 10.7263V10.6678C70.2439 10.2533 69.9965 10.045 69.5068 10.045C69.1567 10.045 68.8497 10.1227 68.5795 10.2792L68.4196 9.81865C68.7482 9.63735 69.1567 9.54613 69.6375 9.54613C70.5649 9.54613 71.033 9.97969 71.033 10.8491V12.009C71.033 12.3265 71.0482 12.5732 71.0837 12.7612H70.3733ZM70.2655 11.1925C69.3901 11.1925 68.9499 11.3806 68.9499 11.8277C68.9499 12.1576 69.177 12.3198 69.4903 12.3198C69.8912 12.3198 70.2642 12.0484 70.2642 11.679V11.1925H70.2655ZM74.8629 12.7612L74.8261 12.2556H74.8046C74.5775 12.6373 74.1969 12.8322 73.6653 12.8322C72.8103 12.8322 72.176 12.1644 72.176 11.2252C72.176 10.286 72.8331 9.54613 73.73 9.54613C74.2045 9.54613 74.5407 9.68802 74.731 9.97406H74.7462V8.16663H75.5353V11.9121C75.5353 12.2162 75.5442 12.5022 75.5645 12.7612H74.8629ZM74.7462 10.9087C74.7462 10.4684 74.4176 10.0923 73.9153 10.0923C73.3304 10.0923 72.9727 10.5529 72.9727 11.2004C72.9727 11.8479 73.3431 12.2702 73.8988 12.2702C74.3948 12.2702 74.7449 11.8873 74.7449 11.4346V10.9099L74.7462 10.9087ZM80.5399 12.8333C79.5035 12.8333 78.8324 12.1464 78.8324 11.2139C78.8324 10.2815 79.5187 9.54838 80.5996 9.54838C81.6221 9.54838 82.3084 10.2027 82.3084 11.1621C82.3084 12.1464 81.6018 12.8333 80.5412 12.8333H80.5399ZM80.5691 10.0596C80.0008 10.0596 79.6354 10.5326 79.6354 11.1937C79.6354 11.8547 80.0084 12.3153 80.5615 12.3153C81.1146 12.3153 81.4889 11.8096 81.4889 11.1813C81.4901 10.5405 81.126 10.0608 80.5691 10.0608V10.0596ZM86.5481 12.7623H85.759V10.9538C85.759 10.3975 85.518 10.1182 85.0435 10.1182C84.569 10.1182 84.2557 10.4752 84.2557 10.8896V12.7623H83.4666V10.5135C83.4666 10.2353 83.459 9.9369 83.4374 9.61257H84.1314L84.1682 10.0991H84.1897C84.4016 9.76235 84.8316 9.54838 85.3137 9.54838C86.0584 9.54838 86.5481 10.054 86.5481 10.8761V12.7623ZM91.8534 10.1385H90.9857V11.6678C90.9857 12.0574 91.1379 12.2511 91.4449 12.2511C91.5845 12.2511 91.7012 12.2376 91.795 12.2184L91.8166 12.75C91.6644 12.8018 91.4589 12.8277 91.2051 12.8277C90.5835 12.8277 90.2118 12.5236 90.2118 11.7263V10.1385H89.6942V9.6137H90.2118V9.03712L90.9857 8.82991V9.6137H91.8534V10.1396V10.1385ZM96.0271 12.7623H95.2393V10.9673C95.2393 10.4042 94.9996 10.1182 94.5238 10.1182C94.1153 10.1182 93.7347 10.3648 93.7347 10.8637V12.7623H92.9469V8.16888H93.7347V10.0608H93.75C93.9986 9.7173 94.3576 9.54838 94.8169 9.54838C95.5679 9.54838 96.0271 10.0664 96.0271 10.8896V12.7623ZM100.304 11.3558H97.9377C97.9529 11.9515 98.3969 12.2882 99.0553 12.2882C99.4054 12.2882 99.7277 12.2364 100.012 12.1396L100.135 12.6261C99.7987 12.7556 99.4042 12.8209 98.9449 12.8209C97.8349 12.8209 97.1778 12.1982 97.1778 11.2342C97.1778 10.2702 97.8501 9.54275 98.8561 9.54275C99.7632 9.54275 100.332 10.1385 100.332 11.0394C100.337 11.1452 100.328 11.2522 100.305 11.3569L100.304 11.3558ZM99.5805 10.8569C99.5805 10.3705 99.304 10.0281 98.8003 10.0281C98.3474 10.0281 97.9897 10.3783 97.9377 10.8569H99.5805Z" fill="white"/>
</svg>
