<svg width="112" height="29" viewBox="0 0 112 29" fill="none" xmlns="http://www.w3.org/2000/svg">
<path opacity="0.8" d="M50.8229 17.3441C50.8229 18.1402 50.627 18.8261 50.235 19.4017C49.8492 19.9773 49.292 20.4182 48.5633 20.7244C47.8407 21.0306 46.9772 21.1837 45.9729 21.1837C45.483 21.1837 45.0146 21.1562 44.5675 21.101C44.1205 21.0459 43.698 20.9663 43.2999 20.8622C42.908 20.752 42.5498 20.6203 42.2252 20.4672V18.3913C42.7702 18.6301 43.3795 18.8475 44.0531 19.0435C44.7267 19.2333 45.4126 19.3282 46.1107 19.3282C46.6802 19.3282 47.1517 19.2547 47.5253 19.1078C47.905 18.9547 48.1866 18.7403 48.3704 18.4648C48.5541 18.1831 48.6459 17.8555 48.6459 17.4819C48.6459 17.0839 48.5388 16.7471 48.3244 16.4715C48.1101 16.1959 47.7855 15.9449 47.3508 15.7183C46.9221 15.4856 46.3832 15.2376 45.7341 14.9743C45.2932 14.7967 44.8707 14.5946 44.4665 14.368C44.0684 14.1414 43.7133 13.875 43.401 13.5689C43.0886 13.2627 42.8406 12.9014 42.6569 12.485C42.4793 12.0624 42.3905 11.5664 42.3905 10.9969C42.3905 10.2375 42.5712 9.58843 42.9325 9.04955C43.2999 8.51066 43.8143 8.09731 44.4757 7.80949C45.1432 7.52168 45.9209 7.37777 46.8088 7.37777C47.513 7.37777 48.1744 7.45125 48.7929 7.59822C49.4175 7.74519 50.0299 7.9534 50.63 8.22284L49.9319 9.99566C49.3808 9.76908 48.8449 9.58843 48.3244 9.45371C47.81 9.31899 47.2834 9.25163 46.7445 9.25163C46.2791 9.25163 45.8841 9.32205 45.5596 9.4629C45.235 9.60374 44.987 9.80276 44.8155 10.06C44.6502 10.311 44.5675 10.6111 44.5675 10.9601C44.5675 11.3521 44.6624 11.6827 44.8523 11.9522C45.0482 12.2155 45.3483 12.4574 45.7525 12.6779C46.1628 12.8983 46.6894 13.1433 47.3324 13.4127C48.0734 13.7189 48.701 14.0404 49.2154 14.3772C49.736 14.714 50.134 15.1182 50.4096 15.5897C50.6851 16.0551 50.8229 16.6399 50.8229 17.3441ZM55.3514 6.70722V10.2988C55.3514 10.6723 55.3392 11.0367 55.3147 11.3919C55.2963 11.747 55.2749 12.0226 55.2504 12.2186H55.3698C55.5841 11.8634 55.8474 11.5725 56.1597 11.3459C56.4721 11.1132 56.8211 10.9387 57.2069 10.8224C57.5988 10.706 58.0152 10.6478 58.4561 10.6478C59.2339 10.6478 59.8952 10.7795 60.4402 11.0428C60.9852 11.3 61.4017 11.7011 61.6895 12.2461C61.9834 12.7911 62.1304 13.4984 62.1304 14.368V21H59.9718V14.7722C59.9718 13.9822 59.8095 13.3913 59.4849 12.9993C59.1604 12.6013 58.6582 12.4023 57.9785 12.4023C57.3233 12.4023 56.8027 12.5401 56.4169 12.8156C56.0373 13.0851 55.7648 13.4862 55.5994 14.019C55.4341 14.5456 55.3514 15.1886 55.3514 15.9479V21H53.1928V6.70722H55.3514ZM69.139 10.6387C70.425 10.6387 71.3956 10.9234 72.0508 11.4929C72.7122 12.0624 73.0429 12.9504 73.0429 14.1567V21H71.5089L71.0955 19.5579H71.022C70.7342 19.9253 70.4372 20.2284 70.131 20.4672C69.8248 20.7061 69.4697 20.8836 69.0655 21C68.6675 21.1225 68.1806 21.1837 67.605 21.1837C66.9987 21.1837 66.4568 21.0735 65.9791 20.853C65.5015 20.6265 65.1249 20.2835 64.8493 19.8242C64.5737 19.365 64.436 18.7832 64.436 18.079C64.436 17.0318 64.8248 16.2449 65.6025 15.7183C66.3864 15.1916 67.5682 14.9008 69.1482 14.8457L70.9118 14.7814V14.2486C70.9118 13.5444 70.7465 13.0422 70.4158 12.7422C70.0912 12.4421 69.6319 12.2921 69.0379 12.2921C68.5297 12.2921 68.0367 12.3655 67.5591 12.5125C67.0814 12.6595 66.616 12.8401 66.1629 13.0545L65.4647 11.5297C65.9608 11.2663 66.5242 11.052 67.1549 10.8867C67.7918 10.7213 68.4531 10.6387 69.139 10.6387ZM70.9026 16.1408L69.5891 16.1867C68.5113 16.2235 67.755 16.4072 67.3202 16.7379C66.8855 17.0686 66.6681 17.5217 66.6681 18.0974C66.6681 18.5995 66.8181 18.9669 67.1182 19.1996C67.4182 19.4262 67.8132 19.5395 68.3031 19.5395C69.0502 19.5395 69.6687 19.3282 70.1586 18.9057C70.6546 18.477 70.9026 17.8493 70.9026 17.0226V16.1408ZM81.218 10.6387C81.3895 10.6387 81.5763 10.6478 81.7784 10.6662C81.9804 10.6846 82.155 10.7091 82.3019 10.7397L82.0999 12.7605C81.9713 12.7238 81.812 12.6962 81.6222 12.6779C81.4385 12.6595 81.2731 12.6503 81.1262 12.6503C80.7404 12.6503 80.373 12.7146 80.0239 12.8432C79.6749 12.9657 79.3656 13.1555 79.0962 13.4127C78.8267 13.6638 78.6155 13.9791 78.4624 14.3588C78.3093 14.7385 78.2327 15.1794 78.2327 15.6815V21H76.0649V10.8315H77.7551L78.049 12.6227H78.15C78.3521 12.2614 78.6032 11.9308 78.9033 11.6307C79.2033 11.3306 79.5463 11.0918 79.9321 10.9142C80.324 10.7305 80.7526 10.6387 81.218 10.6387ZM83.1654 25.5193C82.8469 25.5193 82.5438 25.4948 82.256 25.4458C81.9682 25.403 81.7263 25.3509 81.5303 25.2897V23.5628C81.7386 23.624 81.9406 23.6699 82.1366 23.7006C82.3326 23.7312 82.5561 23.7465 82.8071 23.7465C83.2052 23.7465 83.5328 23.6363 83.79 23.4158C84.0533 23.1954 84.185 22.7759 84.185 22.1574V10.8315H86.3436V22.3503C86.3436 22.9688 86.2334 23.5169 86.0129 23.9945C85.7986 24.4722 85.4557 24.8457 84.9841 25.1151C84.5187 25.3846 83.9125 25.5193 83.1654 25.5193ZM84.0564 8.1218C84.0564 7.68702 84.1727 7.38083 84.4054 7.20324C84.6443 7.02565 84.9351 6.93686 85.2781 6.93686C85.6087 6.93686 85.8935 7.02565 86.1323 7.20324C86.3773 7.38083 86.4998 7.68702 86.4998 8.1218C86.4998 8.55046 86.3773 8.85665 86.1323 9.04036C85.8935 9.21795 85.6087 9.30674 85.2781 9.30674C84.9351 9.30674 84.6443 9.21795 84.4054 9.04036C84.1727 8.85665 84.0564 8.55046 84.0564 8.1218ZM93.4257 10.6387C94.7117 10.6387 95.6823 10.9234 96.3375 11.4929C96.9989 12.0624 97.3296 12.9504 97.3296 14.1567V21H95.7956L95.3822 19.5579H95.3087C95.0209 19.9253 94.7239 20.2284 94.4177 20.4672C94.1115 20.7061 93.7564 20.8836 93.3522 21C92.9542 21.1225 92.4673 21.1837 91.8917 21.1837C91.2854 21.1837 90.7435 21.0735 90.2658 20.853C89.7882 20.6265 89.4116 20.2835 89.136 19.8242C88.8604 19.365 88.7227 18.7832 88.7227 18.079C88.7227 17.0318 89.1115 16.2449 89.8892 15.7183C90.6731 15.1916 91.855 14.9008 93.4349 14.8457L95.1985 14.7814V14.2486C95.1985 13.5444 95.0332 13.0422 94.7025 12.7422C94.3779 12.4421 93.9186 12.2921 93.3246 12.2921C92.8164 12.2921 92.3234 12.3655 91.8458 12.5125C91.3681 12.6595 90.9027 12.8401 90.4496 13.0545L89.7515 11.5297C90.2475 11.2663 90.8109 11.052 91.4416 10.8867C92.0785 10.7213 92.7398 10.6387 93.4257 10.6387ZM95.1893 16.1408L93.8758 16.1867C92.798 16.2235 92.0417 16.4072 91.6069 16.7379C91.1722 17.0686 90.9548 17.5217 90.9548 18.0974C90.9548 18.5995 91.1048 18.9669 91.4049 19.1996C91.7049 19.4262 92.0999 19.5395 92.5898 19.5395C93.3369 19.5395 93.9554 19.3282 94.4453 18.9057C94.9413 18.477 95.1893 17.8493 95.1893 17.0226V16.1408ZM102.51 6.70722V10.2988C102.51 10.6723 102.498 11.0367 102.473 11.3919C102.455 11.747 102.434 12.0226 102.409 12.2186H102.529C102.743 11.8634 103.006 11.5725 103.319 11.3459C103.631 11.1132 103.98 10.9387 104.366 10.8224C104.758 10.706 105.174 10.6478 105.615 10.6478C106.393 10.6478 107.054 10.7795 107.599 11.0428C108.144 11.3 108.56 11.7011 108.848 12.2461C109.142 12.7911 109.289 13.4984 109.289 14.368V21H107.131V14.7722C107.131 13.9822 106.968 13.3913 106.644 12.9993C106.319 12.6013 105.817 12.4023 105.137 12.4023C104.482 12.4023 103.962 12.5401 103.576 12.8156C103.196 13.0851 102.924 13.4862 102.758 14.019C102.593 14.5456 102.51 15.1886 102.51 15.9479V21H100.352V6.70722H102.51Z" fill="white"/>
<g clip-path="url(#clip0_1965_151)">
<path d="M11.2439 28.9991H10.9537C10.8833 28.9411 10.8067 28.889 10.7432 28.8242C9.99325 28.0663 9.2317 27.318 8.49956 26.5452C7.87036 25.8804 7.24502 25.2089 6.67076 24.5008C5.7165 23.3238 4.77308 22.1363 3.88228 20.9146C2.93034 19.6087 2.11848 18.2157 1.43742 16.7602C0.754041 15.2995 0.168173 13.8001 0.0513095 12.1852C-0.0082833 11.3603 -0.0268577 10.522 0.0590489 9.70158C0.151921 8.81561 0.43905 7.96018 0.78345 7.12484C1.29038 5.89269 2.02561 4.80795 2.95201 3.8386C3.98753 2.75535 5.20106 1.89395 6.61504 1.33334C7.35569 1.03926 8.14201 0.850159 8.91594 0.638719C9.29594 0.533 9.69297 0.483862 10.083 0.410156C10.7409 0.410156 11.3987 0.410156 12.0566 0.410156C12.4373 0.484607 12.815 0.574692 13.1981 0.63053C14.2042 0.777197 15.1492 1.10776 16.0547 1.53436C17.4718 2.20143 18.6629 3.1477 19.6844 4.3054C20.5118 5.24199 21.1116 6.29993 21.5736 7.43381C21.9242 8.29521 22.1123 9.20127 22.2067 10.1178C22.2632 10.6612 22.2222 11.2152 22.2129 11.7639C22.2082 12.0289 22.216 12.3036 22.151 12.5575C21.918 13.4658 21.699 14.3808 21.3964 15.2682C20.7873 17.0536 19.8323 18.6818 18.7875 20.2587C17.7488 21.8266 16.6197 23.3327 15.3512 24.7376C14.4101 25.7799 13.4512 26.8081 12.4838 27.8273C12.0937 28.2383 11.6588 28.6098 11.2439 28.9991ZM6.02066 11.131C5.93011 13.7063 8.32775 16.2063 11.3801 16.0522C13.688 15.9353 16.5307 13.9386 16.1785 10.5816C15.9386 8.29223 13.9511 6.22772 11.0435 6.22772C8.26584 6.22772 5.99357 8.41358 6.02066 11.1303V11.131Z" fill="#E21E26"/>
</g>
<defs>
<clipPath id="clip0_1965_151">
<rect width="22.2359" height="28.589" fill="white" transform="translate(0 0.410156)"/>
</clipPath>
</defs>
</svg>
