<svg width="596" height="42" viewBox="0 0 596 42" fill="none" xmlns="http://www.w3.org/2000/svg">
<rect width="188" height="42" rx="18" fill="white"/>
<rect x="204" width="188" height="42" rx="18" fill="white"/>
<rect x="408" width="188" height="42" rx="18" fill="white"/>
<path d="M40.868 23.14H37.22L36.548 25H35.396L38.42 16.684H39.68L42.692 25H41.54L40.868 23.14ZM40.556 22.252L39.044 18.028L37.532 22.252H40.556ZM45.1019 16.12V25H44.0099V16.12H45.1019ZM56.8703 26.584L55.2023 24.916C54.7943 25.028 54.3783 25.084 53.9543 25.084C53.1783 25.084 52.4703 24.904 51.8303 24.544C51.1903 24.176 50.6823 23.668 50.3063 23.02C49.9383 22.364 49.7543 21.628 49.7543 20.812C49.7543 19.996 49.9383 19.264 50.3063 18.616C50.6823 17.96 51.1903 17.452 51.8303 17.092C52.4703 16.724 53.1783 16.54 53.9543 16.54C54.7383 16.54 55.4503 16.724 56.0903 17.092C56.7303 17.452 57.2343 17.956 57.6023 18.604C57.9703 19.252 58.1543 19.988 58.1543 20.812C58.1543 21.612 57.9783 22.332 57.6263 22.972C57.2743 23.612 56.7903 24.116 56.1743 24.484L58.2863 26.584H56.8703ZM50.8703 20.812C50.8703 21.476 51.0023 22.06 51.2663 22.564C51.5383 23.068 51.9063 23.456 52.3703 23.728C52.8423 24 53.3703 24.136 53.9543 24.136C54.5383 24.136 55.0623 24 55.5263 23.728C55.9983 23.456 56.3663 23.068 56.6303 22.564C56.9023 22.06 57.0383 21.476 57.0383 20.812C57.0383 20.14 56.9023 19.556 56.6303 19.06C56.3663 18.556 56.0023 18.168 55.5383 17.896C55.0743 17.624 54.5463 17.488 53.9543 17.488C53.3623 17.488 52.8343 17.624 52.3703 17.896C51.9063 18.168 51.5383 18.556 51.2663 19.06C51.0023 19.556 50.8703 20.14 50.8703 20.812ZM65.4513 18.424V25H64.3593V24.028C64.1513 24.364 63.8593 24.628 63.4833 24.82C63.1153 25.004 62.7073 25.096 62.2593 25.096C61.7473 25.096 61.2873 24.992 60.8793 24.784C60.4713 24.568 60.1473 24.248 59.9073 23.824C59.6753 23.4 59.5593 22.884 59.5593 22.276V18.424H60.6393V22.132C60.6393 22.78 60.8033 23.28 61.1313 23.632C61.4593 23.976 61.9073 24.148 62.4753 24.148C63.0593 24.148 63.5193 23.968 63.8553 23.608C64.1913 23.248 64.3593 22.724 64.3593 22.036V18.424H65.4513ZM70.1631 25.108C69.5471 25.108 68.9871 24.968 68.4831 24.688C67.9871 24.408 67.5951 24.012 67.3071 23.5C67.0271 22.98 66.8871 22.38 66.8871 21.7C66.8871 21.028 67.0311 20.436 67.3191 19.924C67.6151 19.404 68.0151 19.008 68.5191 18.736C69.0231 18.456 69.5871 18.316 70.2111 18.316C70.8351 18.316 71.3991 18.456 71.9031 18.736C72.4071 19.008 72.8031 19.4 73.0911 19.912C73.3871 20.424 73.5351 21.02 73.5351 21.7C73.5351 22.38 73.3831 22.98 73.0791 23.5C72.7831 24.012 72.3791 24.408 71.8671 24.688C71.3551 24.968 70.7871 25.108 70.1631 25.108ZM70.1631 24.148C70.5551 24.148 70.9231 24.056 71.2671 23.872C71.6111 23.688 71.8871 23.412 72.0951 23.044C72.3111 22.676 72.4191 22.228 72.4191 21.7C72.4191 21.172 72.3151 20.724 72.1071 20.356C71.8991 19.988 71.6271 19.716 71.2911 19.54C70.9551 19.356 70.5911 19.264 70.1991 19.264C69.7991 19.264 69.4311 19.356 69.0951 19.54C68.7671 19.716 68.5031 19.988 68.3031 20.356C68.1031 20.724 68.0031 21.172 68.0031 21.7C68.0031 22.236 68.0991 22.688 68.2911 23.056C68.4911 23.424 68.7551 23.7 69.0831 23.884C69.4111 24.06 69.7711 24.148 70.1631 24.148ZM75.7869 24.1H79.0149V25H74.5389V24.1L77.7309 19.312H74.5629V18.424H78.9909V19.312L75.7869 24.1Z" fill="black"/>
<path d="M239.72 18.508C239.776 17.772 240.06 17.196 240.572 16.78C241.084 16.364 241.748 16.156 242.564 16.156C243.108 16.156 243.576 16.256 243.968 16.456C244.368 16.648 244.668 16.912 244.868 17.248C245.076 17.584 245.18 17.964 245.18 18.388C245.18 18.884 245.036 19.312 244.748 19.672C244.468 20.032 244.1 20.264 243.644 20.368V20.428C244.164 20.556 244.576 20.808 244.88 21.184C245.184 21.56 245.336 22.052 245.336 22.66C245.336 23.116 245.232 23.528 245.024 23.896C244.816 24.256 244.504 24.54 244.088 24.748C243.672 24.956 243.172 25.06 242.588 25.06C241.74 25.06 241.044 24.84 240.5 24.4C239.956 23.952 239.652 23.32 239.588 22.504H240.644C240.7 22.984 240.896 23.376 241.232 23.68C241.568 23.984 242.016 24.136 242.576 24.136C243.136 24.136 243.56 23.992 243.848 23.704C244.144 23.408 244.292 23.028 244.292 22.564C244.292 21.964 244.092 21.532 243.692 21.268C243.292 21.004 242.688 20.872 241.88 20.872H241.604V19.96H241.892C242.628 19.952 243.184 19.832 243.56 19.6C243.936 19.36 244.124 18.992 244.124 18.496C244.124 18.072 243.984 17.732 243.704 17.476C243.432 17.22 243.04 17.092 242.528 17.092C242.032 17.092 241.632 17.22 241.328 17.476C241.024 17.732 240.844 18.076 240.788 18.508H239.72ZM246.81 20.572C246.81 19.196 247.034 18.124 247.482 17.356C247.93 16.58 248.714 16.192 249.834 16.192C250.946 16.192 251.726 16.58 252.174 17.356C252.622 18.124 252.846 19.196 252.846 20.572C252.846 21.972 252.622 23.06 252.174 23.836C251.726 24.612 250.946 25 249.834 25C248.714 25 247.93 24.612 247.482 23.836C247.034 23.06 246.81 21.972 246.81 20.572ZM251.766 20.572C251.766 19.876 251.718 19.288 251.622 18.808C251.534 18.32 251.346 17.928 251.058 17.632C250.778 17.336 250.37 17.188 249.834 17.188C249.29 17.188 248.874 17.336 248.586 17.632C248.306 17.928 248.118 18.32 248.022 18.808C247.934 19.288 247.89 19.876 247.89 20.572C247.89 21.292 247.934 21.896 248.022 22.384C248.118 22.872 248.306 23.264 248.586 23.56C248.874 23.856 249.29 24.004 249.834 24.004C250.37 24.004 250.778 23.856 251.058 23.56C251.346 23.264 251.534 22.872 251.622 22.384C251.718 21.896 251.766 21.292 251.766 20.572ZM258.606 13.696L255.318 27.04H254.238L257.514 13.696H258.606ZM259.765 17.32V16.324H262.021V25H260.917V17.32H259.765ZM263.896 20.572C263.896 19.196 264.12 18.124 264.568 17.356C265.016 16.58 265.8 16.192 266.92 16.192C268.032 16.192 268.812 16.58 269.26 17.356C269.708 18.124 269.932 19.196 269.932 20.572C269.932 21.972 269.708 23.06 269.26 23.836C268.812 24.612 268.032 25 266.92 25C265.8 25 265.016 24.612 264.568 23.836C264.12 23.06 263.896 21.972 263.896 20.572ZM268.852 20.572C268.852 19.876 268.804 19.288 268.708 18.808C268.62 18.32 268.432 17.928 268.144 17.632C267.864 17.336 267.456 17.188 266.92 17.188C266.376 17.188 265.96 17.336 265.672 17.632C265.392 17.928 265.204 18.32 265.108 18.808C265.02 19.288 264.976 19.876 264.976 20.572C264.976 21.292 265.02 21.896 265.108 22.384C265.204 22.872 265.392 23.264 265.672 23.56C265.96 23.856 266.376 24.004 266.92 24.004C267.456 24.004 267.864 23.856 268.144 23.56C268.432 23.264 268.62 22.872 268.708 22.384C268.804 21.896 268.852 21.292 268.852 20.572ZM275.692 13.696L272.404 27.04H271.324L274.6 13.696H275.692ZM277.007 24.124C278.023 23.308 278.819 22.64 279.395 22.12C279.971 21.592 280.455 21.044 280.847 20.476C281.247 19.9 281.447 19.336 281.447 18.784C281.447 18.264 281.319 17.856 281.063 17.56C280.815 17.256 280.411 17.104 279.851 17.104C279.307 17.104 278.883 17.276 278.579 17.62C278.283 17.956 278.123 18.408 278.099 18.976H277.043C277.075 18.08 277.347 17.388 277.859 16.9C278.371 16.412 279.031 16.168 279.839 16.168C280.663 16.168 281.315 16.396 281.795 16.852C282.283 17.308 282.527 17.936 282.527 18.736C282.527 19.4 282.327 20.048 281.927 20.68C281.535 21.304 281.087 21.856 280.583 22.336C280.079 22.808 279.435 23.36 278.651 23.992H282.779V24.904H277.007V24.124ZM284.041 20.572C284.041 19.196 284.265 18.124 284.713 17.356C285.161 16.58 285.945 16.192 287.065 16.192C288.177 16.192 288.957 16.58 289.405 17.356C289.853 18.124 290.077 19.196 290.077 20.572C290.077 21.972 289.853 23.06 289.405 23.836C288.957 24.612 288.177 25 287.065 25C285.945 25 285.161 24.612 284.713 23.836C284.265 23.06 284.041 21.972 284.041 20.572ZM288.997 20.572C288.997 19.876 288.949 19.288 288.853 18.808C288.765 18.32 288.577 17.928 288.289 17.632C288.009 17.336 287.601 17.188 287.065 17.188C286.521 17.188 286.105 17.336 285.817 17.632C285.537 17.928 285.349 18.32 285.253 18.808C285.165 19.288 285.121 19.876 285.121 20.572C285.121 21.292 285.165 21.896 285.253 22.384C285.349 22.872 285.537 23.264 285.817 23.56C286.105 23.856 286.521 24.004 287.065 24.004C287.601 24.004 288.009 23.856 288.289 23.56C288.577 23.264 288.765 22.872 288.853 22.384C288.949 21.896 288.997 21.292 288.997 20.572ZM291.444 24.124C292.46 23.308 293.256 22.64 293.832 22.12C294.408 21.592 294.892 21.044 295.284 20.476C295.684 19.9 295.884 19.336 295.884 18.784C295.884 18.264 295.756 17.856 295.5 17.56C295.252 17.256 294.848 17.104 294.288 17.104C293.744 17.104 293.32 17.276 293.016 17.62C292.72 17.956 292.56 18.408 292.536 18.976H291.48C291.512 18.08 291.784 17.388 292.296 16.9C292.808 16.412 293.468 16.168 294.276 16.168C295.1 16.168 295.752 16.396 296.232 16.852C296.72 17.308 296.964 17.936 296.964 18.736C296.964 19.4 296.764 20.048 296.364 20.68C295.972 21.304 295.524 21.856 295.02 22.336C294.516 22.808 293.872 23.36 293.088 23.992H297.216V24.904H291.444V24.124ZM298.454 18.508C298.51 17.772 298.794 17.196 299.306 16.78C299.818 16.364 300.482 16.156 301.298 16.156C301.842 16.156 302.31 16.256 302.702 16.456C303.102 16.648 303.402 16.912 303.602 17.248C303.81 17.584 303.914 17.964 303.914 18.388C303.914 18.884 303.77 19.312 303.482 19.672C303.202 20.032 302.834 20.264 302.378 20.368V20.428C302.898 20.556 303.31 20.808 303.614 21.184C303.918 21.56 304.07 22.052 304.07 22.66C304.07 23.116 303.966 23.528 303.758 23.896C303.55 24.256 303.238 24.54 302.822 24.748C302.406 24.956 301.906 25.06 301.322 25.06C300.474 25.06 299.778 24.84 299.234 24.4C298.69 23.952 298.386 23.32 298.322 22.504H299.378C299.434 22.984 299.63 23.376 299.966 23.68C300.302 23.984 300.75 24.136 301.31 24.136C301.87 24.136 302.294 23.992 302.582 23.704C302.878 23.408 303.026 23.028 303.026 22.564C303.026 21.964 302.826 21.532 302.426 21.268C302.026 21.004 301.422 20.872 300.614 20.872H300.338V19.96H300.626C301.362 19.952 301.918 19.832 302.294 19.6C302.67 19.36 302.858 18.992 302.858 18.496C302.858 18.072 302.718 17.732 302.438 17.476C302.166 17.22 301.774 17.092 301.262 17.092C300.766 17.092 300.366 17.22 300.062 17.476C299.758 17.732 299.578 18.076 299.522 18.508H298.454Z" fill="black"/>
<path d="M316.744 20.572C316.744 19.196 316.968 18.124 317.416 17.356C317.864 16.58 318.648 16.192 319.768 16.192C320.88 16.192 321.66 16.58 322.108 17.356C322.556 18.124 322.78 19.196 322.78 20.572C322.78 21.972 322.556 23.06 322.108 23.836C321.66 24.612 320.88 25 319.768 25C318.648 25 317.864 24.612 317.416 23.836C316.968 23.06 316.744 21.972 316.744 20.572ZM321.7 20.572C321.7 19.876 321.652 19.288 321.556 18.808C321.468 18.32 321.28 17.928 320.992 17.632C320.712 17.336 320.304 17.188 319.768 17.188C319.224 17.188 318.808 17.336 318.52 17.632C318.24 17.928 318.052 18.32 317.956 18.808C317.868 19.288 317.824 19.876 317.824 20.572C317.824 21.292 317.868 21.896 317.956 22.384C318.052 22.872 318.24 23.264 318.52 23.56C318.808 23.856 319.224 24.004 319.768 24.004C320.304 24.004 320.712 23.856 320.992 23.56C321.28 23.264 321.468 22.872 321.556 22.384C321.652 21.896 321.7 21.292 321.7 20.572ZM325.683 22.672C325.763 23.128 325.947 23.48 326.235 23.728C326.531 23.976 326.927 24.1 327.423 24.1C328.087 24.1 328.575 23.84 328.887 23.32C329.207 22.8 329.359 21.924 329.343 20.692C329.175 21.052 328.895 21.336 328.503 21.544C328.111 21.744 327.675 21.844 327.195 21.844C326.659 21.844 326.179 21.736 325.755 21.52C325.339 21.296 325.011 20.972 324.771 20.548C324.531 20.124 324.411 19.612 324.411 19.012C324.411 18.156 324.659 17.468 325.155 16.948C325.651 16.42 326.355 16.156 327.267 16.156C328.387 16.156 329.171 16.52 329.619 17.248C330.075 17.976 330.303 19.06 330.303 20.5C330.303 21.508 330.211 22.34 330.027 22.996C329.851 23.652 329.547 24.152 329.115 24.496C328.691 24.84 328.107 25.012 327.363 25.012C326.547 25.012 325.911 24.792 325.455 24.352C324.999 23.912 324.739 23.352 324.675 22.672H325.683ZM327.375 20.92C327.911 20.92 328.351 20.756 328.695 20.428C329.039 20.092 329.211 19.64 329.211 19.072C329.211 18.472 329.043 17.988 328.707 17.62C328.371 17.252 327.899 17.068 327.291 17.068C326.731 17.068 326.283 17.244 325.947 17.596C325.619 17.948 325.455 18.412 325.455 18.988C325.455 19.572 325.619 20.04 325.947 20.392C326.275 20.744 326.751 20.92 327.375 20.92ZM332.366 25.072C332.158 25.072 331.982 25 331.838 24.856C331.694 24.712 331.622 24.536 331.622 24.328C331.622 24.12 331.694 23.944 331.838 23.8C331.982 23.656 332.158 23.584 332.366 23.584C332.566 23.584 332.734 23.656 332.87 23.8C333.014 23.944 333.086 24.12 333.086 24.328C333.086 24.536 333.014 24.712 332.87 24.856C332.734 25 332.566 25.072 332.366 25.072ZM332.366 19.936C332.158 19.936 331.982 19.864 331.838 19.72C331.694 19.576 331.622 19.4 331.622 19.192C331.622 18.984 331.694 18.808 331.838 18.664C331.982 18.52 332.158 18.448 332.366 18.448C332.566 18.448 332.734 18.52 332.87 18.664C333.014 18.808 333.086 18.984 333.086 19.192C333.086 19.4 333.014 19.576 332.87 19.72C332.734 19.864 332.566 19.936 332.366 19.936ZM334.392 20.572C334.392 19.196 334.616 18.124 335.064 17.356C335.512 16.58 336.296 16.192 337.416 16.192C338.528 16.192 339.308 16.58 339.756 17.356C340.204 18.124 340.428 19.196 340.428 20.572C340.428 21.972 340.204 23.06 339.756 23.836C339.308 24.612 338.528 25 337.416 25C336.296 25 335.512 24.612 335.064 23.836C334.616 23.06 334.392 21.972 334.392 20.572ZM339.348 20.572C339.348 19.876 339.3 19.288 339.204 18.808C339.116 18.32 338.928 17.928 338.64 17.632C338.36 17.336 337.952 17.188 337.416 17.188C336.872 17.188 336.456 17.336 336.168 17.632C335.888 17.928 335.7 18.32 335.604 18.808C335.516 19.288 335.472 19.876 335.472 20.572C335.472 21.292 335.516 21.896 335.604 22.384C335.7 22.872 335.888 23.264 336.168 23.56C336.456 23.856 336.872 24.004 337.416 24.004C337.952 24.004 338.36 23.856 338.64 23.56C338.928 23.264 339.116 22.872 339.204 22.384C339.3 21.896 339.348 21.292 339.348 20.572ZM341.928 20.572C341.928 19.196 342.152 18.124 342.6 17.356C343.048 16.58 343.832 16.192 344.952 16.192C346.064 16.192 346.844 16.58 347.292 17.356C347.74 18.124 347.964 19.196 347.964 20.572C347.964 21.972 347.74 23.06 347.292 23.836C346.844 24.612 346.064 25 344.952 25C343.832 25 343.048 24.612 342.6 23.836C342.152 23.06 341.928 21.972 341.928 20.572ZM346.884 20.572C346.884 19.876 346.836 19.288 346.74 18.808C346.652 18.32 346.464 17.928 346.176 17.632C345.896 17.336 345.488 17.188 344.952 17.188C344.408 17.188 343.992 17.336 343.704 17.632C343.424 17.928 343.236 18.32 343.14 18.808C343.052 19.288 343.008 19.876 343.008 20.572C343.008 21.292 343.052 21.896 343.14 22.384C343.236 22.872 343.424 23.264 343.704 23.56C343.992 23.856 344.408 24.004 344.952 24.004C345.488 24.004 345.896 23.856 346.176 23.56C346.464 23.264 346.652 22.872 346.74 22.384C346.836 21.896 346.884 21.292 346.884 20.572ZM357.786 23.14H354.138L353.466 25H352.314L355.338 16.684H356.598L359.61 25H358.458L357.786 23.14ZM357.474 22.252L355.962 18.028L354.45 22.252H357.474ZM369.412 16.696V25H368.32V18.808L365.56 25H364.792L362.02 18.796V25H360.928V16.696H362.104L365.176 23.56L368.248 16.696H369.412Z" fill="black"/>
<path d="M520.744 20.572C520.744 19.196 520.968 18.124 521.416 17.356C521.864 16.58 522.648 16.192 523.768 16.192C524.88 16.192 525.66 16.58 526.108 17.356C526.556 18.124 526.78 19.196 526.78 20.572C526.78 21.972 526.556 23.06 526.108 23.836C525.66 24.612 524.88 25 523.768 25C522.648 25 521.864 24.612 521.416 23.836C520.968 23.06 520.744 21.972 520.744 20.572ZM525.7 20.572C525.7 19.876 525.652 19.288 525.556 18.808C525.468 18.32 525.28 17.928 524.992 17.632C524.712 17.336 524.304 17.188 523.768 17.188C523.224 17.188 522.808 17.336 522.52 17.632C522.24 17.928 522.052 18.32 521.956 18.808C521.868 19.288 521.824 19.876 521.824 20.572C521.824 21.292 521.868 21.896 521.956 22.384C522.052 22.872 522.24 23.264 522.52 23.56C522.808 23.856 523.224 24.004 523.768 24.004C524.304 24.004 524.712 23.856 524.992 23.56C525.28 23.264 525.468 22.872 525.556 22.384C525.652 21.896 525.7 21.292 525.7 20.572ZM529.683 22.672C529.763 23.128 529.947 23.48 530.235 23.728C530.531 23.976 530.927 24.1 531.423 24.1C532.087 24.1 532.575 23.84 532.887 23.32C533.207 22.8 533.359 21.924 533.343 20.692C533.175 21.052 532.895 21.336 532.503 21.544C532.111 21.744 531.675 21.844 531.195 21.844C530.659 21.844 530.179 21.736 529.755 21.52C529.339 21.296 529.011 20.972 528.771 20.548C528.531 20.124 528.411 19.612 528.411 19.012C528.411 18.156 528.659 17.468 529.155 16.948C529.651 16.42 530.355 16.156 531.267 16.156C532.387 16.156 533.171 16.52 533.619 17.248C534.075 17.976 534.303 19.06 534.303 20.5C534.303 21.508 534.211 22.34 534.027 22.996C533.851 23.652 533.547 24.152 533.115 24.496C532.691 24.84 532.107 25.012 531.363 25.012C530.547 25.012 529.911 24.792 529.455 24.352C528.999 23.912 528.739 23.352 528.675 22.672H529.683ZM531.375 20.92C531.911 20.92 532.351 20.756 532.695 20.428C533.039 20.092 533.211 19.64 533.211 19.072C533.211 18.472 533.043 17.988 532.707 17.62C532.371 17.252 531.899 17.068 531.291 17.068C530.731 17.068 530.283 17.244 529.947 17.596C529.619 17.948 529.455 18.412 529.455 18.988C529.455 19.572 529.619 20.04 529.947 20.392C530.275 20.744 530.751 20.92 531.375 20.92ZM536.366 25.072C536.158 25.072 535.982 25 535.838 24.856C535.694 24.712 535.622 24.536 535.622 24.328C535.622 24.12 535.694 23.944 535.838 23.8C535.982 23.656 536.158 23.584 536.366 23.584C536.566 23.584 536.734 23.656 536.87 23.8C537.014 23.944 537.086 24.12 537.086 24.328C537.086 24.536 537.014 24.712 536.87 24.856C536.734 25 536.566 25.072 536.366 25.072ZM536.366 19.936C536.158 19.936 535.982 19.864 535.838 19.72C535.694 19.576 535.622 19.4 535.622 19.192C535.622 18.984 535.694 18.808 535.838 18.664C535.982 18.52 536.158 18.448 536.366 18.448C536.566 18.448 536.734 18.52 536.87 18.664C537.014 18.808 537.086 18.984 537.086 19.192C537.086 19.4 537.014 19.576 536.87 19.72C536.734 19.864 536.566 19.936 536.366 19.936ZM538.392 20.572C538.392 19.196 538.616 18.124 539.064 17.356C539.512 16.58 540.296 16.192 541.416 16.192C542.528 16.192 543.308 16.58 543.756 17.356C544.204 18.124 544.428 19.196 544.428 20.572C544.428 21.972 544.204 23.06 543.756 23.836C543.308 24.612 542.528 25 541.416 25C540.296 25 539.512 24.612 539.064 23.836C538.616 23.06 538.392 21.972 538.392 20.572ZM543.348 20.572C543.348 19.876 543.3 19.288 543.204 18.808C543.116 18.32 542.928 17.928 542.64 17.632C542.36 17.336 541.952 17.188 541.416 17.188C540.872 17.188 540.456 17.336 540.168 17.632C539.888 17.928 539.7 18.32 539.604 18.808C539.516 19.288 539.472 19.876 539.472 20.572C539.472 21.292 539.516 21.896 539.604 22.384C539.7 22.872 539.888 23.264 540.168 23.56C540.456 23.856 540.872 24.004 541.416 24.004C541.952 24.004 542.36 23.856 542.64 23.56C542.928 23.264 543.116 22.872 543.204 22.384C543.3 21.896 543.348 21.292 543.348 20.572ZM545.928 20.572C545.928 19.196 546.152 18.124 546.6 17.356C547.048 16.58 547.832 16.192 548.952 16.192C550.064 16.192 550.844 16.58 551.292 17.356C551.74 18.124 551.964 19.196 551.964 20.572C551.964 21.972 551.74 23.06 551.292 23.836C550.844 24.612 550.064 25 548.952 25C547.832 25 547.048 24.612 546.6 23.836C546.152 23.06 545.928 21.972 545.928 20.572ZM550.884 20.572C550.884 19.876 550.836 19.288 550.74 18.808C550.652 18.32 550.464 17.928 550.176 17.632C549.896 17.336 549.488 17.188 548.952 17.188C548.408 17.188 547.992 17.336 547.704 17.632C547.424 17.928 547.236 18.32 547.14 18.808C547.052 19.288 547.008 19.876 547.008 20.572C547.008 21.292 547.052 21.896 547.14 22.384C547.236 22.872 547.424 23.264 547.704 23.56C547.992 23.856 548.408 24.004 548.952 24.004C549.488 24.004 549.896 23.856 550.176 23.56C550.464 23.264 550.652 22.872 550.74 22.384C550.836 21.896 550.884 21.292 550.884 20.572ZM561.786 23.14H558.138L557.466 25H556.314L559.338 16.684H560.598L563.61 25H562.458L561.786 23.14ZM561.474 22.252L559.962 18.028L558.45 22.252H561.474ZM573.412 16.696V25H572.32V18.808L569.56 25H568.792L566.02 18.796V25H564.928V16.696H566.104L569.176 23.56L572.248 16.696H573.412Z" fill="black"/>
<path d="M443.612 24.124C444.628 23.308 445.424 22.64 446 22.12C446.576 21.592 447.06 21.044 447.452 20.476C447.852 19.9 448.052 19.336 448.052 18.784C448.052 18.264 447.924 17.856 447.668 17.56C447.42 17.256 447.016 17.104 446.456 17.104C445.912 17.104 445.488 17.276 445.184 17.62C444.888 17.956 444.728 18.408 444.704 18.976H443.648C443.68 18.08 443.952 17.388 444.464 16.9C444.976 16.412 445.636 16.168 446.444 16.168C447.268 16.168 447.92 16.396 448.4 16.852C448.888 17.308 449.132 17.936 449.132 18.736C449.132 19.4 448.932 20.048 448.532 20.68C448.14 21.304 447.692 21.856 447.188 22.336C446.684 22.808 446.04 23.36 445.256 23.992H449.384V24.904H443.612V24.124ZM452.05 22.672C452.13 23.128 452.314 23.48 452.602 23.728C452.898 23.976 453.294 24.1 453.79 24.1C454.454 24.1 454.942 23.84 455.254 23.32C455.574 22.8 455.726 21.924 455.71 20.692C455.542 21.052 455.262 21.336 454.87 21.544C454.478 21.744 454.042 21.844 453.562 21.844C453.026 21.844 452.546 21.736 452.122 21.52C451.706 21.296 451.378 20.972 451.138 20.548C450.898 20.124 450.778 19.612 450.778 19.012C450.778 18.156 451.026 17.468 451.522 16.948C452.018 16.42 452.722 16.156 453.634 16.156C454.754 16.156 455.538 16.52 455.986 17.248C456.442 17.976 456.67 19.06 456.67 20.5C456.67 21.508 456.578 22.34 456.394 22.996C456.218 23.652 455.914 24.152 455.482 24.496C455.058 24.84 454.474 25.012 453.73 25.012C452.914 25.012 452.278 24.792 451.822 24.352C451.366 23.912 451.106 23.352 451.042 22.672H452.05ZM453.742 20.92C454.278 20.92 454.718 20.756 455.062 20.428C455.406 20.092 455.578 19.64 455.578 19.072C455.578 18.472 455.41 17.988 455.074 17.62C454.738 17.252 454.266 17.068 453.658 17.068C453.098 17.068 452.65 17.244 452.314 17.596C451.986 17.948 451.822 18.412 451.822 18.988C451.822 19.572 451.986 20.04 452.314 20.392C452.642 20.744 453.118 20.92 453.742 20.92ZM462.465 13.696L459.177 27.04H458.097L461.373 13.696H462.465ZM463.624 17.32V16.324H465.88V25H464.776V17.32H463.624ZM467.468 17.32V16.324H469.724V25H468.62V17.32H467.468ZM475.859 13.696L472.571 27.04H471.491L474.767 13.696H475.859ZM477.175 24.124C478.191 23.308 478.987 22.64 479.562 22.12C480.139 21.592 480.623 21.044 481.015 20.476C481.415 19.9 481.615 19.336 481.615 18.784C481.615 18.264 481.487 17.856 481.231 17.56C480.983 17.256 480.579 17.104 480.019 17.104C479.475 17.104 479.051 17.276 478.747 17.62C478.451 17.956 478.291 18.408 478.267 18.976H477.211C477.243 18.08 477.515 17.388 478.027 16.9C478.539 16.412 479.199 16.168 480.007 16.168C480.831 16.168 481.483 16.396 481.963 16.852C482.451 17.308 482.695 17.936 482.695 18.736C482.695 19.4 482.495 20.048 482.095 20.68C481.703 21.304 481.255 21.856 480.751 22.336C480.247 22.808 479.603 23.36 478.819 23.992H482.947V24.904H477.175V24.124ZM484.209 20.572C484.209 19.196 484.433 18.124 484.881 17.356C485.329 16.58 486.113 16.192 487.233 16.192C488.345 16.192 489.125 16.58 489.573 17.356C490.021 18.124 490.245 19.196 490.245 20.572C490.245 21.972 490.021 23.06 489.573 23.836C489.125 24.612 488.345 25 487.233 25C486.113 25 485.329 24.612 484.881 23.836C484.433 23.06 484.209 21.972 484.209 20.572ZM489.165 20.572C489.165 19.876 489.117 19.288 489.021 18.808C488.933 18.32 488.745 17.928 488.457 17.632C488.177 17.336 487.769 17.188 487.233 17.188C486.689 17.188 486.273 17.336 485.985 17.632C485.705 17.928 485.517 18.32 485.421 18.808C485.333 19.288 485.289 19.876 485.289 20.572C485.289 21.292 485.333 21.896 485.421 22.384C485.517 22.872 485.705 23.264 485.985 23.56C486.273 23.856 486.689 24.004 487.233 24.004C487.769 24.004 488.177 23.856 488.457 23.56C488.745 23.264 488.933 22.872 489.021 22.384C489.117 21.896 489.165 21.292 489.165 20.572ZM491.612 24.124C492.628 23.308 493.424 22.64 494 22.12C494.576 21.592 495.06 21.044 495.452 20.476C495.852 19.9 496.052 19.336 496.052 18.784C496.052 18.264 495.924 17.856 495.668 17.56C495.42 17.256 495.016 17.104 494.456 17.104C493.912 17.104 493.488 17.276 493.184 17.62C492.888 17.956 492.728 18.408 492.704 18.976H491.648C491.68 18.08 491.952 17.388 492.464 16.9C492.976 16.412 493.636 16.168 494.444 16.168C495.268 16.168 495.92 16.396 496.4 16.852C496.888 17.308 497.132 17.936 497.132 18.736C497.132 19.4 496.932 20.048 496.532 20.68C496.14 21.304 495.692 21.856 495.188 22.336C494.684 22.808 494.04 23.36 493.256 23.992H497.384V24.904H491.612V24.124ZM498.622 18.508C498.678 17.772 498.962 17.196 499.474 16.78C499.986 16.364 500.65 16.156 501.466 16.156C502.01 16.156 502.478 16.256 502.87 16.456C503.27 16.648 503.57 16.912 503.77 17.248C503.978 17.584 504.082 17.964 504.082 18.388C504.082 18.884 503.938 19.312 503.65 19.672C503.37 20.032 503.002 20.264 502.546 20.368V20.428C503.066 20.556 503.478 20.808 503.782 21.184C504.086 21.56 504.238 22.052 504.238 22.66C504.238 23.116 504.134 23.528 503.926 23.896C503.718 24.256 503.406 24.54 502.99 24.748C502.574 24.956 502.074 25.06 501.49 25.06C500.642 25.06 499.946 24.84 499.402 24.4C498.858 23.952 498.554 23.32 498.49 22.504H499.546C499.602 22.984 499.798 23.376 500.134 23.68C500.47 23.984 500.918 24.136 501.478 24.136C502.038 24.136 502.462 23.992 502.75 23.704C503.046 23.408 503.194 23.028 503.194 22.564C503.194 21.964 502.994 21.532 502.594 21.268C502.194 21.004 501.59 20.872 500.782 20.872H500.506V19.96H500.794C501.53 19.952 502.086 19.832 502.462 19.6C502.838 19.36 503.026 18.992 503.026 18.496C503.026 18.072 502.886 17.732 502.606 17.476C502.334 17.22 501.942 17.092 501.43 17.092C500.934 17.092 500.534 17.22 500.23 17.476C499.926 17.732 499.746 18.076 499.69 18.508H498.622Z" fill="black"/>
<path d="M171.765 19H165.235C165.039 19 164.93 19.2453 165.051 19.4128L168.316 23.9036C168.41 24.0321 168.589 24.0321 168.684 23.9036L171.949 19.4128C172.07 19.2453 171.961 19 171.765 19Z" fill="#E21E26"/>
<g clip-path="url(#clip0_1_787)">
<path d="M20.551 27H20.4336C20.405 26.9756 20.374 26.9537 20.3483 26.9266C20.0448 26.6084 19.7366 26.2944 19.4402 25.97C19.1856 25.6909 18.9325 25.4091 18.7 25.1119C18.3138 24.6178 17.9319 24.1194 17.5714 23.6066C17.1861 23.0584 16.8575 22.4738 16.5818 21.8628C16.3052 21.2497 16.0681 20.6203 16.0208 19.9425C15.9967 19.5963 15.9892 19.2444 16.0239 18.9C16.0615 18.5281 16.1777 18.1691 16.3171 17.8184C16.5223 17.3012 16.8199 16.8459 17.1949 16.4391C17.614 15.9844 18.1052 15.6228 18.6775 15.3875C18.9773 15.2641 19.2955 15.1847 19.6088 15.0959C19.7626 15.0516 19.9233 15.0309 20.0811 15C20.3474 15 20.6137 15 20.8799 15C21.0341 15.0312 21.1869 15.0691 21.342 15.0925C21.7492 15.1541 22.1317 15.2928 22.4982 15.4719C23.0717 15.7519 23.5538 16.1491 23.9673 16.635C24.3022 17.0281 24.545 17.4722 24.732 17.9481C24.8739 18.3097 24.95 18.69 24.9882 19.0747C25.0111 19.3028 24.9945 19.5353 24.9907 19.7656C24.9888 19.8769 24.992 19.9922 24.9657 20.0988C24.8714 20.48 24.7827 20.8641 24.6602 21.2366C24.4137 21.9859 24.0272 22.6694 23.6043 23.3313C23.1839 23.9894 22.7269 24.6216 22.2134 25.2113C21.8325 25.6488 21.4444 26.0803 21.0528 26.5081C20.895 26.6806 20.7189 26.8366 20.551 27ZM18.4369 19.5C18.4002 20.5809 19.3707 21.6303 20.6062 21.5656C21.5403 21.5166 22.6908 20.6784 22.5483 19.2694C22.4512 18.3084 21.6468 17.4419 20.4699 17.4419C19.3456 17.4419 18.4259 18.3594 18.4369 19.4997V19.5Z" fill="#009046"/>
</g>
<g clip-path="url(#clip1_1_787)">
<path d="M219 24.3203V18.4414C219.013 18.3883 219.026 18.3352 219.039 18.282C219.18 17.6945 219.522 17.262 220.051 16.9779C220.339 16.8237 220.655 16.7792 220.976 16.7625C221.085 16.7568 221.194 16.7617 221.304 16.7617C221.304 16.6333 221.302 16.5193 221.305 16.4055C221.307 16.3523 221.312 16.2966 221.329 16.2469C221.376 16.1104 221.485 16.0409 221.617 16C221.663 16 221.708 16 221.754 16C221.767 16.0063 221.779 16.0143 221.793 16.0188C221.976 16.0784 222.085 16.2276 222.068 16.4044C222.058 16.5224 222.066 16.6422 222.066 16.762H225.914C225.914 16.7302 225.914 16.7044 225.914 16.6789C225.914 16.5781 225.912 16.4771 225.914 16.3763C225.919 16.169 226.047 16.0625 226.227 16H226.383C226.619 16.0917 226.713 16.2688 226.697 16.5156C226.691 16.6018 226.696 16.6888 226.696 16.7813C226.818 16.7813 226.932 16.7786 227.045 16.782C227.164 16.7854 227.284 16.7813 227.4 16.8039C227.748 16.8719 228.061 17.0135 228.333 17.2518C228.576 17.4648 228.753 17.7172 228.862 18.0174C228.918 18.1685 228.955 18.326 229 18.4807V24.3206C228.987 24.3409 228.968 24.3596 228.962 24.382C228.928 24.5057 228.907 24.6341 228.862 24.7536C228.654 25.3065 228.262 25.6784 227.712 25.882C227.567 25.9357 227.412 25.9617 227.262 26.0005H227.106C227.069 25.994 227.032 25.9818 226.995 25.9818C224.966 25.9807 222.936 25.9807 220.907 25.9818C220.877 25.9818 220.847 25.994 220.817 26.0005H220.699C220.69 25.994 220.681 25.9826 220.671 25.9818C220.467 25.9659 220.276 25.9031 220.096 25.8138C219.851 25.6919 219.633 25.5339 219.456 25.3172C219.319 25.1487 219.202 24.9706 219.128 24.7685C219.075 24.6232 219.042 24.4703 219 24.3211L219 24.3203ZM221.285 17.5659C221.142 17.5648 220.999 17.5609 220.856 17.5633C220.593 17.5672 220.362 17.6628 220.167 17.8336C219.788 18.1664 219.74 18.6044 219.792 19.0669H228.227C228.217 18.8703 228.233 18.6753 228.194 18.4917C228.105 18.0688 227.854 17.7719 227.441 17.6203C227.203 17.5333 226.958 17.569 226.715 17.5659C226.709 17.5714 226.704 17.5766 226.699 17.582C226.698 17.8063 226.694 18.0307 226.696 18.2549C226.699 18.5057 226.538 18.7104 226.255 18.7016C226.118 18.6974 225.909 18.4917 225.914 18.3583C225.921 18.118 225.915 17.8771 225.914 17.6365C225.914 17.6089 225.91 17.5813 225.909 17.5555H222.085C222.085 17.8018 222.087 18.0422 222.084 18.2826C222.083 18.4378 222.023 18.569 221.885 18.6482C221.761 18.719 221.628 18.725 221.502 18.6555C221.378 18.5872 221.305 18.4813 221.304 18.3333C221.304 18.0831 221.302 17.8326 221.301 17.5823C221.296 17.5768 221.291 17.5714 221.285 17.5661V17.5659ZM219.784 19.8563C219.783 19.8826 219.781 19.8987 219.781 19.9148C219.781 21.3109 219.781 22.7068 219.782 24.1029C219.782 24.1727 219.788 24.2438 219.803 24.3117C219.916 24.8302 220.385 25.2188 220.915 25.2182C222.958 25.2161 225.002 25.2193 227.046 25.2146C227.182 25.2143 227.323 25.1836 227.452 25.1388C227.929 24.9734 228.215 24.5411 228.217 24.0484C228.222 22.6818 228.219 21.3148 228.219 19.9482C228.219 19.9172 228.216 19.8865 228.214 19.856H219.784V19.8563Z" fill="#009046"/>
<path d="M220.816 26C220.847 25.9935 220.877 25.9813 220.907 25.9813C222.936 25.9805 224.965 25.9805 226.995 25.9813C227.032 25.9813 227.068 25.9935 227.105 26H220.816Z" fill="#222222"/>
<path d="M221.301 17.5821C221.296 17.5766 221.291 17.5711 221.285 17.5659C221.29 17.5714 221.296 17.5769 221.301 17.5821Z" fill="#F2F2F2"/>
<path d="M221.677 24.0844C221.546 24.0844 221.416 24.0852 221.286 24.0844C221.09 24.0828 220.942 23.9305 220.916 23.7547C220.885 23.5443 221.006 23.3695 221.202 23.3248C221.248 23.3143 221.296 23.3044 221.343 23.3052C221.614 23.3096 221.886 23.3115 222.157 23.3268C222.297 23.3346 222.424 23.4633 222.456 23.5974C222.49 23.7378 222.425 23.9248 222.314 24.0021C222.234 24.0573 222.149 24.0922 222.048 24.087C221.924 24.0805 221.801 24.0854 221.677 24.0854C221.677 24.0852 221.677 24.0849 221.677 24.0846L221.677 24.0844Z" fill="#009046"/>
<path d="M221.676 21.7807C221.549 21.7807 221.422 21.7771 221.296 21.7815C221.095 21.7885 220.92 21.5951 220.912 21.4107C220.903 21.1964 221.072 21.0052 221.285 21.0016C221.546 20.9974 221.806 20.9969 222.066 21.001C222.261 21.0042 222.44 21.1516 222.458 21.3133C222.483 21.5396 222.381 21.701 222.169 21.7659C222.142 21.774 222.114 21.78 222.086 21.7802C221.949 21.7818 221.813 21.781 221.676 21.7807Z" fill="#009046"/>
<path d="M223.987 21.7805C223.857 21.7805 223.727 21.7782 223.597 21.781C223.396 21.7857 223.228 21.5972 223.217 21.4162C223.205 21.2201 223.349 21.0073 223.584 21.0019C223.847 20.9956 224.111 20.9881 224.374 21.0034C224.602 21.017 224.724 21.123 224.76 21.3261C224.796 21.5362 224.678 21.7063 224.471 21.7685C224.444 21.7766 224.415 21.78 224.387 21.7802C224.254 21.7815 224.121 21.7808 223.987 21.7808L223.987 21.7805Z" fill="#009046"/>
<path d="M223.988 24.0849C223.854 24.0849 223.721 24.0865 223.587 24.0847C223.39 24.0815 223.243 23.925 223.221 23.7503C223.194 23.5414 223.316 23.3649 223.502 23.3253C223.558 23.3136 223.615 23.3044 223.672 23.3052C223.937 23.3094 224.203 23.3042 224.466 23.3287C224.666 23.3474 224.785 23.5297 224.762 23.7474C224.743 23.9229 224.585 24.0839 224.388 24.0849C224.378 24.0849 224.368 24.0852 224.358 24.0852C224.235 24.0852 224.111 24.0852 223.988 24.0852V24.0847V24.0849Z" fill="#009046"/>
<path d="M226.288 21.7802C226.155 21.7802 226.022 21.781 225.889 21.7802C225.716 21.7789 225.55 21.627 225.524 21.4403C225.505 21.2994 225.592 21.0797 225.761 21.0393C225.828 21.0234 225.896 21.0031 225.963 21.0018C226.194 20.9971 226.425 20.9927 226.655 21.0023C226.866 21.0112 226.986 21.081 227.05 21.2679C227.135 21.5172 226.95 21.7784 226.688 21.781C226.555 21.7823 226.422 21.781 226.288 21.781C226.288 21.7807 226.288 21.7804 226.288 21.7802Z" fill="#009046"/>
<path d="M226.295 24.0841C226.159 24.0841 226.022 24.0854 225.886 24.0838C225.69 24.0815 225.549 23.9125 225.526 23.733C225.504 23.5604 225.614 23.369 225.796 23.3255C225.848 23.313 225.903 23.3054 225.956 23.3049C226.187 23.3028 226.417 23.301 226.648 23.3049C226.929 23.3093 227.106 23.4864 227.064 23.7744C227.04 23.9346 226.898 24.0721 226.714 24.083C226.574 24.0914 226.434 24.0846 226.295 24.0846C226.295 24.0846 226.295 24.0846 226.295 24.0843L226.295 24.0841Z" fill="#009046"/>
</g>
<g clip-path="url(#clip2_1_787)">
<path d="M423 24.3203V18.4414C423.013 18.3883 423.026 18.3352 423.039 18.282C423.18 17.6945 423.522 17.262 424.051 16.9779C424.339 16.8237 424.655 16.7792 424.976 16.7625C425.085 16.7568 425.194 16.7617 425.304 16.7617C425.304 16.6333 425.302 16.5193 425.305 16.4055C425.307 16.3523 425.312 16.2966 425.329 16.2469C425.376 16.1104 425.485 16.0409 425.617 16C425.663 16 425.708 16 425.754 16C425.767 16.0063 425.779 16.0143 425.793 16.0188C425.976 16.0784 426.085 16.2276 426.068 16.4044C426.058 16.5224 426.066 16.6422 426.066 16.762H429.914C429.914 16.7302 429.914 16.7044 429.914 16.6789C429.914 16.5781 429.912 16.4771 429.914 16.3763C429.919 16.169 430.047 16.0625 430.227 16H430.383C430.619 16.0917 430.713 16.2688 430.697 16.5156C430.691 16.6018 430.696 16.6888 430.696 16.7813C430.818 16.7813 430.932 16.7786 431.045 16.782C431.164 16.7854 431.284 16.7813 431.4 16.8039C431.748 16.8719 432.061 17.0135 432.333 17.2518C432.576 17.4648 432.753 17.7172 432.862 18.0174C432.918 18.1685 432.955 18.326 433 18.4807V24.3206C432.987 24.3409 432.968 24.3596 432.962 24.382C432.928 24.5057 432.907 24.6341 432.862 24.7536C432.654 25.3065 432.262 25.6784 431.712 25.882C431.567 25.9357 431.412 25.9617 431.262 26.0005H431.106C431.069 25.994 431.032 25.9818 430.995 25.9818C428.966 25.9807 426.936 25.9807 424.907 25.9818C424.877 25.9818 424.847 25.994 424.817 26.0005H424.699C424.69 25.994 424.681 25.9826 424.671 25.9818C424.467 25.9659 424.276 25.9031 424.096 25.8138C423.851 25.6919 423.633 25.5339 423.456 25.3172C423.319 25.1487 423.202 24.9706 423.128 24.7685C423.075 24.6232 423.042 24.4703 423 24.3211L423 24.3203ZM425.285 17.5659C425.142 17.5648 424.999 17.5609 424.856 17.5633C424.593 17.5672 424.362 17.6628 424.167 17.8336C423.788 18.1664 423.74 18.6044 423.792 19.0669H432.227C432.217 18.8703 432.233 18.6753 432.194 18.4917C432.105 18.0688 431.854 17.7719 431.441 17.6203C431.203 17.5333 430.958 17.569 430.715 17.5659C430.709 17.5714 430.704 17.5766 430.699 17.582C430.698 17.8063 430.694 18.0307 430.696 18.2549C430.699 18.5057 430.538 18.7104 430.255 18.7016C430.118 18.6974 429.909 18.4917 429.914 18.3583C429.921 18.118 429.915 17.8771 429.914 17.6365C429.914 17.6089 429.91 17.5813 429.909 17.5555H426.085C426.085 17.8018 426.087 18.0422 426.084 18.2826C426.083 18.4378 426.023 18.569 425.885 18.6482C425.761 18.719 425.628 18.725 425.502 18.6555C425.378 18.5872 425.305 18.4813 425.304 18.3333C425.304 18.0831 425.302 17.8326 425.301 17.5823C425.296 17.5768 425.291 17.5714 425.285 17.5661V17.5659ZM423.784 19.8563C423.783 19.8826 423.781 19.8987 423.781 19.9148C423.781 21.3109 423.781 22.7068 423.782 24.1029C423.782 24.1727 423.788 24.2438 423.803 24.3117C423.916 24.8302 424.385 25.2188 424.915 25.2182C426.958 25.2161 429.002 25.2193 431.046 25.2146C431.182 25.2143 431.323 25.1836 431.452 25.1388C431.929 24.9734 432.215 24.5411 432.217 24.0484C432.222 22.6818 432.219 21.3148 432.219 19.9482C432.219 19.9172 432.216 19.8865 432.214 19.856H423.784V19.8563Z" fill="#009046"/>
<path d="M424.816 26C424.847 25.9935 424.877 25.9813 424.907 25.9813C426.936 25.9805 428.965 25.9805 430.995 25.9813C431.032 25.9813 431.068 25.9935 431.105 26H424.816Z" fill="#222222"/>
<path d="M425.301 17.5821C425.296 17.5766 425.291 17.5711 425.285 17.5659C425.29 17.5714 425.296 17.5769 425.301 17.5821Z" fill="#F2F2F2"/>
<path d="M425.677 24.0844C425.546 24.0844 425.416 24.0852 425.286 24.0844C425.09 24.0828 424.942 23.9305 424.916 23.7547C424.885 23.5443 425.006 23.3695 425.202 23.3248C425.248 23.3143 425.296 23.3044 425.343 23.3052C425.614 23.3096 425.886 23.3115 426.157 23.3268C426.297 23.3346 426.424 23.4633 426.456 23.5974C426.49 23.7378 426.425 23.9248 426.314 24.0021C426.234 24.0573 426.149 24.0922 426.048 24.087C425.924 24.0805 425.801 24.0854 425.677 24.0854C425.677 24.0852 425.677 24.0849 425.677 24.0846L425.677 24.0844Z" fill="#009046"/>
<path d="M425.676 21.7807C425.549 21.7807 425.422 21.7771 425.296 21.7815C425.095 21.7885 424.92 21.5951 424.912 21.4107C424.903 21.1964 425.072 21.0052 425.285 21.0016C425.546 20.9974 425.806 20.9969 426.066 21.001C426.261 21.0042 426.44 21.1516 426.458 21.3133C426.483 21.5396 426.381 21.701 426.169 21.7659C426.142 21.774 426.114 21.78 426.086 21.7802C425.949 21.7818 425.813 21.781 425.676 21.7807Z" fill="#009046"/>
<path d="M427.987 21.7805C427.857 21.7805 427.727 21.7782 427.597 21.781C427.396 21.7857 427.228 21.5972 427.217 21.4162C427.205 21.2201 427.349 21.0073 427.584 21.0019C427.847 20.9956 428.111 20.9881 428.374 21.0034C428.602 21.017 428.724 21.123 428.76 21.3261C428.796 21.5362 428.678 21.7063 428.471 21.7685C428.444 21.7766 428.415 21.78 428.387 21.7802C428.254 21.7815 428.121 21.7808 427.987 21.7808L427.987 21.7805Z" fill="#009046"/>
<path d="M427.987 24.0849C427.854 24.0849 427.721 24.0865 427.587 24.0847C427.39 24.0815 427.243 23.925 427.221 23.7503C427.194 23.5414 427.316 23.3649 427.502 23.3253C427.558 23.3136 427.615 23.3044 427.672 23.3052C427.937 23.3094 428.203 23.3042 428.466 23.3287C428.666 23.3474 428.785 23.5297 428.762 23.7474C428.743 23.9229 428.585 24.0839 428.387 24.0849C428.378 24.0849 428.368 24.0852 428.358 24.0852C428.235 24.0852 428.111 24.0852 427.987 24.0852V24.0847V24.0849Z" fill="#009046"/>
<path d="M430.288 21.7802C430.155 21.7802 430.022 21.781 429.889 21.7802C429.716 21.7789 429.55 21.627 429.524 21.4403C429.505 21.2994 429.592 21.0797 429.761 21.0393C429.828 21.0234 429.896 21.0031 429.963 21.0018C430.194 20.9971 430.425 20.9927 430.655 21.0023C430.866 21.0112 430.986 21.081 431.05 21.2679C431.135 21.5172 430.95 21.7784 430.688 21.781C430.555 21.7823 430.422 21.781 430.288 21.781C430.288 21.7807 430.288 21.7804 430.288 21.7802Z" fill="#009046"/>
<path d="M430.295 24.0841C430.159 24.0841 430.022 24.0854 429.886 24.0838C429.69 24.0815 429.549 23.9125 429.526 23.733C429.504 23.5604 429.614 23.369 429.796 23.3255C429.848 23.313 429.903 23.3054 429.956 23.3049C430.187 23.3028 430.417 23.301 430.648 23.3049C430.929 23.3093 431.106 23.4864 431.064 23.7744C431.04 23.9346 430.898 24.0721 430.714 24.083C430.574 24.0914 430.434 24.0846 430.295 24.0846C430.295 24.0846 430.295 24.0846 430.295 24.0843L430.295 24.0841Z" fill="#009046"/>
</g>
<defs>
<clipPath id="clip0_1_787">
<rect width="9" height="12" fill="white" transform="translate(16 15)"/>
</clipPath>
<clipPath id="clip1_1_787">
<rect width="10" height="10" fill="white" transform="translate(219 16)"/>
</clipPath>
<clipPath id="clip2_1_787">
<rect width="10" height="10" fill="white" transform="translate(423 16)"/>
</clipPath>
</defs>
</svg>
