<svg width="89" height="29" viewBox="0 0 89 29" fill="none" xmlns="http://www.w3.org/2000/svg">
<path opacity="0.8" d="M47.5439 14.1567C47.5439 15.6693 47.2622 16.9338 46.6988 17.9504C46.1354 18.9608 45.3179 19.7232 44.2463 20.2376C43.1746 20.7459 41.8825 21 40.3699 21H36.6406V7.57066H40.7741C42.1642 7.57066 43.3644 7.82174 44.3749 8.32388C45.3853 8.81991 46.166 9.55781 46.7172 10.5376C47.2683 11.5113 47.5439 12.7177 47.5439 14.1567ZM45.2475 14.221C45.2475 13.1188 45.073 12.2125 44.7239 11.5021C44.381 10.7917 43.8727 10.2651 43.1991 9.92218C42.5316 9.57312 41.708 9.3986 40.7282 9.3986H38.8451V19.1537H40.4067C42.0295 19.1537 43.242 18.7403 44.0442 17.9136C44.8464 17.0869 45.2475 15.8561 45.2475 14.221ZM59.081 10.8315V21H57.3817L57.0877 19.6313H56.9683C56.754 19.9804 56.4815 20.2713 56.1508 20.504C55.8201 20.7306 55.4527 20.899 55.0485 21.0092C54.6443 21.1255 54.2187 21.1837 53.7717 21.1837C53.0062 21.1837 52.351 21.0551 51.806 20.7979C51.2671 20.5346 50.8538 20.1304 50.5659 19.5854C50.2781 19.0404 50.1342 18.3362 50.1342 17.4727V10.8315H52.302V17.0686C52.302 17.8585 52.4612 18.4495 52.7797 18.8414C53.1042 19.2333 53.6064 19.4293 54.2861 19.4293C54.9413 19.4293 55.4619 19.2945 55.8477 19.0251C56.2335 18.7557 56.506 18.3576 56.6652 17.831C56.8305 17.3043 56.9132 16.6583 56.9132 15.8928V10.8315H59.081ZM64.3351 6.70722V10.1518C64.3351 10.5499 64.3229 10.9418 64.2984 11.3276C64.28 11.7072 64.2617 12.0042 64.2433 12.2186H64.3351C64.6107 11.7777 64.9934 11.4072 65.4833 11.1071C65.9794 10.8009 66.6132 10.6478 67.3848 10.6478C68.5911 10.6478 69.5617 11.0918 70.2966 11.9797C71.0314 12.8616 71.3989 14.169 71.3989 15.902C71.3989 17.0533 71.2305 18.0208 70.8937 18.8046C70.5569 19.5885 70.0823 20.1825 69.4699 20.5866C68.8636 20.9847 68.1502 21.1837 67.3296 21.1837C66.5581 21.1837 65.9334 21.0429 65.4558 20.7612C64.9843 20.4734 64.6138 20.1396 64.3443 19.7599H64.1882L63.7932 21H62.1765V6.70722H64.3351ZM66.8153 12.4023C66.2029 12.4023 65.716 12.5248 65.3547 12.7697C64.9996 13.0147 64.7424 13.3821 64.5832 13.872C64.4239 14.3558 64.3413 14.9712 64.3351 15.7183V15.9112C64.3351 17.0441 64.5127 17.9106 64.8679 18.5107C65.2292 19.1108 65.8844 19.4109 66.8336 19.4109C67.5868 19.4109 68.1655 19.1078 68.5697 18.5015C68.9739 17.8891 69.176 17.0135 69.176 15.8744C69.176 14.7232 68.9739 13.8567 68.5697 13.2749C68.1717 12.6932 67.5868 12.4023 66.8153 12.4023ZM77.8839 10.6387C79.1699 10.6387 80.1405 10.9234 80.7957 11.4929C81.4571 12.0624 81.7878 12.9504 81.7878 14.1567V21H80.2538L79.8404 19.5579H79.7669C79.4791 19.9253 79.1821 20.2284 78.8759 20.4672C78.5698 20.7061 78.2146 20.8836 77.8104 21C77.4124 21.1225 76.9255 21.1837 76.3499 21.1837C75.7437 21.1837 75.2017 21.0735 74.7241 20.853C74.2464 20.6265 73.8698 20.2835 73.5942 19.8242C73.3187 19.365 73.1809 18.7832 73.1809 18.079C73.1809 17.0318 73.5697 16.2449 74.3474 15.7183C75.1313 15.1916 76.3132 14.9008 77.8931 14.8457L79.6567 14.7814V14.2486C79.6567 13.5444 79.4914 13.0422 79.1607 12.7422C78.8361 12.4421 78.3769 12.2921 77.7829 12.2921C77.2746 12.2921 76.7816 12.3655 76.304 12.5125C75.8263 12.6595 75.3609 12.8401 74.9078 13.0545L74.2097 11.5297C74.7057 11.2663 75.2691 11.052 75.8998 10.8867C76.5367 10.7213 77.198 10.6387 77.8839 10.6387ZM79.6475 16.1408L78.334 16.1867C77.2562 16.2235 76.4999 16.4072 76.0651 16.7379C75.6304 17.0686 75.413 17.5217 75.413 18.0974C75.413 18.5995 75.563 18.9669 75.8631 19.1996C76.1631 19.4262 76.5581 19.5395 77.048 19.5395C77.7951 19.5395 78.4136 19.3282 78.9035 18.9057C79.3995 18.477 79.6475 17.8493 79.6475 17.0226V16.1408ZM86.9684 10.8315V21H84.8098V10.8315H86.9684ZM85.9029 6.93686C86.2336 6.93686 86.5184 7.02565 86.7572 7.20324C87.0021 7.38083 87.1246 7.68702 87.1246 8.1218C87.1246 8.55046 87.0021 8.85665 86.7572 9.04036C86.5184 9.21795 86.2336 9.30674 85.9029 9.30674C85.56 9.30674 85.2691 9.21795 85.0303 9.04036C84.7976 8.85665 84.6812 8.55046 84.6812 8.1218C84.6812 7.68702 84.7976 7.38083 85.0303 7.20324C85.2691 7.02565 85.56 6.93686 85.9029 6.93686Z" fill="white"/>
<g clip-path="url(#clip0_1965_143)">
<path d="M11.2439 28.9991H10.9537C10.8833 28.9411 10.8067 28.889 10.7432 28.8242C9.99326 28.0663 9.23171 27.318 8.49957 26.5452C7.87036 25.8804 7.24503 25.2089 6.67077 24.5008C5.71651 23.3238 4.77308 22.1363 3.88229 20.9146C2.93035 19.6087 2.11849 18.2157 1.43743 16.7602C0.754048 15.2995 0.168181 13.8001 0.0513172 12.1852C-0.00827567 11.3603 -0.0268501 10.522 0.0590565 9.70158C0.151928 8.81561 0.439058 7.96018 0.783458 7.12484C1.29038 5.89269 2.02562 4.80795 2.95202 3.8386C3.98754 2.75535 5.20107 1.89395 6.61504 1.33334C7.3557 1.03926 8.14201 0.850159 8.91595 0.638719C9.29595 0.533 9.69298 0.483862 10.083 0.410156C10.7409 0.410156 11.3987 0.410156 12.0566 0.410156C12.4373 0.484607 12.815 0.574692 13.1981 0.63053C14.2042 0.777197 15.1492 1.10776 16.0547 1.53436C17.4718 2.20143 18.6629 3.1477 19.6845 4.3054C20.5118 5.24199 21.1116 6.29993 21.5736 7.43381C21.9242 8.29521 22.1123 9.20127 22.2067 10.1178C22.2632 10.6612 22.2222 11.2152 22.2129 11.7639C22.2083 12.0289 22.216 12.3036 22.151 12.5575C21.918 13.4658 21.699 14.3808 21.3964 15.2682C20.7873 17.0536 19.8323 18.6818 18.7875 20.2587C17.7488 21.8266 16.6197 23.3327 15.3512 24.7376C14.4101 25.7799 13.4512 26.8081 12.4838 27.8273C12.0937 28.2383 11.6588 28.6098 11.2439 28.9991ZM6.02066 11.131C5.93011 13.7063 8.32776 16.2063 11.3801 16.0522C13.688 15.9353 16.5307 13.9386 16.1785 10.5816C15.9386 8.29223 13.9512 6.22772 11.0435 6.22772C8.26584 6.22772 5.99358 8.41358 6.02066 11.1303V11.131Z" fill="#E21E26"/>
</g>
<defs>
<clipPath id="clip0_1965_143">
<rect width="22.2359" height="28.589" fill="white" transform="translate(0 0.410156)"/>
</clipPath>
</defs>
</svg>
