<svg width="181" height="29" viewBox="0 0 181 29" fill="none" xmlns="http://www.w3.org/2000/svg">
<path opacity="0.8" d="M45.0057 7.57066C46.1631 7.57066 47.1184 7.71151 47.8716 7.9932C48.631 8.27489 49.1943 8.70355 49.5618 9.27918C49.9353 9.85482 50.1221 10.5866 50.1221 11.4745C50.1221 12.1359 49.9996 12.6993 49.7547 13.1647C49.5097 13.6301 49.1882 14.0159 48.7902 14.3221C48.3921 14.6283 47.9665 14.8732 47.5134 15.0569L51.3254 21H48.8361L45.5936 15.6172H43.435V21H41.2304V7.57066H45.0057ZM44.8587 9.40778H43.435V13.7985H44.9598C45.9824 13.7985 46.7234 13.6087 47.1827 13.229C47.6481 12.8493 47.8808 12.289 47.8808 11.548C47.8808 10.7703 47.6328 10.2192 47.1368 9.89462C46.6469 9.57006 45.8875 9.40778 44.8587 9.40778ZM57.0113 10.6387C58.2973 10.6387 59.2679 10.9234 59.9231 11.4929C60.5845 12.0624 60.9152 12.9504 60.9152 14.1567V21H59.3812L58.9678 19.5579H58.8943C58.6065 19.9253 58.3095 20.2284 58.0033 20.4672C57.6971 20.7061 57.342 20.8836 56.9378 21C56.5398 21.1225 56.0529 21.1837 55.4773 21.1837C54.871 21.1837 54.3291 21.0735 53.8514 20.853C53.3738 20.6265 52.9972 20.2835 52.7216 19.8242C52.446 19.365 52.3083 18.7832 52.3083 18.079C52.3083 17.0318 52.6971 16.2449 53.4748 15.7183C54.2587 15.1916 55.4405 14.9008 57.0205 14.8457L58.7841 14.7814V14.2486C58.7841 13.5444 58.6188 13.0422 58.2881 12.7422C57.9635 12.4421 57.5042 12.2921 56.9102 12.2921C56.402 12.2921 55.909 12.3655 55.4314 12.5125C54.9537 12.6595 54.4883 12.8401 54.0351 13.0545L53.337 11.5297C53.8331 11.2663 54.3964 11.052 55.0272 10.8867C55.6641 10.7213 56.3254 10.6387 57.0113 10.6387ZM58.7749 16.1408L57.4614 16.1867C56.3836 16.2235 55.6273 16.4072 55.1925 16.7379C54.7577 17.0686 54.5404 17.5217 54.5404 18.0974C54.5404 18.5995 54.6904 18.9669 54.9904 19.1996C55.2905 19.4262 55.6855 19.5395 56.1754 19.5395C56.9225 19.5395 57.541 19.3282 58.0309 18.9057C58.5269 18.477 58.7749 17.8493 58.7749 17.0226V16.1408ZM70.7713 18.0974C70.7713 18.7648 70.609 19.3282 70.2845 19.7875C69.9599 20.2468 69.4853 20.5958 68.8607 20.8347C68.2422 21.0674 67.4829 21.1837 66.5827 21.1837C65.8723 21.1837 65.2599 21.1317 64.7455 21.0276C64.2373 20.9296 63.7566 20.7765 63.3034 20.5683V18.7036C63.7872 18.9302 64.3291 19.1261 64.9293 19.2915C65.5355 19.4568 66.1081 19.5395 66.647 19.5395C67.3573 19.5395 67.8686 19.4293 68.181 19.2088C68.4933 18.9822 68.6494 18.6822 68.6494 18.3086C68.6494 18.0882 68.5851 17.8922 68.4565 17.7207C68.3341 17.5432 68.1013 17.3625 67.7584 17.1788C67.4216 16.989 66.9256 16.7624 66.2704 16.4991C65.6274 16.2419 65.0854 15.9847 64.6445 15.7275C64.2036 15.4703 63.8699 15.161 63.6433 14.7997C63.4167 14.4323 63.3034 13.9638 63.3034 13.3943C63.3034 12.4941 63.6586 11.8113 64.3689 11.3459C65.0854 10.8744 66.0315 10.6387 67.2073 10.6387C67.8319 10.6387 68.4198 10.703 68.9709 10.8315C69.5282 10.954 70.0732 11.1347 70.606 11.3735L69.9262 12.9993C69.4669 12.7973 69.0046 12.6319 68.5392 12.5033C68.0799 12.3686 67.6115 12.3012 67.1338 12.3012C66.5765 12.3012 66.1509 12.387 65.857 12.5584C65.5692 12.7299 65.4253 12.9749 65.4253 13.2933C65.4253 13.5321 65.4957 13.7342 65.6365 13.8995C65.7774 14.0649 66.0193 14.2302 66.3622 14.3956C66.7113 14.5609 67.195 14.766 67.8135 15.011C68.4198 15.2437 68.9434 15.4886 69.3843 15.7458C69.8313 15.9969 70.1742 16.3062 70.4131 16.6736C70.6519 17.041 70.7713 17.5156 70.7713 18.0974ZM86.5338 21L85.2202 17.2706H80.0855L78.7719 21H76.448L81.445 7.51555H83.8883L88.8761 21H86.5338ZM84.6507 15.3784L83.3739 11.7042C83.3249 11.545 83.2545 11.3214 83.1627 11.0336C83.0708 10.7397 82.9789 10.4427 82.8871 10.1426C82.7952 9.83644 82.7187 9.57925 82.6575 9.37104C82.5962 9.62211 82.5197 9.90381 82.4278 10.2161C82.3421 10.5223 82.2563 10.8101 82.1706 11.0796C82.091 11.349 82.0298 11.5572 81.9869 11.7042L80.7009 15.3784H84.6507ZM92.5963 21H90.4285V6.70722H92.5963V21ZM111.032 21H108.497L104.317 14.9008L102.994 15.9755V21H100.79V7.57066H102.994V13.9914C103.264 13.6607 103.536 13.33 103.812 12.9993C104.087 12.6687 104.363 12.338 104.639 12.0073L108.423 7.57066H110.912L105.897 13.4494L111.032 21ZM114.743 6.70722V10.2988C114.743 10.6723 114.73 11.0367 114.706 11.3919C114.688 11.747 114.666 12.0226 114.642 12.2186H114.761C114.975 11.8634 115.239 11.5725 115.551 11.3459C115.863 11.1132 116.212 10.9387 116.598 10.8224C116.99 10.706 117.407 10.6478 117.847 10.6478C118.625 10.6478 119.287 10.7795 119.832 11.0428C120.377 11.3 120.793 11.7011 121.081 12.2461C121.375 12.7911 121.522 13.4984 121.522 14.368V21H119.363V14.7722C119.363 13.9822 119.201 13.3913 118.876 12.9993C118.552 12.6013 118.05 12.4023 117.37 12.4023C116.715 12.4023 116.194 12.5401 115.808 12.8156C115.429 13.0851 115.156 13.4862 114.991 14.019C114.825 14.5456 114.743 15.1886 114.743 15.9479V21H112.584V6.70722H114.743ZM128.53 10.6387C129.816 10.6387 130.787 10.9234 131.442 11.4929C132.103 12.0624 132.434 12.9504 132.434 14.1567V21H130.9L130.487 19.5579H130.413C130.126 19.9253 129.829 20.2284 129.522 20.4672C129.216 20.7061 128.861 20.8836 128.457 21C128.059 21.1225 127.572 21.1837 126.996 21.1837C126.39 21.1837 125.848 21.0735 125.37 20.853C124.893 20.6265 124.516 20.2835 124.241 19.8242C123.965 19.365 123.827 18.7832 123.827 18.079C123.827 17.0318 124.216 16.2449 124.994 15.7183C125.778 15.1916 126.96 14.9008 128.539 14.8457L130.303 14.7814V14.2486C130.303 13.5444 130.138 13.0422 129.807 12.7422C129.483 12.4421 129.023 12.2921 128.429 12.2921C127.921 12.2921 127.428 12.3655 126.95 12.5125C126.473 12.6595 126.007 12.8401 125.554 13.0545L124.856 11.5297C125.352 11.2663 125.915 11.052 126.546 10.8867C127.183 10.7213 127.844 10.6387 128.53 10.6387ZM130.294 16.1408L128.98 16.1867C127.903 16.2235 127.146 16.4072 126.712 16.7379C126.277 17.0686 126.059 17.5217 126.059 18.0974C126.059 18.5995 126.209 18.9669 126.509 19.1996C126.81 19.4262 127.205 19.5395 127.694 19.5395C128.442 19.5395 129.06 19.3282 129.55 18.9057C130.046 18.477 130.294 17.8493 130.294 17.0226V16.1408ZM137.615 10.8315V21H135.456V10.8315H137.615ZM136.549 6.93686C136.88 6.93686 137.165 7.02565 137.404 7.20324C137.649 7.38083 137.771 7.68702 137.771 8.1218C137.771 8.55046 137.649 8.85665 137.404 9.04036C137.165 9.21795 136.88 9.30674 136.549 9.30674C136.206 9.30674 135.916 9.21795 135.677 9.04036C135.444 8.85665 135.328 8.55046 135.328 8.1218C135.328 7.68702 135.444 7.38083 135.677 7.20324C135.916 7.02565 136.206 6.93686 136.549 6.93686ZM152.202 10.6387C153.341 10.6387 154.198 10.9326 154.774 11.5205C155.355 12.1083 155.646 13.0514 155.646 14.3496V21H153.488V14.7354C153.488 13.9638 153.338 13.3821 153.037 12.9902C152.737 12.5982 152.281 12.4023 151.669 12.4023C150.811 12.4023 150.193 12.6779 149.813 13.229C149.44 13.774 149.253 14.567 149.253 15.6081V21H147.094V14.7354C147.094 14.221 147.027 13.7924 146.892 13.4494C146.764 13.1004 146.565 12.8401 146.295 12.6687C146.026 12.4911 145.686 12.4023 145.276 12.4023C144.682 12.4023 144.207 12.537 143.852 12.8065C143.503 13.0759 143.252 13.4739 143.099 14.0006C142.946 14.5211 142.869 15.161 142.869 15.9204V21H140.71V10.8315H142.391L142.694 12.2002H142.814C143.022 11.845 143.279 11.5541 143.585 11.3276C143.898 11.0949 144.244 10.9234 144.623 10.8132C145.003 10.6968 145.398 10.6387 145.808 10.6387C146.568 10.6387 147.208 10.7734 147.728 11.0428C148.249 11.3061 148.638 11.7103 148.895 12.2553H149.06C149.379 11.7042 149.822 11.297 150.392 11.0336C150.962 10.7703 151.565 10.6387 152.202 10.6387ZM162.646 10.6387C163.932 10.6387 164.902 10.9234 165.557 11.4929C166.219 12.0624 166.549 12.9504 166.549 14.1567V21H165.015L164.602 19.5579H164.529C164.241 19.9253 163.944 20.2284 163.638 20.4672C163.331 20.7061 162.976 20.8836 162.572 21C162.174 21.1225 161.687 21.1837 161.112 21.1837C160.505 21.1837 159.963 21.0735 159.486 20.853C159.008 20.6265 158.631 20.2835 158.356 19.8242C158.08 19.365 157.943 18.7832 157.943 18.079C157.943 17.0318 158.331 16.2449 159.109 15.7183C159.893 15.1916 161.075 14.9008 162.655 14.8457L164.418 14.7814V14.2486C164.418 13.5444 164.253 13.0422 163.922 12.7422C163.598 12.4421 163.139 12.2921 162.545 12.2921C162.036 12.2921 161.543 12.3655 161.066 12.5125C160.588 12.6595 160.123 12.8401 159.669 13.0545L158.971 11.5297C159.467 11.2663 160.031 11.052 160.661 10.8867C161.298 10.7213 161.96 10.6387 162.646 10.6387ZM164.409 16.1408L163.096 16.1867C162.018 16.2235 161.262 16.4072 160.827 16.7379C160.392 17.0686 160.175 17.5217 160.175 18.0974C160.175 18.5995 160.325 18.9669 160.625 19.1996C160.925 19.4262 161.32 19.5395 161.81 19.5395C162.557 19.5395 163.175 19.3282 163.665 18.9057C164.161 18.477 164.409 17.8493 164.409 17.0226V16.1408ZM171.73 6.70722V10.2988C171.73 10.6723 171.718 11.0367 171.693 11.3919C171.675 11.747 171.654 12.0226 171.629 12.2186H171.749C171.963 11.8634 172.226 11.5725 172.538 11.3459C172.851 11.1132 173.2 10.9387 173.586 10.8224C173.978 10.706 174.394 10.6478 174.835 10.6478C175.613 10.6478 176.274 10.7795 176.819 11.0428C177.364 11.3 177.78 11.7011 178.068 12.2461C178.362 12.7911 178.509 13.4984 178.509 14.368V21H176.35V14.7722C176.35 13.9822 176.188 13.3913 175.864 12.9993C175.539 12.6013 175.037 12.4023 174.357 12.4023C173.702 12.4023 173.181 12.5401 172.796 12.8156C172.416 13.0851 172.143 13.4862 171.978 14.019C171.813 14.5456 171.73 15.1886 171.73 15.9479V21H169.572V6.70722H171.73Z" fill="white"/>
<g clip-path="url(#clip0_1965_159)">
<path d="M11.2439 28.9991H10.9537C10.8833 28.9411 10.8067 28.889 10.7432 28.8242C9.99326 28.0663 9.23171 27.318 8.49957 26.5452C7.87036 25.8804 7.24503 25.2089 6.67077 24.5008C5.71651 23.3238 4.77308 22.1363 3.88229 20.9146C2.93035 19.6087 2.11849 18.2157 1.43743 16.7602C0.754048 15.2995 0.168181 13.8001 0.0513172 12.1852C-0.00827567 11.3603 -0.0268501 10.522 0.0590565 9.70158C0.151928 8.81561 0.439058 7.96018 0.783458 7.12484C1.29038 5.89269 2.02562 4.80795 2.95202 3.8386C3.98754 2.75535 5.20107 1.89395 6.61504 1.33334C7.3557 1.03926 8.14201 0.850159 8.91595 0.638719C9.29595 0.533 9.69298 0.483862 10.083 0.410156C10.7409 0.410156 11.3987 0.410156 12.0566 0.410156C12.4373 0.484607 12.815 0.574692 13.1981 0.63053C14.2042 0.777197 15.1492 1.10776 16.0547 1.53436C17.4718 2.20143 18.6629 3.1477 19.6845 4.3054C20.5118 5.24199 21.1116 6.29993 21.5736 7.43381C21.9242 8.29521 22.1123 9.20127 22.2067 10.1178C22.2632 10.6612 22.2222 11.2152 22.2129 11.7639C22.2083 12.0289 22.216 12.3036 22.151 12.5575C21.918 13.4658 21.699 14.3808 21.3964 15.2682C20.7873 17.0536 19.8323 18.6818 18.7875 20.2587C17.7488 21.8266 16.6197 23.3327 15.3512 24.7376C14.4101 25.7799 13.4512 26.8081 12.4838 27.8273C12.0937 28.2383 11.6588 28.6098 11.2439 28.9991ZM6.02066 11.131C5.93011 13.7063 8.32776 16.2063 11.3801 16.0522C13.688 15.9353 16.5307 13.9386 16.1785 10.5816C15.9386 8.29223 13.9512 6.22772 11.0435 6.22772C8.26584 6.22772 5.99358 8.41358 6.02066 11.1303V11.131Z" fill="#E21E26"/>
</g>
<defs>
<clipPath id="clip0_1965_159">
<rect width="22.2359" height="28.589" fill="white" transform="translate(0 0.410156)"/>
</clipPath>
</defs>
</svg>
