<svg width="116" height="29" viewBox="0 0 116 29" fill="none" xmlns="http://www.w3.org/2000/svg">
<path opacity="0.8" d="M44.817 21H42.6308V7.57066H50.2181V9.42615H44.817V13.6148H49.8691V15.4611H44.817V21ZM61.3051 10.8315V21H59.6058L59.3119 19.6313H59.1924C58.9781 19.9804 58.7056 20.2713 58.3749 20.504C58.0442 20.7306 57.6768 20.899 57.2727 21.0092C56.8685 21.1255 56.4429 21.1837 55.9959 21.1837C55.2304 21.1837 54.5752 21.0551 54.0301 20.7979C53.4913 20.5346 53.0779 20.1304 52.7901 19.5854C52.5023 19.0404 52.3584 18.3362 52.3584 17.4727V10.8315H54.5262V17.0686C54.5262 17.8585 54.6854 18.4495 55.0038 18.8414C55.3284 19.2333 55.8305 19.4293 56.5103 19.4293C57.1655 19.4293 57.686 19.2945 58.0718 19.0251C58.4576 18.7557 58.7301 18.3576 58.8893 17.831C59.0547 17.3043 59.1373 16.6583 59.1373 15.8928V10.8315H61.3051ZM63.3811 25.5193C63.0626 25.5193 62.7595 25.4948 62.4717 25.4458C62.1839 25.403 61.942 25.3509 61.746 25.2897V23.5628C61.9542 23.624 62.1563 23.6699 62.3523 23.7006C62.5482 23.7312 62.7718 23.7465 63.0228 23.7465C63.4209 23.7465 63.7485 23.6363 64.0057 23.4158C64.269 23.1954 64.4007 22.7759 64.4007 22.1574V10.8315H66.5593V22.3503C66.5593 22.9688 66.4491 23.5169 66.2286 23.9945C66.0143 24.4722 65.6713 24.8457 65.1998 25.1151C64.7344 25.3846 64.1282 25.5193 63.3811 25.5193ZM64.2721 8.1218C64.2721 7.68702 64.3884 7.38083 64.6211 7.20324C64.86 7.02565 65.1508 6.93686 65.4938 6.93686C65.8244 6.93686 66.1092 7.02565 66.348 7.20324C66.593 7.38083 66.7154 7.68702 66.7154 8.1218C66.7154 8.55046 66.593 8.85665 66.348 9.04036C66.1092 9.21795 65.8244 9.30674 65.4938 9.30674C65.1508 9.30674 64.86 9.21795 64.6211 9.04036C64.3884 8.85665 64.2721 8.55046 64.2721 8.1218ZM73.6414 10.6387C74.9274 10.6387 75.898 10.9234 76.5532 11.4929C77.2146 12.0624 77.5453 12.9504 77.5453 14.1567V21H76.0113L75.5979 19.5579H75.5244C75.2366 19.9253 74.9396 20.2284 74.6334 20.4672C74.3272 20.7061 73.9721 20.8836 73.5679 21C73.1699 21.1225 72.683 21.1837 72.1074 21.1837C71.5011 21.1837 70.9592 21.0735 70.4815 20.853C70.0039 20.6265 69.6273 20.2835 69.3517 19.8242C69.0761 19.365 68.9384 18.7832 68.9384 18.079C68.9384 17.0318 69.3272 16.2449 70.1049 15.7183C70.8888 15.1916 72.0706 14.9008 73.6506 14.8457L75.4142 14.7814V14.2486C75.4142 13.5444 75.2489 13.0422 74.9182 12.7422C74.5936 12.4421 74.1343 12.2921 73.5403 12.2921C73.0321 12.2921 72.5391 12.3655 72.0615 12.5125C71.5838 12.6595 71.1184 12.8401 70.6652 13.0545L69.9671 11.5297C70.4632 11.2663 71.0265 11.052 71.6573 10.8867C72.2942 10.7213 72.9555 10.6387 73.6414 10.6387ZM75.405 16.1408L74.0915 16.1867C73.0137 16.2235 72.2574 16.4072 71.8226 16.7379C71.3878 17.0686 71.1705 17.5217 71.1705 18.0974C71.1705 18.5995 71.3205 18.9669 71.6205 19.1996C71.9206 19.4262 72.3156 19.5395 72.8055 19.5395C73.5526 19.5395 74.1711 19.3282 74.661 18.9057C75.157 18.477 75.405 17.8493 75.405 17.0226V16.1408ZM82.7259 10.8315V21H80.5673V10.8315H82.7259ZM81.6604 6.93686C81.9911 6.93686 82.2758 7.02565 82.5147 7.20324C82.7596 7.38083 82.8821 7.68702 82.8821 8.1218C82.8821 8.55046 82.7596 8.85665 82.5147 9.04036C82.2758 9.21795 81.9911 9.30674 81.6604 9.30674C81.3175 9.30674 81.0266 9.21795 80.7878 9.04036C80.5551 8.85665 80.4387 8.55046 80.4387 8.1218C80.4387 7.68702 80.5551 7.38083 80.7878 7.20324C81.0266 7.02565 81.3175 6.93686 81.6604 6.93686ZM90.9746 10.6387C91.1461 10.6387 91.3328 10.6478 91.5349 10.6662C91.737 10.6846 91.9115 10.7091 92.0585 10.7397L91.8564 12.7605C91.7278 12.7238 91.5686 12.6962 91.3788 12.6779C91.195 12.6595 91.0297 12.6503 90.8827 12.6503C90.4969 12.6503 90.1295 12.7146 89.7805 12.8432C89.4314 12.9657 89.1222 13.1555 88.8527 13.4127C88.5833 13.6638 88.372 13.9791 88.2189 14.3588C88.0658 14.7385 87.9893 15.1794 87.9893 15.6815V21H85.8215V10.8315H87.5116L87.8056 12.6227H87.9066C88.1087 12.2614 88.3598 11.9308 88.6598 11.6307C88.9599 11.3306 89.3028 11.0918 89.6886 10.9142C90.0805 10.7305 90.5092 10.6387 90.9746 10.6387ZM97.9281 10.6387C99.2141 10.6387 100.185 10.9234 100.84 11.4929C101.501 12.0624 101.832 12.9504 101.832 14.1567V21H100.298L99.8846 19.5579H99.8111C99.5233 19.9253 99.2263 20.2284 98.9201 20.4672C98.6139 20.7061 98.2588 20.8836 97.8546 21C97.4566 21.1225 96.9697 21.1837 96.3941 21.1837C95.7878 21.1837 95.2459 21.0735 94.7682 20.853C94.2906 20.6265 93.914 20.2835 93.6384 19.8242C93.3628 19.365 93.2251 18.7832 93.2251 18.079C93.2251 17.0318 93.6139 16.2449 94.3916 15.7183C95.1755 15.1916 96.3573 14.9008 97.9373 14.8457L99.7009 14.7814V14.2486C99.7009 13.5444 99.5356 13.0422 99.2049 12.7422C98.8803 12.4421 98.421 12.2921 97.827 12.2921C97.3188 12.2921 96.8258 12.3655 96.3482 12.5125C95.8705 12.6595 95.4051 12.8401 94.952 13.0545L94.2538 11.5297C94.7499 11.2663 95.3133 11.052 95.944 10.8867C96.5809 10.7213 97.2422 10.6387 97.9281 10.6387ZM99.6917 16.1408L98.3782 16.1867C97.3004 16.2235 96.5441 16.4072 96.1093 16.7379C95.6746 17.0686 95.4572 17.5217 95.4572 18.0974C95.4572 18.5995 95.6072 18.9669 95.9073 19.1996C96.2073 19.4262 96.6023 19.5395 97.0922 19.5395C97.8393 19.5395 98.4578 19.3282 98.9477 18.9057C99.4437 18.477 99.6917 17.8493 99.6917 17.0226V16.1408ZM107.013 6.70722V10.2988C107.013 10.6723 107 11.0367 106.976 11.3919C106.958 11.747 106.936 12.0226 106.912 12.2186H107.031C107.245 11.8634 107.509 11.5725 107.821 11.3459C108.133 11.1132 108.482 10.9387 108.868 10.8224C109.26 10.706 109.676 10.6478 110.117 10.6478C110.895 10.6478 111.556 10.7795 112.101 11.0428C112.646 11.3 113.063 11.7011 113.351 12.2461C113.645 12.7911 113.792 13.4984 113.792 14.368V21H111.633V14.7722C111.633 13.9822 111.471 13.3913 111.146 12.9993C110.822 12.6013 110.319 12.4023 109.64 12.4023C108.984 12.4023 108.464 12.5401 108.078 12.8156C107.698 13.0851 107.426 13.4862 107.261 14.019C107.095 14.5456 107.013 15.1886 107.013 15.9479V21H104.854V6.70722H107.013Z" fill="white"/>
<g clip-path="url(#clip0_1965_155)">
<path d="M11.2439 28.9991H10.9537C10.8833 28.9411 10.8067 28.889 10.7432 28.8242C9.99325 28.0663 9.2317 27.318 8.49956 26.5452C7.87036 25.8804 7.24502 25.2089 6.67076 24.5008C5.7165 23.3238 4.77308 22.1363 3.88228 20.9146C2.93034 19.6087 2.11848 18.2157 1.43742 16.7602C0.754041 15.2995 0.168173 13.8001 0.0513095 12.1852C-0.0082833 11.3603 -0.0268577 10.522 0.0590489 9.70158C0.151921 8.81561 0.43905 7.96018 0.78345 7.12484C1.29038 5.89269 2.02561 4.80795 2.95201 3.8386C3.98753 2.75535 5.20106 1.89395 6.61504 1.33334C7.35569 1.03926 8.14201 0.850159 8.91594 0.638719C9.29594 0.533 9.69297 0.483862 10.083 0.410156C10.7409 0.410156 11.3987 0.410156 12.0566 0.410156C12.4373 0.484607 12.815 0.574692 13.1981 0.63053C14.2042 0.777197 15.1492 1.10776 16.0547 1.53436C17.4718 2.20143 18.6629 3.1477 19.6844 4.3054C20.5118 5.24199 21.1116 6.29993 21.5736 7.43381C21.9242 8.29521 22.1123 9.20127 22.2067 10.1178C22.2632 10.6612 22.2222 11.2152 22.2129 11.7639C22.2082 12.0289 22.216 12.3036 22.151 12.5575C21.918 13.4658 21.699 14.3808 21.3964 15.2682C20.7873 17.0536 19.8323 18.6818 18.7875 20.2587C17.7488 21.8266 16.6197 23.3327 15.3512 24.7376C14.4101 25.7799 13.4512 26.8081 12.4838 27.8273C12.0937 28.2383 11.6588 28.6098 11.2439 28.9991ZM6.02066 11.131C5.93011 13.7063 8.32775 16.2063 11.3801 16.0522C13.688 15.9353 16.5307 13.9386 16.1785 10.5816C15.9386 8.29223 13.9511 6.22772 11.0435 6.22772C8.26584 6.22772 5.99357 8.41358 6.02066 11.1303V11.131Z" fill="#E21E26"/>
</g>
<defs>
<clipPath id="clip0_1965_155">
<rect width="22.2359" height="28.589" fill="white" transform="translate(0 0.410156)"/>
</clipPath>
</defs>
</svg>
