<svg width="135" height="29" viewBox="0 0 135 29" fill="none" xmlns="http://www.w3.org/2000/svg">
<path opacity="0.8" d="M49.5506 21L48.2371 17.2706H43.1023L41.7888 21H39.4648L44.4618 7.51555H46.9052L51.8929 21H49.5506ZM47.6676 15.3784L46.3908 11.7042C46.3418 11.545 46.2714 11.3214 46.1795 11.0336C46.0877 10.7397 45.9958 10.4427 45.9039 10.1426C45.8121 9.83644 45.7355 9.57925 45.6743 9.37104C45.6131 9.62211 45.5365 9.90381 45.4447 10.2161C45.3589 10.5223 45.2732 10.8101 45.1875 11.0796C45.1079 11.349 45.0466 11.5572 45.0038 11.7042L43.7178 15.3784H47.6676ZM55.6039 6.70722V10.1518C55.6039 10.5499 55.5917 10.9418 55.5672 11.3276C55.5488 11.7072 55.5304 12.0042 55.5121 12.2186H55.6039C55.8795 11.7777 56.2622 11.4072 56.7521 11.1071C57.2481 10.8009 57.882 10.6478 58.6535 10.6478C59.8599 10.6478 60.8305 11.0918 61.5654 11.9797C62.3002 12.8616 62.6676 14.169 62.6676 15.902C62.6676 17.0533 62.4992 18.0208 62.1624 18.8046C61.8256 19.5885 61.351 20.1825 60.7387 20.5866C60.1324 20.9847 59.419 21.1837 58.5984 21.1837C57.8268 21.1837 57.2022 21.0429 56.7246 20.7612C56.253 20.4734 55.8826 20.1396 55.6131 19.7599H55.457L55.062 21H53.4453V6.70722H55.6039ZM58.084 12.4023C57.4717 12.4023 56.9848 12.5248 56.6235 12.7697C56.2684 13.0147 56.0112 13.3821 55.8519 13.872C55.6927 14.3558 55.6101 14.9712 55.6039 15.7183V15.9112C55.6039 17.0441 55.7815 17.9106 56.1367 18.5107C56.498 19.1108 57.1532 19.4109 58.1024 19.4109C58.8556 19.4109 59.4343 19.1078 59.8385 18.5015C60.2427 17.8891 60.4447 17.0135 60.4447 15.8744C60.4447 14.7232 60.2427 13.8567 59.8385 13.2749C59.4404 12.6932 58.8556 12.4023 58.084 12.4023ZM74.0302 10.8315V21H72.3309L72.037 19.6313H71.9175C71.7032 19.9804 71.4307 20.2713 71.1 20.504C70.7693 20.7306 70.4019 20.899 69.9978 21.0092C69.5936 21.1255 69.168 21.1837 68.721 21.1837C67.9555 21.1837 67.3002 21.0551 66.7552 20.7979C66.2163 20.5346 65.803 20.1304 65.5152 19.5854C65.2274 19.0404 65.0835 18.3362 65.0835 17.4727V10.8315H67.2513V17.0686C67.2513 17.8585 67.4105 18.4495 67.7289 18.8414C68.0535 19.2333 68.5556 19.4293 69.2353 19.4293C69.8906 19.4293 70.4111 19.2945 70.7969 19.0251C71.1827 18.7557 71.4552 18.3576 71.6144 17.831C71.7798 17.3043 71.8624 16.6583 71.8624 15.8928V10.8315H74.0302ZM93.1363 14.1567C93.1363 15.6693 92.8546 16.9338 92.2912 17.9504C91.7278 18.9608 90.9103 19.7232 89.8386 20.2376C88.767 20.7459 87.4749 21 85.9623 21H82.233V7.57066H86.3665C87.7566 7.57066 88.9568 7.82174 89.9672 8.32388C90.9776 8.81991 91.7584 9.55781 92.3096 10.5376C92.8607 11.5113 93.1363 12.7177 93.1363 14.1567ZM90.8399 14.221C90.8399 13.1188 90.6653 12.2125 90.3163 11.5021C89.9734 10.7917 89.4651 10.2651 88.7915 9.92218C88.124 9.57312 87.3003 9.3986 86.3205 9.3986H84.4375V19.1537H85.9991C87.6218 19.1537 88.8343 18.7403 89.6365 17.9136C90.4388 17.0869 90.8399 15.8561 90.8399 14.221ZM97.9679 6.70722V10.2988C97.9679 10.6723 97.9556 11.0367 97.9311 11.3919C97.9128 11.747 97.8913 12.0226 97.8668 12.2186H97.9862C98.2006 11.8634 98.4639 11.5725 98.7762 11.3459C99.0885 11.1132 99.4376 10.9387 99.8234 10.8224C100.215 10.706 100.632 10.6478 101.073 10.6478C101.85 10.6478 102.512 10.7795 103.057 11.0428C103.602 11.3 104.018 11.7011 104.306 12.2461C104.6 12.7911 104.747 13.4984 104.747 14.368V21H102.588V14.7722C102.588 13.9822 102.426 13.3913 102.101 12.9993C101.777 12.6013 101.275 12.4023 100.595 12.4023C99.9397 12.4023 99.4192 12.5401 99.0334 12.8156C98.6537 13.0851 98.3812 13.4862 98.2159 14.019C98.0505 14.5456 97.9679 15.1886 97.9679 15.9479V21H95.8093V6.70722H97.9679ZM111.755 10.6387C113.041 10.6387 114.012 10.9234 114.667 11.4929C115.329 12.0624 115.659 12.9504 115.659 14.1567V21H114.125L113.712 19.5579H113.638C113.351 19.9253 113.054 20.2284 112.747 20.4672C112.441 20.7061 112.086 20.8836 111.682 21C111.284 21.1225 110.797 21.1837 110.221 21.1837C109.615 21.1837 109.073 21.0735 108.596 20.853C108.118 20.6265 107.741 20.2835 107.466 19.8242C107.19 19.365 107.052 18.7832 107.052 18.079C107.052 17.0318 107.441 16.2449 108.219 15.7183C109.003 15.1916 110.185 14.9008 111.765 14.8457L113.528 14.7814V14.2486C113.528 13.5444 113.363 13.0422 113.032 12.7422C112.708 12.4421 112.248 12.2921 111.654 12.2921C111.146 12.2921 110.653 12.3655 110.176 12.5125C109.698 12.6595 109.232 12.8401 108.779 13.0545L108.081 11.5297C108.577 11.2663 109.141 11.052 109.771 10.8867C110.408 10.7213 111.07 10.6387 111.755 10.6387ZM113.519 16.1408L112.206 16.1867C111.128 16.2235 110.371 16.4072 109.937 16.7379C109.502 17.0686 109.285 17.5217 109.285 18.0974C109.285 18.5995 109.435 18.9669 109.735 19.1996C110.035 19.4262 110.43 19.5395 110.92 19.5395C111.667 19.5395 112.285 19.3282 112.775 18.9057C113.271 18.477 113.519 17.8493 113.519 17.0226V16.1408ZM120.84 6.70722V10.1518C120.84 10.5499 120.828 10.9418 120.803 11.3276C120.785 11.7072 120.767 12.0042 120.748 12.2186H120.84C121.116 11.7777 121.498 11.4072 121.988 11.1071C122.484 10.8009 123.118 10.6478 123.89 10.6478C125.096 10.6478 126.067 11.0918 126.801 11.9797C127.536 12.8616 127.904 14.169 127.904 15.902C127.904 17.0533 127.735 18.0208 127.399 18.8046C127.062 19.5885 126.587 20.1825 125.975 20.5866C125.368 20.9847 124.655 21.1837 123.835 21.1837C123.063 21.1837 122.438 21.0429 121.961 20.7612C121.489 20.4734 121.119 20.1396 120.849 19.7599H120.693L120.298 21H118.681V6.70722H120.84ZM123.32 12.4023C122.708 12.4023 122.221 12.5248 121.86 12.7697C121.504 13.0147 121.247 13.3821 121.088 13.872C120.929 14.3558 120.846 14.9712 120.84 15.7183V15.9112C120.84 17.0441 121.018 17.9106 121.373 18.5107C121.734 19.1108 122.389 19.4109 123.338 19.4109C124.092 19.4109 124.67 19.1078 125.075 18.5015C125.479 17.8891 125.681 17.0135 125.681 15.8744C125.681 14.7232 125.479 13.8567 125.075 13.2749C124.677 12.6932 124.092 12.4023 123.32 12.4023ZM132.561 10.8315V21H130.402V10.8315H132.561ZM131.495 6.93686C131.826 6.93686 132.111 7.02565 132.35 7.20324C132.594 7.38083 132.717 7.68702 132.717 8.1218C132.717 8.55046 132.594 8.85665 132.35 9.04036C132.111 9.21795 131.826 9.30674 131.495 9.30674C131.152 9.30674 130.861 9.21795 130.623 9.04036C130.39 8.85665 130.274 8.55046 130.274 8.1218C130.274 7.68702 130.39 7.38083 130.623 7.20324C130.861 7.02565 131.152 6.93686 131.495 6.93686Z" fill="white"/>
<g clip-path="url(#clip0_1965_147)">
<path d="M11.2439 28.9991H10.9537C10.8833 28.9411 10.8067 28.889 10.7432 28.8242C9.99326 28.0663 9.23171 27.318 8.49957 26.5452C7.87036 25.8804 7.24503 25.2089 6.67077 24.5008C5.71651 23.3238 4.77308 22.1363 3.88229 20.9146C2.93035 19.6087 2.11849 18.2157 1.43743 16.7602C0.754048 15.2995 0.168181 13.8001 0.0513172 12.1852C-0.00827567 11.3603 -0.0268501 10.522 0.0590565 9.70158C0.151928 8.81561 0.439058 7.96018 0.783458 7.12484C1.29038 5.89269 2.02562 4.80795 2.95202 3.8386C3.98754 2.75535 5.20107 1.89395 6.61504 1.33334C7.3557 1.03926 8.14201 0.850159 8.91595 0.638719C9.29595 0.533 9.69298 0.483862 10.083 0.410156C10.7409 0.410156 11.3987 0.410156 12.0566 0.410156C12.4373 0.484607 12.815 0.574692 13.1981 0.63053C14.2042 0.777197 15.1492 1.10776 16.0547 1.53436C17.4718 2.20143 18.6629 3.1477 19.6845 4.3054C20.5118 5.24199 21.1116 6.29993 21.5736 7.43381C21.9242 8.29521 22.1123 9.20127 22.2067 10.1178C22.2632 10.6612 22.2222 11.2152 22.2129 11.7639C22.2083 12.0289 22.216 12.3036 22.151 12.5575C21.918 13.4658 21.699 14.3808 21.3964 15.2682C20.7873 17.0536 19.8323 18.6818 18.7875 20.2587C17.7488 21.8266 16.6197 23.3327 15.3512 24.7376C14.4101 25.7799 13.4512 26.8081 12.4838 27.8273C12.0937 28.2383 11.6588 28.6098 11.2439 28.9991ZM6.02066 11.131C5.93011 13.7063 8.32776 16.2063 11.3801 16.0522C13.688 15.9353 16.5307 13.9386 16.1785 10.5816C15.9386 8.29223 13.9512 6.22772 11.0435 6.22772C8.26584 6.22772 5.99358 8.41358 6.02066 11.1303V11.131Z" fill="#E21E26"/>
</g>
<defs>
<clipPath id="clip0_1965_147">
<rect width="22.2359" height="28.589" fill="white" transform="translate(0 0.410156)"/>
</clipPath>
</defs>
</svg>
