<svg width="102" height="16" viewBox="0 0 102 16" fill="none" xmlns="http://www.w3.org/2000/svg">
<path d="M8.23249 0C8.29013 0.0242667 8.35079 0.0430735 8.40479 0.0740135C8.62167 0.198381 8.75028 0.385538 8.78395 0.634272C8.79427 0.710105 8.79851 0.787455 8.79882 0.863896C8.80003 1.54245 8.80064 2.22132 8.79882 2.89987C8.79821 3.10887 8.74149 3.30028 8.5971 3.45892C8.43027 3.64183 8.21854 3.7122 7.97739 3.7116C7.59822 3.71099 7.21905 3.71008 6.83989 3.7119C6.69398 3.71251 6.54747 3.71129 6.404 3.74557C6.3773 3.75194 6.35091 3.76134 6.32483 3.77014C6.27174 3.78804 6.23443 3.82444 6.22412 3.87843C6.20744 3.96458 6.18772 4.05224 6.1865 4.1393C6.18165 4.49238 6.18377 4.84576 6.18226 5.19884C6.18226 5.22827 6.19652 5.22736 6.21714 5.22736C6.74858 5.22705 7.28033 5.22584 7.81177 5.22796C7.91339 5.22827 8.01622 5.23464 8.11571 5.25344C8.27223 5.28287 8.40297 5.36477 8.50883 5.48428C8.59498 5.58105 8.65807 5.69176 8.68052 5.81977C8.6969 5.91229 8.70691 6.00753 8.70721 6.10157C8.70933 6.84595 8.70964 7.59003 8.70751 8.33441C8.70691 8.60013 8.61136 8.8246 8.39356 8.98658C8.24796 9.09487 8.08113 9.13794 7.90095 9.13764C7.34433 9.13643 6.78741 9.13733 6.23079 9.13582C6.19288 9.13582 6.18196 9.14431 6.18196 9.18344C6.18287 9.79284 6.18165 10.4019 6.18165 11.0113C6.18165 12.2086 6.18135 13.4056 6.18196 14.6028C6.18196 14.7317 6.17922 14.8597 6.13858 14.9841C6.04667 15.2656 5.77882 15.4755 5.48338 15.4937C5.40421 15.4986 5.32504 15.5013 5.24587 15.5013C4.50512 15.5019 3.76438 15.5019 3.02364 15.5013C2.86591 15.5013 2.71242 15.4791 2.5738 15.3951C2.34903 15.2589 2.22253 15.0593 2.20221 14.7979C2.1925 14.6738 2.19554 14.5482 2.19554 14.4235C2.19523 12.7685 2.19554 11.1136 2.19554 9.45857C2.19554 9.36635 2.19311 9.27444 2.19493 9.18223C2.19584 9.14552 2.18492 9.13612 2.14852 9.13643C1.69746 9.13764 1.24671 9.13733 0.795651 9.13703C0.58089 9.13703 0.38797 9.07728 0.230843 8.925C0.0791757 8.77788 0.000308872 8.59861 0.000612206 8.38476C0.00121887 7.57729 -0.00181447 6.77012 0.00182554 5.96264C0.00303888 5.6857 0.138023 5.47852 0.37159 5.33474C0.516584 5.24525 0.678564 5.22796 0.843881 5.22796C1.28736 5.22796 1.73083 5.22827 2.174 5.22827C2.17885 5.22827 2.18371 5.22736 2.19129 5.22645C2.1922 5.21431 2.19341 5.20339 2.19341 5.19278C2.19341 4.82059 2.1919 4.4484 2.19432 4.07651C2.19705 3.66215 2.23376 3.25205 2.33325 2.8477C2.44094 2.4106 2.6105 2.00201 2.85499 1.62435C3.047 1.328 3.27783 1.06501 3.55144 0.842662C3.684 0.734979 3.82475 0.635485 3.97095 0.547518C4.1302 0.451968 4.29613 0.365518 4.4663 0.291201C4.67014 0.202021 4.88399 0.139534 5.10209 0.0916069C5.25315 0.0582402 5.4036 0.0224467 5.56103 0.0160767C5.53949 0.01092 5.51796 0.00576335 5.49612 0.000910003C6.40824 0.000910003 7.32037 0 8.23249 0ZM5.27044 14.5913C5.27135 14.5764 5.27256 14.5628 5.27256 14.5491C5.27256 12.6584 5.27256 10.7675 5.27256 8.87677C5.27256 8.81883 5.27317 8.76059 5.2765 8.70296C5.28833 8.50064 5.42847 8.32167 5.62048 8.25706C5.70602 8.22824 5.79429 8.23037 5.88226 8.23037C6.48954 8.22946 7.09651 8.22976 7.70378 8.22946C7.79842 8.22946 7.79812 8.22885 7.79812 8.13512C7.79812 7.49053 7.79873 6.84595 7.79903 6.20167C7.79903 6.13736 7.79903 6.13766 7.73563 6.13766C7.24817 6.13766 6.76072 6.13736 6.27326 6.13706C6.12341 6.13706 5.97356 6.13706 5.82372 6.13706C5.64991 6.13706 5.50006 6.08306 5.38783 5.94383C5.30198 5.83736 5.27317 5.7133 5.27286 5.58014C5.27256 5.16275 5.27226 4.74506 5.27286 4.32767C5.27286 4.13839 5.28591 3.95002 5.32231 3.76377C5.41331 3.29512 5.72028 2.98056 6.18711 2.86924C6.39975 2.81858 6.61663 2.80129 6.83534 2.8019C7.17295 2.80281 7.51056 2.8019 7.84817 2.8019C7.8603 2.8019 7.87244 2.80068 7.88427 2.80008V0.884826C7.87729 0.883309 7.87365 0.881792 7.87001 0.881792C7.56152 0.880882 7.25272 0.879062 6.94423 0.879972C6.50379 0.881489 6.06305 0.861166 5.62352 0.914553C5.36841 0.945493 5.1212 1.00677 4.88187 1.09716C4.55366 1.22122 4.26064 1.40535 4.00341 1.64528C3.8111 1.82486 3.65458 2.03082 3.52444 2.25984C3.33152 2.59927 3.21535 2.96418 3.15407 3.3476C3.11282 3.60452 3.10433 3.86448 3.10311 4.12443C3.1016 4.48146 3.10311 4.83848 3.10251 5.1952C3.10251 5.34778 3.10615 5.50066 3.09947 5.65294C3.0925 5.81765 3.01636 5.94899 2.88138 6.04454C2.78401 6.1134 2.67329 6.13706 2.5562 6.13706C2.0196 6.13706 1.48301 6.13706 0.946408 6.13706C0.932151 6.13706 0.917591 6.13706 0.900908 6.13706C0.900908 6.15374 0.900908 6.16375 0.900908 6.17376C0.900908 6.84474 0.901211 7.51601 0.899998 8.18699C0.899998 8.22157 0.910615 8.22855 0.942768 8.22824C1.40869 8.22764 1.87491 8.22824 2.34083 8.22915C2.44033 8.22915 2.54013 8.22855 2.63932 8.23431C2.88532 8.24917 3.09159 8.4606 3.09917 8.70721C3.10372 8.85705 3.1022 9.00751 3.1022 9.15736C3.1019 10.9586 3.10129 12.7598 3.10099 14.5613C3.10099 14.5707 3.10281 14.5804 3.10402 14.5907L5.27044 14.5913Z" fill="black"/>
<path d="M24.8454 5.36618C24.8799 4.61313 24.9978 4.12746 25.1573 3.71519L25.1594 3.7095C25.3174 3.28999 25.565 2.90995 25.8848 2.59584L25.8893 2.59143L25.8937 2.58694C26.2081 2.2667 26.5883 2.0194 27.0074 1.8618L27.0146 1.85904C27.426 1.69908 27.9107 1.58161 28.6644 1.54715M24.8454 5.36618C24.8092 6.17078 24.8 6.42019 24.8 8.50632C24.8 10.593 24.8087 10.8418 24.8454 11.6466M24.8454 5.36618L24.8454 5.56914M25.1601 13.3035C25.3177 13.7227 25.565 14.1028 25.8852 14.4172L25.8897 14.4216L25.8941 14.4261C26.2082 14.7459 26.5883 14.9935 27.0078 15.1515L27.0141 15.1539C27.4258 15.3135 27.9107 15.431 28.6644 15.4655M25.1601 13.3035L25.1573 13.2963C24.9974 12.885 24.8799 12.4002 24.8454 11.6466M25.1601 13.3035L25.1506 13.2538M24.8454 11.6466L24.8578 11.7116M24.8454 11.6466L24.8454 11.4431M25.1506 13.2538L24.8578 11.7116M25.1506 13.2538C25.0263 12.9252 24.8982 12.4667 24.8578 11.7116M25.1506 13.2538C25.155 13.2653 25.1594 13.2767 25.1637 13.2879C25.3214 13.7131 25.5714 14.0982 25.8955 14.4153C26.2126 14.7394 26.5975 14.9893 27.0226 15.1471C27.3637 15.2799 27.8444 15.4188 28.6642 15.4564C29.4916 15.494 29.7472 15.5017 31.8046 15.5017C33.862 15.5017 34.1179 15.494 34.9452 15.4564C35.766 15.4187 36.2461 15.2791 36.5861 15.1473C37.0114 14.9896 37.3965 14.7396 37.7137 14.4153C38.0377 14.0983 38.2876 13.7134 38.4453 13.2883C38.5782 12.9472 38.7171 12.4665 38.7547 11.6467C38.7923 10.8194 38.8 10.5633 38.8 8.50632C38.8 6.44939 38.7923 6.19306 38.7546 5.36574C38.7168 4.54064 38.5759 4.05979 38.4435 3.71954C38.2703 3.27251 38.0507 2.9344 37.7131 2.59686C37.3763 2.26065 37.0391 2.04092 36.5917 1.86758C36.2503 1.73408 35.7691 1.59404 34.9452 1.55628C34.8735 1.55302 34.8062 1.54999 34.7416 1.54716M24.8578 11.7116C24.8566 11.6902 24.8556 11.6687 24.8546 11.6469C24.8513 11.5752 24.8483 11.5078 24.8454 11.4431M28.6644 1.54715C29.4691 1.51043 29.7185 1.50171 31.8046 1.50171C33.8907 1.50171 34.1399 1.51093 34.9445 1.54716M28.6644 1.54715L28.8678 1.54715M34.9445 1.54716L34.7416 1.54716M34.9445 1.54716C35.6977 1.58161 36.1834 1.6995 36.5957 1.85898L36.6014 1.86115C37.0209 2.01917 37.401 2.26671 37.7151 2.58654L37.7195 2.59098L37.7239 2.59534C38.0438 2.90949 38.2913 3.28963 38.4492 3.70925L38.4519 3.71635C38.6118 4.12767 38.7293 4.6124 38.7638 5.36608M28.8678 1.54715L34.7416 1.54716M28.8678 1.54715C29.5493 1.51735 29.926 1.51094 31.8046 1.51094C33.6834 1.51094 34.06 1.51736 34.7416 1.54716M28.8678 1.54715C28.8032 1.54998 28.7357 1.55302 28.664 1.55628C27.8432 1.5939 27.3631 1.73355 27.0231 1.8654C26.5962 2.02366 26.2098 2.27492 25.892 2.60098C25.5576 2.93675 25.3387 3.27324 25.1659 3.71916C25.0324 4.06062 24.8923 4.54202 24.8546 5.36596C24.8513 5.43744 24.8483 5.50466 24.8454 5.56914M38.7638 11.6466C38.7293 12.4002 38.6118 12.8852 38.4522 13.2969L38.4498 13.3031C38.2918 13.7227 38.0442 14.1027 37.7244 14.4168L37.7199 14.4212L37.7155 14.4257C37.4011 14.7459 37.021 14.9932 36.6018 15.1508L36.5946 15.1536C36.1833 15.3136 35.6985 15.431 34.9449 15.4655M24.8454 11.4431C24.8156 10.7616 24.8092 10.385 24.8092 8.50632C24.8092 6.62711 24.8156 6.25098 24.8454 5.56914M24.8454 11.4431L24.8454 5.56914M30.5588 11.514C30.9538 11.6776 31.3771 11.7618 31.8046 11.7618C32.668 11.7618 33.4961 11.4188 34.1066 10.8083C34.7171 10.1978 35.0601 9.36973 35.0601 8.50632C35.0601 7.64292 34.7171 6.81487 34.1066 6.20435C33.4961 5.59383 32.668 5.25084 31.8046 5.25084C31.3771 5.25084 30.9538 5.33504 30.5588 5.49865C30.1638 5.66225 29.8049 5.90205 29.5026 6.20435C29.2003 6.50665 28.9605 6.86553 28.7969 7.2605C28.6333 7.65548 28.5491 8.07881 28.5491 8.50632C28.5491 8.93384 28.6333 9.35717 28.7969 9.75215C28.9605 10.1471 29.2003 10.506 29.5026 10.8083C29.8049 11.1106 30.1638 11.3504 30.5588 11.514ZM29.4954 6.19709C30.1078 5.58465 30.9385 5.24058 31.8046 5.24058C32.6707 5.24058 33.5014 5.58465 34.1138 6.19709C34.7263 6.80954 35.0703 7.64019 35.0703 8.50632C35.0703 9.37245 34.7263 10.2031 34.1138 10.8156C33.5014 11.428 32.6707 11.7721 31.8046 11.7721C30.9385 11.7721 30.1078 11.428 29.4954 10.8156C28.8829 10.2031 28.5389 9.37245 28.5389 8.50632C28.5389 7.64019 28.8829 6.80954 29.4954 6.19709ZM36.9093 4.48024C36.9093 4.72814 36.8108 4.96589 36.6355 5.14119C36.4602 5.31648 36.2225 5.41496 35.9746 5.41496C35.7266 5.41496 35.4889 5.31648 35.3136 5.14119C35.1383 4.96589 35.0398 4.72814 35.0398 4.48024C35.0398 4.23234 35.1383 3.99459 35.3136 3.8193C35.4889 3.644 35.7266 3.54552 35.9746 3.54552C36.2225 3.54552 36.4602 3.644 36.6355 3.8193C36.8108 3.99459 36.9093 4.23234 36.9093 4.48024Z" stroke="black" stroke-width="0.8" stroke-linejoin="round"/>
<path d="M54.8369 1.3877L60.7055 9.17226L54.7999 15.5017H56.1291L61.2995 9.96028L65.4769 15.5017H69.9999L63.8013 7.27914L69.298 1.3877H67.9688L63.207 6.49111L59.3597 1.3877H54.8369ZM56.7916 2.35893H58.8694L68.045 14.5303H65.9672L56.7916 2.35893Z" fill="black"/>
<path d="M89.3197 5.66564H86.2459V15.5017H89.3197V5.66564ZM89.5963 2.2845C89.5979 2.05199 89.5537 1.82144 89.4663 1.60602C89.3788 1.39059 89.2497 1.1945 89.0865 1.02896C88.9232 0.863408 88.7289 0.731639 88.5147 0.641174C88.3005 0.550708 88.0706 0.503318 87.8381 0.501709H87.7828C87.31 0.501709 86.8565 0.689538 86.5222 1.02388C86.1878 1.35821 86 1.81167 86 2.2845C86 2.75732 86.1878 3.21078 86.5222 3.54512C86.8565 3.87945 87.31 4.06728 87.7828 4.06728C88.0153 4.073 88.2467 4.03285 88.4637 3.94912C88.6807 3.86539 88.8791 3.73973 89.0475 3.5793C89.2159 3.41888 89.351 3.22685 89.4452 3.01417C89.5394 2.8015 89.5907 2.57235 89.5963 2.33982V2.2845ZM101 9.5263C101 6.56933 99.1189 5.41974 97.25 5.41974C96.6381 5.3891 96.0289 5.51943 95.483 5.79773C94.9372 6.07603 94.4739 6.49257 94.1393 7.00581H94.0533V5.66564H91.1639V15.5017H94.2377V10.2702C94.1933 9.73435 94.362 9.20266 94.7074 8.79058C95.0527 8.3785 95.5467 8.11931 96.082 8.06933H96.1988C97.1762 8.06933 97.9016 8.68409 97.9016 10.2333V15.5017H100.975L101 9.5263Z" stroke="black" stroke-width="0.7" stroke-linejoin="round"/>
</svg>
