<svg width="232" height="42" viewBox="0 0 232 42" fill="none" xmlns="http://www.w3.org/2000/svg">
<rect x="0.5" y="0.5" width="231" height="41" rx="17.5" stroke="white"/>
<path d="M84.582 27.764L82.874 25.916C82.454 26.0373 81.992 26.098 81.488 26.098C80.5827 26.098 79.7473 25.888 78.982 25.468C78.226 25.0387 77.624 24.446 77.176 23.69C76.7373 22.9247 76.518 22.066 76.518 21.114C76.518 20.162 76.7373 19.308 77.176 18.552C77.624 17.796 78.226 17.208 78.982 16.788C79.7473 16.3587 80.5827 16.144 81.488 16.144C82.4027 16.144 83.238 16.3587 83.994 16.788C84.7593 17.208 85.3613 17.796 85.8 18.552C86.2387 19.308 86.458 20.162 86.458 21.114C86.458 22.01 86.262 22.822 85.87 23.55C85.4873 24.2687 84.9553 24.8473 84.274 25.286L86.612 27.764H84.582ZM78.156 21.114C78.156 21.8327 78.296 22.4673 78.576 23.018C78.8653 23.5593 79.262 23.9793 79.766 24.278C80.27 24.5673 80.844 24.712 81.488 24.712C82.132 24.712 82.706 24.5673 83.21 24.278C83.714 23.9793 84.106 23.5593 84.386 23.018C84.6753 22.4673 84.82 21.8327 84.82 21.114C84.82 20.3953 84.6753 19.7653 84.386 19.224C84.106 18.6827 83.714 18.2673 83.21 17.978C82.706 17.6887 82.132 17.544 81.488 17.544C80.844 17.544 80.27 17.6887 79.766 17.978C79.262 18.2673 78.8653 18.6827 78.576 19.224C78.296 19.7653 78.156 20.3953 78.156 21.114ZM95.0555 18.286V26H93.4595V25.09C93.2075 25.4073 92.8762 25.6593 92.4655 25.846C92.0642 26.0233 91.6349 26.112 91.1775 26.112C90.5709 26.112 90.0249 25.986 89.5395 25.734C89.0635 25.482 88.6855 25.1087 88.4055 24.614C88.1349 24.1193 87.9995 23.522 87.9995 22.822V18.286H89.5815V22.584C89.5815 23.2747 89.7542 23.8067 90.0995 24.18C90.4449 24.544 90.9162 24.726 91.5135 24.726C92.1109 24.726 92.5822 24.544 92.9275 24.18C93.2822 23.8067 93.4595 23.2747 93.4595 22.584V18.286H95.0555ZM97.9733 17.264C97.684 17.264 97.4413 17.166 97.2453 16.97C97.0493 16.774 96.9513 16.5313 96.9513 16.242C96.9513 15.9527 97.0493 15.71 97.2453 15.514C97.4413 15.318 97.684 15.22 97.9733 15.22C98.2533 15.22 98.4913 15.318 98.6873 15.514C98.8833 15.71 98.9813 15.9527 98.9813 16.242C98.9813 16.5313 98.8833 16.774 98.6873 16.97C98.4913 17.166 98.2533 17.264 97.9733 17.264ZM98.7573 18.286V26H97.1613V18.286H98.7573ZM100.321 22.136C100.321 21.3427 100.479 20.6473 100.797 20.05C101.123 19.4433 101.571 18.9767 102.141 18.65C102.71 18.3233 103.363 18.16 104.101 18.16C105.034 18.16 105.804 18.384 106.411 18.832C107.027 19.2707 107.442 19.9007 107.657 20.722H105.935C105.795 20.3393 105.571 20.0407 105.263 19.826C104.955 19.6113 104.567 19.504 104.101 19.504C103.447 19.504 102.925 19.7373 102.533 20.204C102.15 20.6613 101.959 21.3053 101.959 22.136C101.959 22.9667 102.15 23.6153 102.533 24.082C102.925 24.5487 103.447 24.782 104.101 24.782C105.025 24.782 105.636 24.376 105.935 23.564H107.657C107.433 24.348 107.013 24.9733 106.397 25.44C105.781 25.8973 105.015 26.126 104.101 26.126C103.363 26.126 102.71 25.9627 102.141 25.636C101.571 25.3 101.123 24.8333 100.797 24.236C100.479 23.6293 100.321 22.9293 100.321 22.136ZM112.299 22.15L115.855 26H113.699L110.843 22.682V26H109.247V15.64H110.843V21.66L113.643 18.286H115.855L112.299 22.15ZM125.844 21.002C126.367 21.0953 126.81 21.3707 127.174 21.828C127.538 22.2853 127.72 22.8033 127.72 23.382C127.72 23.8767 127.589 24.3247 127.328 24.726C127.076 25.118 126.707 25.4307 126.222 25.664C125.737 25.888 125.172 26 124.528 26H120.636V16.27H124.346C125.009 16.27 125.578 16.382 126.054 16.606C126.53 16.83 126.889 17.1333 127.132 17.516C127.375 17.8893 127.496 18.3093 127.496 18.776C127.496 19.336 127.347 19.8027 127.048 20.176C126.749 20.5493 126.348 20.8247 125.844 21.002ZM122.232 20.358H124.206C124.729 20.358 125.135 20.2413 125.424 20.008C125.723 19.7653 125.872 19.42 125.872 18.972C125.872 18.5333 125.723 18.1927 125.424 17.95C125.135 17.698 124.729 17.572 124.206 17.572H122.232V20.358ZM124.388 24.698C124.929 24.698 125.354 24.5673 125.662 24.306C125.97 24.0447 126.124 23.6807 126.124 23.214C126.124 22.738 125.961 22.36 125.634 22.08C125.307 21.8 124.873 21.66 124.332 21.66H122.232V24.698H124.388ZM132.8 26.126C132.072 26.126 131.414 25.9627 130.826 25.636C130.238 25.3 129.776 24.8333 129.44 24.236C129.104 23.6293 128.936 22.9293 128.936 22.136C128.936 21.352 129.109 20.6567 129.454 20.05C129.8 19.4433 130.271 18.9767 130.868 18.65C131.466 18.3233 132.133 18.16 132.87 18.16C133.608 18.16 134.275 18.3233 134.872 18.65C135.47 18.9767 135.941 19.4433 136.286 20.05C136.632 20.6567 136.804 21.352 136.804 22.136C136.804 22.92 136.627 23.6153 136.272 24.222C135.918 24.8287 135.432 25.3 134.816 25.636C134.21 25.9627 133.538 26.126 132.8 26.126ZM132.8 24.74C133.211 24.74 133.594 24.642 133.948 24.446C134.312 24.25 134.606 23.956 134.83 23.564C135.054 23.172 135.166 22.696 135.166 22.136C135.166 21.576 135.059 21.1047 134.844 20.722C134.63 20.33 134.345 20.036 133.99 19.84C133.636 19.644 133.253 19.546 132.842 19.546C132.432 19.546 132.049 19.644 131.694 19.84C131.349 20.036 131.074 20.33 130.868 20.722C130.663 21.1047 130.56 21.576 130.56 22.136C130.56 22.9667 130.77 23.6107 131.19 24.068C131.62 24.516 132.156 24.74 132.8 24.74ZM141.728 26.126C141 26.126 140.342 25.9627 139.754 25.636C139.166 25.3 138.704 24.8333 138.368 24.236C138.032 23.6293 137.864 22.9293 137.864 22.136C137.864 21.352 138.037 20.6567 138.382 20.05C138.727 19.4433 139.199 18.9767 139.796 18.65C140.393 18.3233 141.061 18.16 141.798 18.16C142.535 18.16 143.203 18.3233 143.8 18.65C144.397 18.9767 144.869 19.4433 145.214 20.05C145.559 20.6567 145.732 21.352 145.732 22.136C145.732 22.92 145.555 23.6153 145.2 24.222C144.845 24.8287 144.36 25.3 143.744 25.636C143.137 25.9627 142.465 26.126 141.728 26.126ZM141.728 24.74C142.139 24.74 142.521 24.642 142.876 24.446C143.24 24.25 143.534 23.956 143.758 23.564C143.982 23.172 144.094 22.696 144.094 22.136C144.094 21.576 143.987 21.1047 143.772 20.722C143.557 20.33 143.273 20.036 142.918 19.84C142.563 19.644 142.181 19.546 141.77 19.546C141.359 19.546 140.977 19.644 140.622 19.84C140.277 20.036 140.001 20.33 139.796 20.722C139.591 21.1047 139.488 21.576 139.488 22.136C139.488 22.9667 139.698 23.6107 140.118 24.068C140.547 24.516 141.084 24.74 141.728 24.74ZM150.362 22.15L153.918 26H151.762L148.906 22.682V26H147.31V15.64H148.906V21.66L151.706 18.286H153.918L150.362 22.15Z" fill="white"/>
</svg>
