<svg width="160" height="29" viewBox="0 0 160 29" fill="none" xmlns="http://www.w3.org/2000/svg">
<rect x="46" width="114" height="29" rx="14.5" fill="black"/>
<circle cx="61" cy="14" r="9" fill="white"/>
<path d="M62.173 9.5C62.7181 9.5 63.16 9.9419 63.16 10.487V16.36C63.16 17.312 62.8847 18.054 62.334 18.586C61.7833 19.1087 61.046 19.37 60.122 19.37C59.1887 19.37 58.4327 19.0993 57.854 18.558C57.4935 18.2153 57.2472 17.7865 57.1149 17.2717C56.9788 16.7416 57.4436 16.29 57.9909 16.29C58.5296 16.29 58.9035 16.7695 59.2107 17.212C59.2246 17.2319 59.239 17.2513 59.254 17.27C59.45 17.5033 59.73 17.62 60.094 17.62C60.4487 17.62 60.7193 17.508 60.906 17.284C61.0927 17.06 61.186 16.752 61.186 16.36V10.487C61.186 9.9419 61.6279 9.5 62.173 9.5Z" fill="black"/>
<path d="M83.992 9.242V16.452C83.992 17.2547 83.7447 17.8987 83.25 18.384C82.7553 18.86 82.102 19.098 81.29 19.098C80.4687 19.098 79.8107 18.8553 79.316 18.37C78.8213 17.8753 78.574 17.2033 78.574 16.354H79.848C79.8573 16.83 79.9787 17.2173 80.212 17.516C80.4547 17.8147 80.814 17.964 81.29 17.964C81.766 17.964 82.1207 17.824 82.354 17.544C82.5873 17.2547 82.704 16.8907 82.704 16.452V9.242H83.992ZM90.3098 11.188C90.8885 11.188 91.4112 11.314 91.8778 11.566C92.3445 11.8087 92.7085 12.1773 92.9698 12.672C93.2405 13.1667 93.3758 13.7687 93.3758 14.478V19H92.1158V14.66C92.1158 13.8947 91.9245 13.3113 91.5418 12.91C91.1592 12.4993 90.6365 12.294 89.9738 12.294C89.3018 12.294 88.7652 12.504 88.3638 12.924C87.9718 13.344 87.7758 13.9553 87.7758 14.758V19H86.5018V8.64H87.7758V12.42C88.0278 12.028 88.3732 11.7247 88.8118 11.51C89.2598 11.2953 89.7592 11.188 90.3098 11.188ZM98.8029 19.126C98.0842 19.126 97.4309 18.9627 96.8429 18.636C96.2642 18.3093 95.8069 17.8473 95.4709 17.25C95.1442 16.6433 94.9809 15.9433 94.9809 15.15C94.9809 14.366 95.1489 13.6753 95.4849 13.078C95.8302 12.4713 96.2969 12.0093 96.8849 11.692C97.4729 11.3653 98.1309 11.202 98.8589 11.202C99.5869 11.202 100.245 11.3653 100.833 11.692C101.421 12.0093 101.883 12.4667 102.219 13.064C102.564 13.6613 102.737 14.3567 102.737 15.15C102.737 15.9433 102.56 16.6433 102.205 17.25C101.86 17.8473 101.388 18.3093 100.791 18.636C100.194 18.9627 99.5309 19.126 98.8029 19.126ZM98.8029 18.006C99.2602 18.006 99.6896 17.8987 100.091 17.684C100.492 17.4693 100.814 17.1473 101.057 16.718C101.309 16.2887 101.435 15.766 101.435 15.15C101.435 14.534 101.314 14.0113 101.071 13.582C100.828 13.1527 100.511 12.8353 100.119 12.63C99.7269 12.4153 99.3022 12.308 98.8449 12.308C98.3782 12.308 97.9489 12.4153 97.5569 12.63C97.1742 12.8353 96.8662 13.1527 96.6329 13.582C96.3996 14.0113 96.2829 14.534 96.2829 15.15C96.2829 15.7753 96.3949 16.3027 96.6189 16.732C96.8522 17.1613 97.1602 17.4833 97.5429 17.698C97.9256 17.9033 98.3456 18.006 98.8029 18.006ZM108.15 11.188C109.083 11.188 109.839 11.4727 110.418 12.042C110.997 12.602 111.286 13.414 111.286 14.478V19H110.026V14.66C110.026 13.8947 109.835 13.3113 109.452 12.91C109.069 12.4993 108.547 12.294 107.884 12.294C107.212 12.294 106.675 12.504 106.274 12.924C105.882 13.344 105.686 13.9553 105.686 14.758V19H104.412V11.328H105.686V12.42C105.938 12.028 106.279 11.7247 106.708 11.51C107.147 11.2953 107.627 11.188 108.15 11.188ZM120.137 9.242C121.201 9.242 122.121 9.44267 122.895 9.844C123.679 10.236 124.277 10.8007 124.687 11.538C125.107 12.2753 125.317 13.1433 125.317 14.142C125.317 15.1407 125.107 16.0087 124.687 16.746C124.277 17.474 123.679 18.034 122.895 18.426C122.121 18.8087 121.201 19 120.137 19H117.099V9.242H120.137ZM120.137 17.95C121.397 17.95 122.359 17.6187 123.021 16.956C123.684 16.284 124.015 15.346 124.015 14.142C124.015 12.9287 123.679 11.9813 123.007 11.3C122.345 10.6187 121.388 10.278 120.137 10.278H118.373V17.95H120.137ZM130.344 19.126C129.625 19.126 128.972 18.9627 128.384 18.636C127.805 18.3093 127.348 17.8473 127.012 17.25C126.685 16.6433 126.522 15.9433 126.522 15.15C126.522 14.366 126.69 13.6753 127.026 13.078C127.371 12.4713 127.838 12.0093 128.426 11.692C129.014 11.3653 129.672 11.202 130.4 11.202C131.128 11.202 131.786 11.3653 132.374 11.692C132.962 12.0093 133.424 12.4667 133.76 13.064C134.105 13.6613 134.278 14.3567 134.278 15.15C134.278 15.9433 134.101 16.6433 133.746 17.25C133.401 17.8473 132.929 18.3093 132.332 18.636C131.735 18.9627 131.072 19.126 130.344 19.126ZM130.344 18.006C130.801 18.006 131.231 17.8987 131.632 17.684C132.033 17.4693 132.355 17.1473 132.598 16.718C132.85 16.2887 132.976 15.766 132.976 15.15C132.976 14.534 132.855 14.0113 132.612 13.582C132.369 13.1527 132.052 12.8353 131.66 12.63C131.268 12.4153 130.843 12.308 130.386 12.308C129.919 12.308 129.49 12.4153 129.098 12.63C128.715 12.8353 128.407 13.1527 128.174 13.582C127.941 14.0113 127.824 14.534 127.824 15.15C127.824 15.7753 127.936 16.3027 128.16 16.732C128.393 17.1613 128.701 17.4833 129.084 17.698C129.467 17.9033 129.887 18.006 130.344 18.006ZM142.953 14.87C142.953 15.1127 142.939 15.3693 142.911 15.64H136.779C136.826 16.396 137.082 16.9887 137.549 17.418C138.025 17.838 138.599 18.048 139.271 18.048C139.822 18.048 140.279 17.922 140.643 17.67C141.016 17.4087 141.278 17.0633 141.427 16.634H142.799C142.594 17.3713 142.183 17.9733 141.567 18.44C140.951 18.8973 140.186 19.126 139.271 19.126C138.543 19.126 137.89 18.9627 137.311 18.636C136.742 18.3093 136.294 17.8473 135.967 17.25C135.64 16.6433 135.477 15.9433 135.477 15.15C135.477 14.3567 135.636 13.6613 135.953 13.064C136.27 12.4667 136.714 12.0093 137.283 11.692C137.862 11.3653 138.524 11.202 139.271 11.202C139.999 11.202 140.643 11.3607 141.203 11.678C141.763 11.9953 142.192 12.434 142.491 12.994C142.799 13.5447 142.953 14.17 142.953 14.87ZM141.637 14.604C141.637 14.1187 141.53 13.7033 141.315 13.358C141.1 13.0033 140.806 12.7373 140.433 12.56C140.069 12.3733 139.663 12.28 139.215 12.28C138.571 12.28 138.02 12.4853 137.563 12.896C137.115 13.3067 136.858 13.876 136.793 14.604H141.637Z" fill="white"/>
<g clip-path="url(#clip0_1903_55)">
<path d="M0 20.517V20.0008C0.109785 19.5418 0.337039 19.1618 0.694936 18.8423C2.22423 17.4773 2.98834 15.7609 2.99822 13.7106C3.00261 12.7739 2.99163 11.8361 3.00151 10.8994C3.03115 8.01345 4.89529 5.39547 7.61356 4.43569C8.05928 4.27865 8.52257 4.17433 8.99794 4.03926C8.99794 3.78449 9.01331 3.51105 8.99465 3.23981C8.95403 2.62265 9.20104 2.20206 9.79498 2H10.2165C10.8171 2.21743 11.0509 2.65889 11.0026 3.27714C10.9927 3.40124 11.0147 3.52862 10.9971 3.65161C10.9806 3.77021 10.9576 3.90089 10.8939 3.99643C10.1496 5.10556 9.66763 6.31462 9.55126 7.64887C9.28997 10.6567 10.367 13.0979 12.757 14.9307C14.1029 15.9629 15.6542 16.4637 17.3536 16.4988C17.4448 16.501 17.5853 16.5472 17.6171 16.613C18.0563 17.5399 18.6897 18.3064 19.445 18.9916C19.9479 19.4474 20.1026 20.0426 19.9292 20.7025C19.7129 21.525 19.0301 22.0038 18.0991 22.0049C12.7021 22.0049 7.30506 22.0049 1.90915 22.0049C1.83889 22.0049 1.76863 22.0049 1.69837 22.0005C0.909016 21.9511 0.289831 21.469 0.0713599 20.7377C0.049403 20.6641 0.0241526 20.5905 0.00109785 20.517H0Z" fill="black"/>
<path d="M6.34445 23.0109H13.6451C13.4695 24.2638 12.208 25.9363 10.1013 25.9989C8.09332 26.0582 6.59586 24.5351 6.34445 23.0109Z" fill="black"/>
<path d="M18.0431 2C18.536 2.10872 19.041 2.1779 19.5197 2.33164C22.3159 3.23322 24.1768 5.9709 23.9868 8.8733C23.7925 11.8471 21.6517 14.3069 18.7578 14.8791C15.1415 15.5951 11.6547 13.1484 11.0707 9.48717C10.4932 5.86767 13.1423 2.4173 16.7861 2.04173C16.8464 2.03514 16.9057 2.01428 16.9661 2C17.3251 2 17.6852 2 18.0442 2H18.0431ZM17.0001 7.49513C17.0001 7.62361 17.0001 7.70927 17.0001 7.79382C17.0001 8.77008 16.9968 9.74523 17.0023 10.7215C17.0045 11.1673 17.3207 11.4946 17.7357 11.5023C18.1331 11.51 18.4888 11.1904 18.4932 10.7654C18.5064 9.42237 18.5042 8.08044 18.4932 6.73741C18.4899 6.34207 18.2144 6.03569 17.8312 6.01153C17.3569 5.98298 16.8783 5.98078 16.4051 6.01263C16 6.04008 15.7277 6.39259 15.7464 6.78682C15.7651 7.17447 16.0769 7.47756 16.4809 7.49293C16.6422 7.49952 16.8047 7.49293 16.999 7.49293L17.0001 7.49513Z" fill="#009046"/>
<path d="M17.0001 7.49508C16.8058 7.49508 16.6444 7.50057 16.4819 7.49508C16.0779 7.47971 15.7661 7.17662 15.7475 6.78897C15.7288 6.39583 16.0011 6.04223 16.4062 6.01478C16.8794 5.98293 17.358 5.98513 17.8323 6.01368C18.2154 6.03674 18.491 6.34422 18.4943 6.73955C18.5053 8.08259 18.5064 9.42452 18.4943 10.7676C18.4899 11.1925 18.1342 11.5121 17.7368 11.5044C17.3207 11.4967 17.0056 11.1695 17.0034 10.7236C16.9979 9.74738 17.0012 8.77222 17.0012 7.79597C17.0012 7.71032 17.0012 7.62576 17.0012 7.49728L17.0001 7.49508Z" fill="#009046"/>
<path d="M17.8808 5.54203V10.1818H16.8841V6.67569L15.8077 7.00369V6.23305L17.7821 5.54203H17.8808Z" fill="white"/>
</g>
<defs>
<clipPath id="clip0_1903_55">
<rect width="24" height="24" fill="white" transform="translate(0 2)"/>
</clipPath>
</defs>
</svg>
