<svg width="157" height="24" viewBox="0 0 157 24" fill="none" xmlns="http://www.w3.org/2000/svg">
<path d="M139.042 6.81111C138.977 6.88168 138.921 7.01462 138.921 7.1131V14.5906C138.921 14.6841 138.977 14.7087 139.044 14.6414L141.993 11.6971C142.06 11.6298 142.112 11.4952 142.112 11.4V7.1131C142.112 7.01462 142.17 6.88168 142.235 6.81111L145.678 3.17907C145.742 3.10849 145.798 2.97391 145.798 2.882V0.049237L145.676 0L139.041 6.80947" fill="#009046"/>
<path d="M145.783 6.9375H142.718V9.87366H145.783V6.9375Z" fill="#009046"/>
<path d="M153.191 0.0491943L150.296 2.92956C150.227 2.99685 150.173 3.13143 150.173 3.22662V6.76348C150.173 6.85867 150.096 6.93745 150.001 6.93745H149.748C149.653 6.93745 149.576 6.85867 149.576 6.76348V3.22662C149.576 3.13143 149.519 2.99685 149.452 2.92956L146.558 0.0491943H146.385V11.3983C146.385 11.4935 146.44 11.6281 146.507 11.6954L149.45 14.6397C149.517 14.7038 149.574 14.6824 149.574 14.5889V10.0574C149.574 9.9606 149.651 9.8851 149.746 9.8851H149.998C150.091 9.8851 150.171 9.9606 150.171 10.0574V14.5889C150.171 14.6824 150.225 14.707 150.294 14.6397L153.24 11.6954C153.308 11.6281 153.366 11.4935 153.366 11.3983V0.0491943H153.189" fill="#009046"/>
<path d="M156.292 16.665H136V16.8571H156.292V16.665Z" fill="black"/>
<path d="M136.824 21.5641L136.005 23.55H136.667L136.79 23.2184H137.622L137.739 23.55H138.486L137.668 21.5641H136.826M136.96 22.7835L137.217 22.0876L137.464 22.7835H136.96Z" fill="black"/>
<path d="M139.407 21.5641H138.732V23.5483H140.146V23.0642H139.407V21.5641Z" fill="black"/>
<path d="M141.825 22.2977H141.11V21.5641H140.434V23.5483H141.11V22.7819H141.825V23.5483H142.5V21.5641H141.825V22.2977Z" fill="black"/>
<path d="M143.519 21.5641L142.701 23.55H143.364L143.486 23.2184H144.319L144.435 23.55H145.178L144.363 21.5641H143.521M143.65 22.7835L143.91 22.0876L144.16 22.7835H143.65Z" fill="black"/>
<path d="M147.144 22.6654C147.05 22.5899 146.944 22.5505 146.825 22.5456V22.539C146.934 22.5078 147.026 22.457 147.101 22.3831C147.175 22.3175 147.211 22.2141 147.211 22.0795C147.217 21.7365 146.983 21.5658 146.507 21.5625H145.389V23.5484H146.599C146.769 23.5484 146.893 23.5369 146.975 23.5106L147.085 23.463L147.163 23.3925C147.244 23.3153 147.281 23.1922 147.284 23.0363C147.281 22.8689 147.234 22.7425 147.145 22.6638M146.063 21.9285H146.278L146.421 21.94L146.507 21.9843C146.545 22.022 146.561 22.0778 146.56 22.1468C146.56 22.2124 146.54 22.2649 146.499 22.306C146.458 22.3454 146.383 22.3651 146.28 22.3651H146.063V21.9285ZM146.547 23.1348C146.493 23.1742 146.404 23.1922 146.28 23.1922H146.063V22.7179H146.28C146.404 22.7179 146.494 22.7327 146.547 22.7721C146.599 22.8098 146.624 22.8738 146.624 22.9559C146.624 23.038 146.601 23.0971 146.547 23.1348Z" fill="black"/>
<path d="M147.477 22.045H148.007V23.5483H148.678V22.045H149.208V21.5641H147.477V22.045Z" fill="black"/>
<path d="M150.449 21.5132C150.243 21.5132 150.086 21.5312 149.97 21.5706C149.852 21.6067 149.757 21.6609 149.682 21.7315C149.481 21.8939 149.378 22.168 149.373 22.5554C149.371 22.8574 149.45 23.1052 149.614 23.3005C149.782 23.4974 150.06 23.5975 150.448 23.6008C150.857 23.5975 151.143 23.4794 151.31 23.2578C151.447 23.0986 151.517 22.8639 151.519 22.5586C151.519 22.2517 151.441 22.0039 151.279 21.8119C151.115 21.6149 150.837 21.5165 150.448 21.5132M150.448 23.1479C150.332 23.1479 150.24 23.1003 150.171 23.0018C150.099 22.9066 150.062 22.7589 150.062 22.557C150.062 22.3551 150.099 22.2009 150.171 22.1057C150.242 22.0088 150.332 21.9612 150.448 21.9612C150.691 21.9612 150.821 22.1582 150.829 22.557C150.821 22.9558 150.691 23.1511 150.448 23.1479Z" fill="black"/>
<path d="M152.885 21.5132C152.682 21.5132 152.523 21.5312 152.407 21.5706C152.291 21.6067 152.191 21.6609 152.121 21.7315C151.918 21.8939 151.815 22.168 151.814 22.5554C151.809 22.8574 151.89 23.1052 152.057 23.3005C152.222 23.4974 152.499 23.5975 152.885 23.6008C153.295 23.5975 153.582 23.4794 153.748 23.2578C153.889 23.0986 153.956 22.8639 153.959 22.5586C153.959 22.2517 153.883 22.0039 153.719 21.8119C153.554 21.6149 153.276 21.5165 152.885 21.5132ZM152.885 23.1479C152.772 23.1479 152.682 23.1003 152.612 23.0018C152.536 22.9066 152.499 22.7589 152.499 22.557C152.499 22.3551 152.536 22.2009 152.612 22.1057C152.682 22.0088 152.772 21.9612 152.885 21.9612C153.133 21.9612 153.264 22.1582 153.272 22.557C153.264 22.9558 153.133 23.1511 152.885 23.1479Z" fill="black"/>
<path d="M156.195 22.8837C156.182 22.782 156.143 22.713 156.089 22.6704C156.032 22.6293 155.965 22.6096 155.885 22.6096V22.5817C155.988 22.5604 156.071 22.5079 156.133 22.4275C156.2 22.3487 156.231 22.2404 156.231 22.114C156.231 21.8941 156.168 21.7513 156.037 21.6709C155.912 21.5954 155.731 21.5609 155.507 21.5642H154.341V23.5501H155.016V22.8296H155.227C155.345 22.8279 155.418 22.8427 155.456 22.8755C155.495 22.9083 155.518 22.9904 155.526 23.1069L155.587 23.5501H156.282L156.197 22.8854M155.495 22.3914C155.445 22.4307 155.378 22.4439 155.296 22.4439H155.018V21.963H155.283C155.472 21.963 155.571 22.0385 155.571 22.201C155.571 22.2929 155.544 22.3553 155.497 22.3897" fill="black"/>
<path d="M137.309 20.7682C137.415 20.696 137.469 20.5942 137.48 20.4629V18.8282H136.81V20.2775C136.81 20.3513 136.752 20.3891 136.679 20.3891L136 20.3923V20.8732H136.862C137.032 20.8732 137.197 20.8404 137.307 20.7698" fill="black"/>
<path d="M156.289 18.0978H155.611V20.0935H156.289V18.0978Z" fill="black"/>
<path d="M139.389 20.5072V20.0936H154.736C155.183 20.0936 155.324 19.9524 155.324 19.6652V18.0962H154.646V19.4551L154.597 19.5996H153.667V19.1679C153.667 18.9184 153.483 18.7954 153.119 18.7921H152.057V19.2762H152.994C153.061 19.2762 153.114 19.3288 153.114 19.3977V19.5996H149.481V18.8265H148.805V19.5996H144.952V18.8265H144.275V19.5996H139.387C139.391 19.5159 139.391 18.8462 139.387 18.8265H138.331C138.167 18.8167 138.03 18.861 137.928 18.9513C137.827 19.0497 137.776 19.268 137.773 19.4994C137.776 19.7112 137.825 19.8654 137.922 19.9557C138.02 20.046 138.144 20.0903 138.3 20.0936H138.835V20.279C138.835 20.3463 138.781 20.3874 138.714 20.3874H137.775V20.8715H138.838C139.203 20.8781 139.389 20.755 139.389 20.5072ZM138.838 19.7177H138.71C138.601 19.7177 138.521 19.6997 138.473 19.6652C138.429 19.6291 138.408 19.5635 138.408 19.4797C138.408 19.4059 138.426 19.3485 138.46 19.3091C138.496 19.2697 138.558 19.2533 138.648 19.2533H138.836V19.7177H138.838Z" fill="black"/>
<path d="M149.479 20.3184H148.804V20.8206H149.479V20.3184Z" fill="black"/>
<path d="M144.496 18.1028H143.818V18.6034H144.496V18.1028Z" fill="black"/>
<path d="M145.394 18.1028H144.716V18.6034H145.394V18.1028Z" fill="black"/>
<path d="M8.2636 15.4825C7.58991 15.8205 6.91623 16.0671 6.27028 16.2182C5.61641 16.3812 4.95066 16.4607 4.29282 16.4607C3.53988 16.4607 2.89393 16.3494 2.33121 16.1188C1.76848 15.8921 1.32067 15.5581 0.987794 15.1008C0.646988 14.6435 0.440925 14.1027 0.373556 13.4784C0.310151 12.8621 0.381477 12.1941 0.603396 11.4823C1.05912 9.98718 1.91906 8.78234 3.19114 7.86379C4.46718 6.94923 5.91759 6.49194 7.55424 6.49194C8.13678 6.49194 8.69159 6.55954 9.20676 6.68281C9.72589 6.81006 10.2094 7.00887 10.677 7.27529L9.98744 9.53388C9.56342 9.18395 9.10769 8.92947 8.62422 8.75848C8.14075 8.59545 7.62954 8.50797 7.09455 8.50797C6.12365 8.50797 5.28353 8.76643 4.57022 9.30324C3.85294 9.82813 3.34966 10.5518 3.07226 11.4823C2.80278 12.381 2.84242 13.0967 3.21493 13.6415C3.57951 14.1783 4.21356 14.4447 5.1052 14.4447C5.67982 14.4447 6.29009 14.3453 6.93207 14.1425C7.57802 13.9397 8.24774 13.6335 8.94124 13.2359L8.2636 15.4825Z" fill="black"/>
<path d="M11.3981 16.2899L18.5193 6.65906H21.2854L22.0898 16.2899H19.5457L19.4308 14.417H15.2975L13.966 16.2899H11.402M16.4983 12.7668H19.3277L19.0979 9.10851L16.4983 12.7668Z" fill="black"/>
<path d="M25.5299 16.2899L28.4624 6.65906H32.0132C33.313 6.65906 34.2125 6.88969 34.696 7.343C35.1795 7.80028 35.2706 8.50012 34.9813 9.45843C34.8268 9.99126 34.5415 10.4446 34.161 10.8223C33.7647 11.2041 33.2496 11.5182 32.5997 11.7767C32.8136 11.8681 32.9801 12.0073 33.1069 12.2141C33.2377 12.4208 33.3209 12.6793 33.3684 12.9895L33.8955 16.2859H31.1889L30.8084 13.5143C30.745 13.073 30.6182 12.7708 30.4201 12.5998C30.214 12.4367 29.8851 12.3572 29.4254 12.3572H29.2748L29.1401 12.3652L27.9512 16.2859H25.5339M30.8322 10.6076C31.2681 10.6076 31.6287 10.5161 31.9022 10.3293C32.1835 10.1424 32.3777 9.85607 32.4887 9.47831C32.6036 9.11646 32.5719 8.83811 32.4015 8.65123C32.2311 8.46036 31.9379 8.37288 31.5099 8.37288H30.3606L29.6751 10.6116H30.8282L30.8322 10.6076Z" fill="black"/>
<path d="M47.8052 16.2899L50.7377 6.65906H54.2805C55.5922 6.65906 56.4838 6.88969 56.9673 7.343C57.4508 7.80028 57.5459 8.50012 57.2487 9.45843C57.0862 9.99126 56.8167 10.4446 56.4244 10.8223C56.036 11.2041 55.5169 11.5182 54.8749 11.7767C55.081 11.8681 55.2474 12.0073 55.3782 12.2141C55.505 12.4208 55.6001 12.6793 55.6398 12.9895L56.1668 16.2859H53.4562L53.0837 13.5143C53.0124 13.073 52.8856 12.7708 52.6835 12.5998C52.4813 12.4367 52.1564 12.3572 51.6888 12.3572H51.5382L51.3995 12.3652L50.2067 16.2859H47.7972M53.0916 10.6076C53.5276 10.6076 53.8882 10.5161 54.1616 10.3293C54.435 10.1424 54.6292 9.85607 54.7441 9.47831C54.8591 9.11646 54.8313 8.83811 54.6649 8.65123C54.4905 8.46036 54.1973 8.37288 53.7693 8.37288H52.6201L51.9345 10.6116H53.0916V10.6076Z" fill="black"/>
<path d="M60.3751 16.2899L63.3037 6.65906H69.7195L69.1766 8.43252H65.1662L64.5718 10.3969H68.3999L67.861 12.1862H64.021L63.3235 14.4846H67.4528L66.9059 16.2899H60.3751Z" fill="black"/>
<path d="M76.7815 10.2418L74.9387 16.2899H72.5571L75.4975 6.65906H77.6057L80.9979 12.4049L82.7535 6.65906H85.1272L82.1868 16.2899H80.3084L76.7815 10.2418Z" fill="black"/>
<path d="M89.9578 16.2899L92.3395 8.45638H89.1652L89.7121 6.65906H98.5928L98.046 8.45638H94.8757L92.4821 16.2899H89.9578Z" fill="black"/>
<path d="M99.5716 16.2899L106.693 6.65906H109.463L110.271 16.2899H107.727L107.612 14.417H103.475L102.14 16.2899H99.5795M104.676 12.7668H107.509L107.283 9.10851L104.676 12.7668Z" fill="black"/>
<path d="M114.246 16.2899L117.182 6.65906H119.58L117.214 14.4329H121.351L120.789 16.2899H114.246Z" fill="black"/>
</svg>
