<svg width="121" height="35" viewBox="0 0 121 35" fill="none" xmlns="http://www.w3.org/2000/svg">
<rect x="0.999329" y="0.5" width="119.167" height="34" rx="17" fill="black" stroke="white"/>
<path d="M44.2337 9.48369C44.2337 10.0856 44.0767 10.6126 43.6862 10.9885C43.2166 11.4405 42.6705 11.6653 41.966 11.6653C41.2616 11.6653 40.7154 11.4392 40.2458 10.9885C39.7762 10.5364 39.5427 10.0107 39.5427 9.33258C39.5427 8.65448 39.7775 8.12877 40.2458 7.6767C40.7154 7.22464 41.2616 6.99988 41.966 6.99988C42.2787 6.99988 42.5913 7.0748 42.9039 7.22591C43.2166 7.37702 43.4514 7.52686 43.6071 7.75289L43.2166 8.12877C42.9039 7.75289 42.5135 7.60178 41.966 7.60178C41.4964 7.60178 41.0281 7.75289 40.7154 8.12877C40.3249 8.42972 40.168 8.88178 40.168 9.4075C40.168 9.93321 40.3249 10.3853 40.7154 10.6862C41.1059 10.9872 41.4977 11.2132 41.966 11.2132C42.5135 11.2132 42.9039 11.0621 43.2944 10.6862C43.5292 10.4602 43.6849 10.1592 43.6849 9.78337H41.9647V9.18147H44.2324V9.48242L44.2337 9.48369ZM47.8298 7.60305H45.7191V9.03289H47.6728V9.55988H45.7191V10.9897H47.8298V11.5916H45.0938V7.07607H47.8298V7.60305ZM50.4101 11.5916H49.7848V7.60305H48.4564V7.07607H51.7398V7.60305H50.4114V11.5916H50.4101ZM54.0062 11.5916V7.07607H54.6315V11.5916H54.0062ZM57.2897 11.5916H56.6644V7.60305H55.3359V7.07607H58.5416V7.60305H57.2131V11.5916H57.291H57.2897ZM64.7167 10.9897C64.247 11.4418 63.7009 11.6665 62.9964 11.6665C62.292 11.6665 61.7459 11.4405 61.2762 10.9897C60.8066 10.5377 60.5731 10.0119 60.5731 9.33385C60.5731 8.65575 60.8079 8.13004 61.2762 7.67797C61.7459 7.22591 62.292 7.00115 62.9964 7.00115C63.7009 7.00115 64.247 7.22718 64.7167 7.67797C65.1863 8.13004 65.4198 8.65575 65.4198 9.33385C65.4198 10.0119 65.185 10.5377 64.7167 10.9897ZM61.7459 10.6138C62.0585 10.9148 62.5281 11.1408 62.9964 11.1408C63.4648 11.1408 63.9344 10.9897 64.247 10.6138C64.5597 10.3129 64.7945 9.86083 64.7945 9.33512C64.7945 8.8094 64.6375 8.35734 64.247 8.05639C63.9344 7.75543 63.4648 7.5294 62.9964 7.5294C62.5281 7.5294 62.0585 7.68051 61.7459 8.05639C61.4332 8.35734 61.1984 8.8094 61.1984 9.33512C61.1984 9.86083 61.3554 10.3129 61.7459 10.6138ZM66.2799 11.5916V7.07607H66.983L69.2507 10.6126V7.07607H69.876V11.5916H69.2507L66.8274 7.904V11.5916H66.2799Z" fill="white"/>
<path d="M60.7671 18.7346C58.8809 18.7346 57.3873 20.102 57.3873 21.9999C57.3873 23.8979 58.8809 25.2653 60.7671 25.2653C62.6533 25.2653 64.1469 23.8979 64.1469 21.9999C64.1469 20.102 62.6533 18.7346 60.7671 18.7346ZM60.7671 23.8992C59.7457 23.8992 58.8809 23.0636 58.8809 21.9243C58.8809 20.785 59.7457 19.9495 60.7671 19.9495C61.7885 19.9495 62.6533 20.7094 62.6533 21.9243C62.6533 23.0636 61.7885 23.8992 60.7671 23.8992ZM53.4571 18.7346C51.5709 18.7346 50.0773 20.102 50.0773 21.9999C50.0773 23.8979 51.5709 25.2653 53.4571 25.2653C55.3433 25.2653 56.8369 23.8979 56.8369 21.9999C56.8369 20.102 55.3433 18.7346 53.4571 18.7346ZM53.4571 23.8992C52.4357 23.8992 51.5709 23.0636 51.5709 21.9243C51.5709 20.785 52.4357 19.9495 53.4571 19.9495C54.4784 19.9495 55.3433 20.7094 55.3433 21.9243C55.3433 23.0636 54.4784 23.8992 53.4571 23.8992ZM44.7317 19.7226V21.09H48.1115C48.0332 21.85 47.7189 22.4574 47.3249 22.8368C46.8527 23.293 46.0674 23.8235 44.7304 23.8235C42.6081 23.8235 41.0362 22.2293 41.0362 20.1788C41.0362 18.1284 42.6863 16.5342 44.7304 16.5342C45.8313 16.5342 46.6949 16.9904 47.3249 17.5209L48.3463 16.5342C47.4814 15.7742 46.3818 15.1667 44.8086 15.1667C41.9793 15.1667 39.5427 17.4453 39.5427 20.1788C39.5427 22.9124 41.9793 25.1909 44.8086 25.1909C46.3805 25.1909 47.4814 24.7347 48.4245 23.7479C49.3676 22.8368 49.682 21.545 49.682 20.5582C49.682 20.2545 49.682 19.9507 49.6037 19.7226H44.7304H44.7317ZM80.4184 20.7863C80.104 20.0263 79.3174 18.7358 77.5891 18.7358C75.8607 18.7358 74.4454 20.0263 74.4454 22.0012C74.4454 23.8235 75.8607 25.2666 77.7469 25.2666C79.2405 25.2666 80.1836 24.3554 80.498 23.8235L79.397 23.0636C79.0044 23.5954 78.5322 23.9748 77.7469 23.9748C76.9617 23.9748 76.4895 23.671 76.0968 22.988L80.5776 21.1656L80.4197 20.7863H80.4184ZM75.8594 21.85C75.8594 20.6351 76.8808 19.952 77.5891 19.952C78.1396 19.952 78.69 20.2557 78.8466 20.6351L75.8594 21.85ZM72.1652 24.9641H73.6588V15.4718H72.1652V24.9641ZM69.8068 19.4202C69.4142 19.0408 68.7855 18.6602 67.9989 18.6602C66.3488 18.6602 64.7756 20.1032 64.7756 21.9256C64.7756 23.7479 66.2692 25.1153 67.9989 25.1153C68.7855 25.1153 69.4142 24.736 69.7286 24.3554H69.8068V24.8116C69.8068 26.0265 69.0998 26.7096 67.9989 26.7096C67.134 26.7096 66.5053 26.1021 66.3488 25.5703L65.0913 26.1021C65.4839 26.9377 66.427 28.0001 68.0785 28.0001C69.7299 28.0001 71.2221 27.0133 71.2221 24.6591V18.8871H69.8068V19.4189V19.4202ZM68.0771 23.9004C67.0558 23.9004 66.1909 23.0649 66.1909 21.9256C66.1909 20.7863 67.0558 19.9507 68.0771 19.9507C69.0985 19.9507 69.8851 20.7863 69.8851 21.9256C69.8851 23.0649 69.0985 23.9004 68.0771 23.9004ZM87.2562 15.4705H83.7186V24.9628H85.2122V21.3937H87.2562C88.9063 21.3937 90.4795 20.2545 90.4795 18.4321C90.4795 16.6098 88.9076 15.4705 87.2562 15.4705ZM87.3345 20.0276H85.2122V16.7623H87.3345C88.4354 16.7623 89.0642 17.6734 89.0642 18.3565C88.9859 19.1921 88.3572 20.0276 87.3345 20.0276ZM96.3742 18.6602C95.2732 18.6602 94.1736 19.1165 93.7797 20.1032L95.1154 20.6351C95.4298 20.1032 95.902 19.952 96.4511 19.952C97.2377 19.952 97.9447 20.4082 98.023 21.1669V21.2425C97.7869 21.09 97.1581 20.8632 96.5294 20.8632C95.1141 20.8632 93.7001 21.6231 93.7001 22.9893C93.7001 24.2798 94.8793 25.1153 96.1368 25.1153C97.1581 25.1153 97.6303 24.6591 98.023 24.2042H98.1012V24.9641H99.5165V21.3194C99.3587 19.6483 98.023 18.6615 96.3729 18.6615L96.3742 18.6602ZM96.2164 23.9004C95.7441 23.9004 95.0371 23.6723 95.0371 23.0649C95.0371 22.3049 95.902 22.0781 96.609 22.0781C97.2377 22.0781 97.5521 22.2306 97.9447 22.3818C97.7869 23.293 97.0016 23.9004 96.215 23.9004H96.2164ZM104.469 18.8883L102.819 22.9893H102.741L101.011 18.8883H99.4396L102.034 24.6604L100.541 27.8501H102.034L106.043 18.8883H104.471H104.469ZM91.2634 24.9641H92.757V15.4718H91.2634V24.9641Z" fill="white"/>
<path d="M14.8154 7.82166C14.5777 8.05527 14.499 8.44377 14.499 8.91101V26.0991C14.499 26.5663 14.6578 26.9548 14.8942 27.1884L14.9729 27.2659L24.7838 17.6219V17.4657L14.8154 7.82166Z" fill="url(#paint0_linear_1_466)"/>
<path d="M27.9497 20.8886L24.7052 17.6993V17.4657L27.9497 14.2764L28.0284 14.3538L31.9058 16.5312C33.014 17.1533 33.014 18.1639 31.9058 18.7873L27.9497 20.8873V20.8886Z" fill="url(#paint1_linear_1_466)"/>
<path d="M28.028 20.811L24.7048 17.5443L14.8152 27.2658C15.2104 27.6543 15.7645 27.6543 16.4761 27.3432L28.028 20.8097" fill="url(#paint2_linear_1_466)"/>
<path d="M28.028 14.2776L16.4761 7.82157C15.7645 7.43307 15.2104 7.51051 14.8152 7.899L24.7048 17.543L28.028 14.2763V14.2776Z" fill="url(#paint3_linear_1_466)"/>
<path opacity="0.2" d="M27.9493 20.7324L16.4761 27.1097C15.8433 27.4982 15.2892 27.4207 14.894 27.1097L14.8152 27.1871L14.894 27.2645C15.2892 27.5756 15.8433 27.653 16.4761 27.2645L27.9493 20.7311V20.7324Z" fill="#F2F2F2"/>
<path opacity="0.12" d="M14.8154 27.1112C14.5777 26.8776 14.499 26.4891 14.499 26.0219V26.0993C14.499 26.5666 14.6578 26.9551 14.8942 27.1887V27.1112H14.8154ZM31.9056 18.5552L27.9495 20.7326L28.0282 20.8101L31.9056 18.6327C32.4597 18.3216 32.6973 17.9331 32.6973 17.5433C32.6973 17.9318 32.3809 18.2429 31.9056 18.5539V18.5552Z" fill="#F2F2F2"/>
<path opacity="0.25" d="M16.4767 7.90021L31.9059 16.5336C32.3812 16.8447 32.6976 17.1557 32.6976 17.5442C32.6976 17.1557 32.46 16.7659 31.9059 16.4549L16.4767 7.82146C15.3685 7.19935 14.4993 7.66528 14.4993 8.91081V8.98825C14.4993 7.82146 15.3698 7.27679 16.4767 7.8989V7.90021Z" fill="#F2F2F2"/>
<defs>
<linearGradient id="paint0_linear_1_466" x1="23.8878" y1="9.03478" x2="10.8301" y2="22.3263" gradientUnits="userSpaceOnUse">
<stop stop-color="#00A1FF"/>
<stop offset="0.26" stop-color="#00BEFF"/>
<stop offset="0.51" stop-color="#00D2FF"/>
<stop offset="0.76" stop-color="#00DFFF"/>
<stop offset="1" stop-color="#00E3FF"/>
</linearGradient>
<linearGradient id="paint1_linear_1_466" x1="33.4207" y1="17.8684" x2="14.2602" y2="17.8684" gradientUnits="userSpaceOnUse">
<stop stop-color="#FFE000"/>
<stop offset="0.41" stop-color="#FFBD00"/>
<stop offset="0.78" stop-color="#FFA500"/>
<stop offset="1" stop-color="#FF9C00"/>
</linearGradient>
<linearGradient id="paint2_linear_1_466" x1="26.2787" y1="19.6039" x2="8.57524" y2="37.6215" gradientUnits="userSpaceOnUse">
<stop stop-color="#FF3A44"/>
<stop offset="1" stop-color="#C31162"/>
</linearGradient>
<linearGradient id="paint3_linear_1_466" x1="12.3834" y1="2.42698" x2="20.2897" y2="10.47" gradientUnits="userSpaceOnUse">
<stop stop-color="#32A071"/>
<stop offset="0.07" stop-color="#2DA771"/>
<stop offset="0.48" stop-color="#15CF74"/>
<stop offset="0.8" stop-color="#06E775"/>
<stop offset="1" stop-color="#00F076"/>
</linearGradient>
</defs>
</svg>
