<svg width="78" height="13" viewBox="0 0 78 13" fill="none" xmlns="http://www.w3.org/2000/svg">
<path d="M8.582 12.764L6.874 10.916C6.454 11.0373 5.992 11.098 5.488 11.098C4.58267 11.098 3.74733 10.888 2.982 10.468C2.226 10.0387 1.624 9.446 1.176 8.69C0.737333 7.92467 0.518 7.066 0.518 6.114C0.518 5.162 0.737333 4.308 1.176 3.552C1.624 2.796 2.226 2.208 2.982 1.788C3.74733 1.35867 4.58267 1.144 5.488 1.144C6.40267 1.144 7.238 1.35867 7.994 1.788C8.75933 2.208 9.36133 2.796 9.8 3.552C10.2387 4.308 10.458 5.162 10.458 6.114C10.458 7.01 10.262 7.822 9.87 8.55C9.48733 9.26867 8.95533 9.84733 8.274 10.286L10.612 12.764H8.582ZM2.156 6.114C2.156 6.83267 2.296 7.46733 2.576 8.018C2.86533 8.55933 3.262 8.97933 3.766 9.278C4.27 9.56733 4.844 9.712 5.488 9.712C6.132 9.712 6.706 9.56733 7.21 9.278C7.714 8.97933 8.106 8.55933 8.386 8.018C8.67533 7.46733 8.82 6.83267 8.82 6.114C8.82 5.39533 8.67533 4.76533 8.386 4.224C8.106 3.68267 7.714 3.26733 7.21 2.978C6.706 2.68867 6.132 2.544 5.488 2.544C4.844 2.544 4.27 2.68867 3.766 2.978C3.262 3.26733 2.86533 3.68267 2.576 4.224C2.296 4.76533 2.156 5.39533 2.156 6.114ZM19.0555 3.286V11H17.4595V10.09C17.2075 10.4073 16.8762 10.6593 16.4655 10.846C16.0642 11.0233 15.6349 11.112 15.1775 11.112C14.5709 11.112 14.0249 10.986 13.5395 10.734C13.0635 10.482 12.6855 10.1087 12.4055 9.614C12.1349 9.11933 11.9995 8.522 11.9995 7.822V3.286H13.5815V7.584C13.5815 8.27467 13.7542 8.80667 14.0995 9.18C14.4449 9.544 14.9162 9.726 15.5135 9.726C16.1109 9.726 16.5822 9.544 16.9275 9.18C17.2822 8.80667 17.4595 8.27467 17.4595 7.584V3.286H19.0555ZM21.9733 2.264C21.684 2.264 21.4413 2.166 21.2453 1.97C21.0493 1.774 20.9513 1.53133 20.9513 1.242C20.9513 0.952666 21.0493 0.71 21.2453 0.514C21.4413 0.318 21.684 0.219999 21.9733 0.219999C22.2533 0.219999 22.4913 0.318 22.6873 0.514C22.8833 0.71 22.9813 0.952666 22.9813 1.242C22.9813 1.53133 22.8833 1.774 22.6873 1.97C22.4913 2.166 22.2533 2.264 21.9733 2.264ZM22.7573 3.286V11H21.1613V3.286H22.7573ZM24.3207 7.136C24.3207 6.34267 24.4794 5.64733 24.7967 5.05C25.1234 4.44333 25.5714 3.97667 26.1407 3.65C26.7101 3.32333 27.3634 3.16 28.1007 3.16C29.0341 3.16 29.8041 3.384 30.4107 3.832C31.0267 4.27067 31.4421 4.90067 31.6567 5.722H29.9347C29.7947 5.33933 29.5707 5.04067 29.2627 4.826C28.9547 4.61133 28.5674 4.504 28.1007 4.504C27.4474 4.504 26.9247 4.73733 26.5327 5.204C26.1501 5.66133 25.9587 6.30533 25.9587 7.136C25.9587 7.96667 26.1501 8.61533 26.5327 9.082C26.9247 9.54867 27.4474 9.782 28.1007 9.782C29.0247 9.782 29.6361 9.376 29.9347 8.564H31.6567C31.4327 9.348 31.0127 9.97333 30.3967 10.44C29.7807 10.8973 29.0154 11.126 28.1007 11.126C27.3634 11.126 26.7101 10.9627 26.1407 10.636C25.5714 10.3 25.1234 9.83333 24.7967 9.236C24.4794 8.62933 24.3207 7.92933 24.3207 7.136ZM36.2993 7.15L39.8553 11H37.6993L34.8433 7.682V11H33.2473V0.64H34.8433V6.66L37.6433 3.286H39.8553L36.2993 7.15ZM49.8439 6.002C50.3666 6.09533 50.8099 6.37067 51.1739 6.828C51.5379 7.28533 51.7199 7.80333 51.7199 8.382C51.7199 8.87667 51.5893 9.32467 51.3279 9.726C51.0759 10.118 50.7073 10.4307 50.2219 10.664C49.7366 10.888 49.1719 11 48.5279 11H44.6359V1.27H48.3459C49.0086 1.27 49.5779 1.382 50.0539 1.606C50.5299 1.83 50.8893 2.13333 51.1319 2.516C51.3746 2.88933 51.4959 3.30933 51.4959 3.776C51.4959 4.336 51.3466 4.80267 51.0479 5.176C50.7493 5.54933 50.3479 5.82467 49.8439 6.002ZM46.2319 5.358H48.2059C48.7286 5.358 49.1346 5.24133 49.4239 5.008C49.7226 4.76533 49.8719 4.42 49.8719 3.972C49.8719 3.53333 49.7226 3.19267 49.4239 2.95C49.1346 2.698 48.7286 2.572 48.2059 2.572H46.2319V5.358ZM48.3879 9.698C48.9293 9.698 49.3539 9.56733 49.6619 9.306C49.9699 9.04467 50.1239 8.68067 50.1239 8.214C50.1239 7.738 49.9606 7.36 49.6339 7.08C49.3073 6.8 48.8733 6.66 48.3319 6.66H46.2319V9.698H48.3879ZM56.8003 11.126C56.0723 11.126 55.4143 10.9627 54.8263 10.636C54.2383 10.3 53.7763 9.83333 53.4403 9.236C53.1043 8.62933 52.9363 7.92933 52.9363 7.136C52.9363 6.352 53.109 5.65667 53.4543 5.05C53.7996 4.44333 54.271 3.97667 54.8683 3.65C55.4656 3.32333 56.133 3.16 56.8703 3.16C57.6076 3.16 58.275 3.32333 58.8723 3.65C59.4696 3.97667 59.941 4.44333 60.2863 5.05C60.6316 5.65667 60.8043 6.352 60.8043 7.136C60.8043 7.92 60.627 8.61533 60.2723 9.222C59.9176 9.82867 59.4323 10.3 58.8163 10.636C58.2096 10.9627 57.5376 11.126 56.8003 11.126ZM56.8003 9.74C57.211 9.74 57.5936 9.642 57.9483 9.446C58.3123 9.25 58.6063 8.956 58.8303 8.564C59.0543 8.172 59.1663 7.696 59.1663 7.136C59.1663 6.576 59.059 6.10467 58.8443 5.722C58.6296 5.33 58.345 5.036 57.9903 4.84C57.6356 4.644 57.253 4.546 56.8423 4.546C56.4316 4.546 56.049 4.644 55.6943 4.84C55.349 5.036 55.0736 5.33 54.8683 5.722C54.663 6.10467 54.5603 6.576 54.5603 7.136C54.5603 7.96667 54.7703 8.61067 55.1903 9.068C55.6196 9.516 56.1563 9.74 56.8003 9.74ZM65.728 11.126C65 11.126 64.342 10.9627 63.754 10.636C63.166 10.3 62.704 9.83333 62.368 9.236C62.032 8.62933 61.864 7.92933 61.864 7.136C61.864 6.352 62.0367 5.65667 62.382 5.05C62.7274 4.44333 63.1987 3.97667 63.796 3.65C64.3934 3.32333 65.0607 3.16 65.798 3.16C66.5354 3.16 67.2027 3.32333 67.8 3.65C68.3974 3.97667 68.8687 4.44333 69.214 5.05C69.5594 5.65667 69.732 6.352 69.732 7.136C69.732 7.92 69.5547 8.61533 69.2 9.222C68.8454 9.82867 68.36 10.3 67.744 10.636C67.1374 10.9627 66.4654 11.126 65.728 11.126ZM65.728 9.74C66.1387 9.74 66.5214 9.642 66.876 9.446C67.24 9.25 67.534 8.956 67.758 8.564C67.982 8.172 68.094 7.696 68.094 7.136C68.094 6.576 67.9867 6.10467 67.772 5.722C67.5574 5.33 67.2727 5.036 66.918 4.84C66.5634 4.644 66.1807 4.546 65.77 4.546C65.3594 4.546 64.9767 4.644 64.622 4.84C64.2767 5.036 64.0014 5.33 63.796 5.722C63.5907 6.10467 63.488 6.576 63.488 7.136C63.488 7.96667 63.698 8.61067 64.118 9.068C64.5474 9.516 65.084 9.74 65.728 9.74ZM74.3618 7.15L77.9178 11H75.7618L72.9058 7.682V11H71.3098V0.64H72.9058V6.66L75.7058 3.286H77.9178L74.3618 7.15Z" fill="white"/>
</svg>
